<svg width="36" height="37" viewBox="0 0 36 37" fill="none" xmlns="http://www.w3.org/2000/svg">
<path d="M28.5 4.62012C29.2956 4.62012 30.0587 4.93619 30.6213 5.4988C31.1839 6.06141 31.5 6.82447 31.5 7.62012V28.6201C31.5 29.4158 31.1839 30.1788 30.6213 30.7414C30.0587 31.304 29.2956 31.6201 28.5 31.6201H7.5C6.70435 31.6201 5.94129 31.304 5.37868 30.7414C4.81607 30.1788 4.5 29.4158 4.5 28.6201V7.62012C4.5 6.82447 4.81607 6.06141 5.37868 5.4988C5.94129 4.93619 6.70435 4.62012 7.5 4.62012H28.5ZM27.75 27.8701V19.9201C27.75 18.6232 27.2348 17.3794 26.3178 16.4624C25.4007 15.5453 24.1569 15.0301 22.86 15.0301C21.585 15.0301 20.1 15.8101 19.38 16.9801V15.3151H15.195V27.8701H19.38V20.4751C19.38 19.3201 20.31 18.3751 21.465 18.3751C22.022 18.3751 22.5561 18.5964 22.9499 18.9902C23.3438 19.384 23.565 19.9182 23.565 20.4751V27.8701H27.75ZM10.32 12.9601C10.9883 12.9601 11.6293 12.6946 12.1019 12.222C12.5745 11.7494 12.84 11.1085 12.84 10.4401C12.84 9.04512 11.715 7.90512 10.32 7.90512C9.64768 7.90512 9.00289 8.1722 8.52748 8.6476C8.05208 9.12301 7.785 9.76779 7.785 10.4401C7.785 11.8351 8.925 12.9601 10.32 12.9601ZM12.405 27.8701V15.3151H8.25V27.8701H12.405Z" fill="#F8F8F8"/>
</svg>
