<svg width="36" height="37" viewBox="0 0 36 37" fill="none" xmlns="http://www.w3.org/2000/svg">
<path d="M11.7 3.12012H24.3C29.1 3.12012 33 7.02012 33 11.8201V24.4201C33 26.7275 32.0834 28.9404 30.4518 30.5719C28.8203 32.2035 26.6074 33.1201 24.3 33.1201H11.7C6.9 33.1201 3 29.2201 3 24.4201V11.8201C3 9.51273 3.9166 7.29985 5.54817 5.66829C7.17974 4.03672 9.39262 3.12012 11.7 3.12012ZM11.4 6.12012C9.96783 6.12012 8.59432 6.68904 7.58162 7.70174C6.56893 8.71444 6 10.0879 6 11.5201V24.7201C6 27.7051 8.415 30.1201 11.4 30.1201H24.6C26.0322 30.1201 27.4057 29.5512 28.4184 28.5385C29.4311 27.5258 30 26.1523 30 24.7201V11.5201C30 8.53512 27.585 6.12012 24.6 6.12012H11.4ZM25.875 8.37012C26.3723 8.37012 26.8492 8.56766 27.2008 8.91929C27.5525 9.27092 27.75 9.74784 27.75 10.2451C27.75 10.7424 27.5525 11.2193 27.2008 11.5709C26.8492 11.9226 26.3723 12.1201 25.875 12.1201C25.3777 12.1201 24.9008 11.9226 24.5492 11.5709C24.1975 11.2193 24 10.7424 24 10.2451C24 9.74784 24.1975 9.27092 24.5492 8.91929C24.9008 8.56766 25.3777 8.37012 25.875 8.37012ZM18 10.6201C19.9891 10.6201 21.8968 11.4103 23.3033 12.8168C24.7098 14.2233 25.5 16.131 25.5 18.1201C25.5 20.1092 24.7098 22.0169 23.3033 23.4234C21.8968 24.8299 19.9891 25.6201 18 25.6201C16.0109 25.6201 14.1032 24.8299 12.6967 23.4234C11.2902 22.0169 10.5 20.1092 10.5 18.1201C10.5 16.131 11.2902 14.2233 12.6967 12.8168C14.1032 11.4103 16.0109 10.6201 18 10.6201ZM18 13.6201C16.8065 13.6201 15.6619 14.0942 14.818 14.9381C13.9741 15.7821 13.5 16.9266 13.5 18.1201C13.5 19.3136 13.9741 20.4582 14.818 21.3021C15.6619 22.146 16.8065 22.6201 18 22.6201C19.1935 22.6201 20.3381 22.146 21.182 21.3021C22.0259 20.4582 22.5 19.3136 22.5 18.1201C22.5 16.9266 22.0259 15.7821 21.182 14.9381C20.3381 14.0942 19.1935 13.6201 18 13.6201Z" fill="#F8F8F8"/>
</svg>
