<svg width="132" height="40" viewBox="0 0 132 40" fill="none" xmlns="http://www.w3.org/2000/svg">
<g clip-path="url(#clip0_1080_638)">
<mask id="mask0_1080_638" style="mask-type:luminance" maskUnits="userSpaceOnUse" x="20" y="2" width="18" height="11">
<path d="M20.5547 12.3403C21.0841 12.2897 21.6341 12.2518 22.2184 12.2139C26.1441 11.9483 31.9534 11.4678 37.3503 6.91523C35.9547 5.39772 34.2978 4.07622 32.4141 2.995C29.8909 4.15842 25.2641 6.83303 20.5547 12.3403Z" fill="white"/>
</mask>
<g mask="url(#mask0_1080_638)">
<path d="M22.2043 -1.60181L40.3749 3.91814L35.6999 16.9434L17.5293 11.4235L22.2043 -1.60181Z" fill="url(#paint0_linear_1080_638)"/>
</g>
<mask id="mask1_1080_638" style="mask-type:luminance" maskUnits="userSpaceOnUse" x="9" y="17" width="34" height="16">
<path d="M20.4049 25.2835C18.4043 25.3404 16.6787 25.391 15.6749 25.7008C12.258 26.7504 11.3505 28.2996 11.1168 28.837C10.7249 29.8929 10.3468 30.9868 9.98242 32.1186C10.2918 32.0427 10.608 31.9669 10.9449 31.9036C12.4643 31.6065 14.3687 31.676 16.7749 31.7645C23.4849 32.0111 33.7218 32.6055 41.7037 24.4173C42.3224 22.2232 42.5149 20.0102 42.3155 17.8604C35.0074 24.5184 26.393 25.1128 20.4049 25.2835Z" fill="white"/>
</mask>
<g mask="url(#mask1_1080_638)">
<path d="M13.1801 8.95129L47.287 19.3146L39.312 41.5208L5.20508 31.1575L13.1801 8.95129Z" fill="url(#paint1_linear_1080_638)"/>
</g>
<mask id="mask2_1080_638" style="mask-type:luminance" maskUnits="userSpaceOnUse" x="14" y="9" width="28" height="14">
<path d="M22.5219 16.0393C21.0369 16.1405 19.765 16.248 19.05 16.4883C16.6094 17.3039 15.7362 19.1755 15.6262 19.283C15.0831 20.1998 14.5537 21.1672 14.0312 22.1789C14.1344 22.141 14.2375 22.0967 14.3406 22.0588C15.9012 21.5024 17.9431 21.515 20.2669 21.4455C26.0556 21.2811 34.0031 21.2558 41.6481 14.4586C41.1256 12.6818 40.335 10.9873 39.3037 9.41919C33.8106 14.3827 26.8325 15.7548 22.5219 16.0393Z" fill="white"/>
</mask>
<g mask="url(#mask2_1080_638)">
<path d="M16.7528 1.85693L45.7859 10.6775L38.9384 29.7475L9.89844 20.927L16.7528 1.85693Z" fill="url(#paint2_linear_1080_638)"/>
</g>
<mask id="mask3_1080_638" style="mask-type:luminance" maskUnits="userSpaceOnUse" x="-1" y="0" width="29" height="33">
<path d="M1.07175 13.4153C-1.41012 20.3136 0.542378 27.5787 5.49238 32.6118C5.88425 31.2903 6.29675 30.0067 6.723 28.7864C6.72988 28.7737 6.72988 28.7611 6.73675 28.7484C12.5943 12.138 21.848 4.40505 27.7261 0.990655C25.5605 0.345714 23.3536 0.0358887 21.188 0.0358887C12.2986 0.0358887 4.01425 5.22071 1.07175 13.4153Z" fill="white"/>
</mask>
<g mask="url(#mask3_1080_638)">
<path d="M1.46297 -7.94373L38.2786 3.24159L24.8586 40.5913L-11.957 29.406L1.46297 -7.94373Z" fill="url(#paint3_linear_1080_638)"/>
</g>
<mask id="mask4_1080_638" style="mask-type:luminance" maskUnits="userSpaceOnUse" x="9" y="29" width="31" height="11">
<path d="M16.6171 35.3054C14.5684 35.2295 12.7946 35.1663 11.7496 35.3686C10.9246 35.533 10.2715 35.729 9.75586 35.9314C11.2202 36.7976 12.829 37.5058 14.5546 38.0306C24.0971 40.9328 34.279 37.2402 39.2909 29.6716C31.2059 36.6838 23.059 35.5457 16.6171 35.3054Z" fill="white"/>
</mask>
<g mask="url(#mask4_1080_638)">
<path d="M12.6573 21.5782L42.9348 30.7781L36.3761 49.0199L6.10547 39.8263L12.6573 21.5782Z" fill="url(#paint4_linear_1080_638)"/>
</g>
<path d="M65.0506 6.80142L64.6587 7.91426C64.4662 8.45172 64.095 8.61611 63.5381 8.62244C63.1462 8.62244 62.7543 8.62244 62.2525 8.62244C60.6987 8.62244 59.2962 9.4128 58.9456 11.2528L58.5812 13.0422L58.3956 13.9527H62.4381C62.9468 13.9527 63.215 14.3131 62.9468 14.8505C62.1975 16.425 61.2143 16.3428 60.3412 16.3617H57.9693L57.2543 19.9342L54.0162 36.0767C53.4868 38.6185 52.4625 39.0042 51.4862 39.0422H50.6406C50.1868 39.0422 50.1593 38.8904 50.2625 38.2961L52.9712 24.2148L54.2981 17.2659L54.4837 16.3554H52.1462C51.6375 16.3554 51.3693 15.995 51.6375 15.4576C52.0156 14.0033 53.4937 13.9527 54.0781 13.9527L54.8962 13.959V13.9464L55.4393 11.1137C55.4875 10.8608 55.5493 10.6142 55.625 10.3739C56.3056 8.17351 57.9762 6.75084 59.9081 6.09325C60.74 5.81504 61.6131 5.66961 62.4793 5.66961C63.3731 5.66961 64.0743 5.60639 64.4593 5.7202C64.975 5.82769 65.25 6.25765 65.0506 6.80142Z" fill="#ED3426"/>
<path d="M68.8808 6.70034C68.9977 6.12495 69.3277 5.65705 70.0358 5.65705H71.4452C72.2702 5.62544 72.5452 6.08701 72.4146 6.59285L67.7465 31.3283C67.6296 31.9036 67.1621 32.2641 66.5777 32.2641H65.024C64.4396 32.2641 64.1302 31.9036 64.2471 31.3283L68.8808 6.70034Z" fill="#ED3426"/>
<path d="M76.5809 14.6925C76.6977 14.0792 77.124 13.7188 77.7084 13.7188H79.2621C79.8465 13.7188 80.1971 14.0792 80.0802 14.6925L78.1002 25.0242C77.5159 28.2299 78.8359 29.8107 81.2077 29.8107C83.5796 29.8107 85.6009 28.2299 86.1852 25.0242L88.1652 14.6545C88.2821 14.0792 88.7496 13.7188 89.334 13.7188H90.8877C91.4721 13.7188 91.7815 14.0792 91.6646 14.6925L89.6777 25.2076C88.7427 30.1079 85.2021 32.7319 80.6921 32.7319C76.4915 32.7319 73.6109 30.1079 74.5459 25.2076L76.5809 14.6925Z" fill="#ED3426"/>
<path d="M96.1812 20.7815C97.0749 15.8876 100.616 13.2572 105.167 13.2572C108.941 13.2572 112.207 15.8876 111.272 20.7815L109.292 31.3282C109.175 31.9036 108.707 32.264 108.123 32.264H106.569C105.985 32.264 105.676 31.9036 105.792 31.3282L107.738 20.9586C108.364 17.7528 106.92 16.1721 104.589 16.1721C102.176 16.1721 100.272 17.7528 99.6874 20.9586L97.7074 31.2903C97.5905 31.9036 97.123 32.264 96.5387 32.264H94.9849C94.4005 32.264 94.0912 31.9036 94.208 31.3282L96.1812 20.7815Z" fill="#ED3426"/>
<path d="M115.589 24.9547L116.325 20.9965C117.26 15.995 120.835 13.2572 125.544 13.2572C129.318 13.2572 132.776 15.995 131.841 20.9965L129.896 31.3282C129.779 31.9415 129.353 32.264 128.727 32.264H127.675C126.974 32.264 126.665 31.9036 126.706 31.2587L126.775 30.6959C125.688 31.8088 123.866 32.7382 121.419 32.7382C117.885 32.7319 114.578 30.2849 115.589 24.9547ZM127.593 24.8851L128.308 21.1735C128.968 17.7908 127.373 16.1721 125.001 16.1721C122.67 16.1721 120.45 17.7908 119.79 21.1735L119.13 24.7713C118.428 28.4829 119.989 29.7728 122.278 29.7728C124.265 29.7791 126.816 28.0909 127.593 24.8851Z" fill="#ED3426"/>
</g>
<defs>
<linearGradient id="paint0_linear_1080_638" x1="5.67627" y1="0.598438" x2="45.2081" y2="14.7973" gradientUnits="userSpaceOnUse">
<stop stop-color="#F37923"/>
<stop offset="0.4009" stop-color="#EF5725"/>
<stop offset="0.7715" stop-color="#EC3E26"/>
<stop offset="0.9967" stop-color="#EB3527"/>
<stop offset="1" stop-color="#EB3527"/>
</linearGradient>
<linearGradient id="paint1_linear_1080_638" x1="-0.276276" y1="17.1783" x2="39.2555" y2="31.3772" gradientUnits="userSpaceOnUse">
<stop stop-color="#F37923"/>
<stop offset="0.4009" stop-color="#EF5725"/>
<stop offset="0.7715" stop-color="#EC3E26"/>
<stop offset="0.9967" stop-color="#EB3527"/>
<stop offset="1" stop-color="#EB3527"/>
</linearGradient>
<linearGradient id="paint2_linear_1080_638" x1="2.9332" y1="8.23663" x2="42.465" y2="22.4355" gradientUnits="userSpaceOnUse">
<stop stop-color="#F37923"/>
<stop offset="0.4009" stop-color="#EF5725"/>
<stop offset="0.7715" stop-color="#EC3E26"/>
<stop offset="0.9967" stop-color="#EB3527"/>
<stop offset="1" stop-color="#EB3527"/>
</linearGradient>
<linearGradient id="paint3_linear_1080_638" x1="1.32057" y1="12.727" x2="40.8524" y2="26.9259" gradientUnits="userSpaceOnUse">
<stop stop-color="#F37923"/>
<stop offset="0.4009" stop-color="#EF5725"/>
<stop offset="0.7715" stop-color="#EC3E26"/>
<stop offset="0.9967" stop-color="#EB3527"/>
<stop offset="1" stop-color="#EB3527"/>
</linearGradient>
<linearGradient id="paint4_linear_1080_638" x1="-3.70638" y1="26.7284" x2="35.8254" y2="40.9273" gradientUnits="userSpaceOnUse">
<stop stop-color="#F37923"/>
<stop offset="0.4009" stop-color="#EF5725"/>
<stop offset="0.7715" stop-color="#EC3E26"/>
<stop offset="0.9967" stop-color="#EB3527"/>
<stop offset="1" stop-color="#EB3527"/>
</linearGradient>
<clipPath id="clip0_1080_638">
<rect width="132" height="39" fill="white" transform="translate(0 0.0358887)"/>
</clipPath>
</defs>
</svg>
