<svg xmlns="http://www.w3.org/2000/svg" width="542" height="550" fill="none"><path fill="#F5F5F5" d="M0 .241h541.87v549.25H0z"/><path fill="#fff" d="M70.728 51.55c0-6.73 5.455-12.184 12.184-12.184H458.96c6.728 0 12.183 5.455 12.183 12.183v497.942H70.729V51.549Z"/><path fill="#000" d="M114.445 276.736h-1.648l-.977-2.359h-4.704l-.977 2.359h-1.578l4.104-9.772h1.689l4.091 9.772Zm-4.97-8.069-1.787 4.328h3.56l-1.773-4.328Zm14.038.796c.837 0 1.521.284 2.052.852.53.567.795 1.289.795 2.163v4.258h-1.465v-4.034c0-.549-.159-1.001-.475-1.354a1.47 1.47 0 0 0-1.173-.545c-.474 0-.87.182-1.186.545-.307.353-.461.805-.461 1.354v4.034h-1.466v-4.034c0-.549-.153-1.001-.46-1.354a1.47 1.47 0 0 0-1.173-.545c-.475 0-.87.182-1.186.545-.308.353-.461.805-.461 1.354v4.034h-1.466v-7.133h1.466v.949c.521-.726 1.21-1.089 2.066-1.089.493 0 .935.116 1.326.349.391.233.703.558.935.977.252-.409.577-.73.978-.963.409-.242.86-.363 1.354-.363Zm5.24 6.352c-.726-.708-1.089-1.587-1.089-2.639 0-1.051.363-1.931 1.089-2.638.726-.717 1.624-1.075 2.695-1.075 1.07 0 1.968.358 2.694 1.075.726.707 1.089 1.587 1.089 2.638 0 1.052-.363 1.931-1.089 2.639-.726.707-1.624 1.061-2.694 1.061-1.071 0-1.969-.354-2.695-1.061Zm1.075-4.314c-.437.447-.656 1.005-.656 1.675 0 .67.219 1.229.656 1.676.438.446.977.67 1.62.67.651 0 1.191-.224 1.619-.67.437-.447.656-1.006.656-1.676 0-.679-.219-1.242-.656-1.689-.428-.446-.968-.67-1.619-.67-.643 0-1.182.228-1.62.684Zm6.634 2.276v-4.174h1.466v4.174c0 .521.168.944.503 1.27.335.316.763.475 1.284.475.512 0 .935-.159 1.27-.475.335-.326.503-.749.503-1.27v-4.174h1.466v4.174c0 .912-.308 1.656-.922 2.233-.605.577-1.377.866-2.317.866-.949 0-1.731-.289-2.345-.866-.605-.577-.908-1.321-.908-2.233Zm11.897-4.314c.866 0 1.573.284 2.122.852.558.567.837 1.289.837 2.163v4.258h-1.465v-4.034c0-.549-.182-1.001-.545-1.354-.363-.363-.819-.545-1.368-.545-.549 0-1.01.182-1.382.545-.363.353-.544.805-.544 1.354v4.034h-1.466v-7.133h1.466v1.019c.568-.773 1.349-1.159 2.345-1.159Zm5.155 1.438h-1.522v-1.298h1.522v-2.318l1.465-.46v2.778h2.01v1.298h-2.01v3.294c0 .438.098.754.293.95.196.195.508.293.936.293h.781v1.298h-.781c-.922 0-1.601-.214-2.038-.642-.438-.428-.656-1.084-.656-1.968v-3.225Z"/><rect width="331.59" height="35" x="105.141" y="293.236" fill="#ADECCF" fill-opacity=".4" rx="3.5"/><path fill="#000" d="M124.416 312.181v-7.217h1.536v9.772h-1.508l-5.43-7.217v7.217h-1.55v-9.772h1.508l5.444 7.217Zm6.863-3.783c.912 0 1.661.294 2.247.88.596.577.893 1.345.893 2.303 0 .949-.335 1.736-1.005 2.359-.67.624-1.517.936-2.54.936-.987 0-1.782-.256-2.387-.768s-.95-1.205-1.033-2.08l1.577-.182c.047.484.233.875.558 1.173.335.289.764.433 1.285.433.577 0 1.047-.177 1.41-.531.372-.353.558-.8.558-1.34 0-.558-.172-1.01-.516-1.354-.345-.354-.801-.53-1.369-.53-.772 0-1.358.302-1.758.907l-1.438-.195.67-5.445h5.235v1.382h-4.007l-.335 2.653a3.345 3.345 0 0 1 1.955-.601Zm5.43 5.04c-.745-.959-1.117-2.155-1.117-3.588 0-1.433.372-2.629 1.117-3.587.744-.959 1.684-1.438 2.82-1.438 1.145 0 2.089.479 2.834 1.438.744.958 1.116 2.154 1.116 3.587 0 1.433-.372 2.629-1.116 3.588-.745.958-1.689 1.438-2.834 1.438-1.136 0-2.076-.48-2.82-1.438Zm1.131-6.156c-.438.679-.656 1.535-.656 2.568 0 1.033.218 1.894.656 2.583.446.679 1.009 1.019 1.689 1.019.679 0 1.242-.34 1.689-1.019.447-.689.67-1.55.67-2.583 0-1.033-.223-1.889-.67-2.568-.447-.689-1.01-1.033-1.689-1.033-.68 0-1.243.344-1.689 1.033Zm7.277 5.583c.391 0 .707.159.949.475.251.307.377.684.377 1.131 0 .595-.154 1.112-.461 1.549-.307.447-.73.787-1.27 1.019l-.6-.795c.446-.196.763-.428.949-.698.195-.27.284-.54.265-.81a.988.988 0 0 1-.838-.126c-.251-.167-.376-.418-.376-.753a.95.95 0 0 1 .293-.698.966.966 0 0 1 .712-.294Zm8.393-7.901v6.338h1.299v1.368h-1.299v2.066h-1.549v-2.066h-5.04v-1.368l4.956-6.338h1.633Zm-1.549 2.038-3.351 4.3h3.351v-4.3Zm7.755 1.396c.912 0 1.661.294 2.247.88.596.577.894 1.345.894 2.303 0 .949-.335 1.736-1.005 2.359-.67.624-1.517.936-2.541.936-.986 0-1.782-.256-2.387-.768s-.949-1.205-1.033-2.08l1.577-.182c.047.484.233.875.559 1.173.335.289.763.433 1.284.433.577 0 1.047-.177 1.41-.531.372-.353.558-.8.558-1.34 0-.558-.172-1.01-.516-1.354-.344-.354-.8-.53-1.368-.53-.773 0-1.359.302-1.759.907l-1.438-.195.67-5.445h5.235v1.382h-4.006l-.335 2.653a3.342 3.342 0 0 1 1.954-.601Zm5.43 5.04c-.744-.959-1.116-2.155-1.116-3.588 0-1.433.372-2.629 1.116-3.587.745-.959 1.685-1.438 2.82-1.438 1.145 0 2.09.479 2.834 1.438.745.958 1.117 2.154 1.117 3.587 0 1.433-.372 2.629-1.117 3.588-.744.958-1.689 1.438-2.834 1.438-1.135 0-2.075-.48-2.82-1.438Zm1.131-6.156c-.437.679-.656 1.535-.656 2.568 0 1.033.219 1.894.656 2.583.447.679 1.01 1.019 1.689 1.019.68 0 1.243-.34 1.689-1.019.447-.689.67-1.55.67-2.583 0-1.033-.223-1.889-.67-2.568-.446-.689-1.009-1.033-1.689-1.033-.679 0-1.242.344-1.689 1.033Zm6.565 7.273a.955.955 0 0 1-.293-.698c0-.27.098-.503.293-.698a.953.953 0 0 1 .698-.294.95.95 0 0 1 .698.294.954.954 0 0 1 .293.698c0 .27-.098.502-.293.698a.954.954 0 0 1-.698.293.955.955 0 0 1-.698-.293Zm3.442-1.117c-.744-.959-1.117-2.155-1.117-3.588 0-1.433.373-2.629 1.117-3.587.745-.959 1.685-1.438 2.82-1.438 1.145 0 2.089.479 2.834 1.438.744.958 1.117 2.154 1.117 3.587 0 1.433-.373 2.629-1.117 3.588-.745.958-1.689 1.438-2.834 1.438-1.135 0-2.075-.48-2.82-1.438Zm1.131-6.156c-.438.679-.656 1.535-.656 2.568 0 1.033.218 1.894.656 2.583.447.679 1.01 1.019 1.689 1.019s1.242-.34 1.689-1.019c.447-.689.67-1.55.67-2.583 0-1.033-.223-1.889-.67-2.568-.447-.689-1.01-1.033-1.689-1.033s-1.242.344-1.689 1.033Zm7.962 6.156c-.745-.959-1.117-2.155-1.117-3.588 0-1.433.372-2.629 1.117-3.587.745-.959 1.684-1.438 2.82-1.438 1.145 0 2.089.479 2.834 1.438.744.958 1.116 2.154 1.116 3.587 0 1.433-.372 2.629-1.116 3.588-.745.958-1.689 1.438-2.834 1.438-1.136 0-2.075-.48-2.82-1.438Zm1.131-6.156c-.438.679-.656 1.535-.656 2.568 0 1.033.218 1.894.656 2.583.446.679 1.009 1.019 1.689 1.019.679 0 1.242-.34 1.689-1.019.447-.689.67-1.55.67-2.583 0-1.033-.223-1.889-.67-2.568-.447-.689-1.01-1.033-1.689-1.033-.68 0-1.243.344-1.689 1.033Z"/><rect width="331.59" height="35" x="105.141" y="293.236" stroke="#5CD89F" rx="3.5"/><rect width="331.59" height="35" x="105.141" y="473.205" fill="#ADECCF" fill-opacity=".4" rx="3.5"/><path fill="#000" d="M239.031 494.705h-6.254v-9.772h6.254v1.382h-4.704v2.82h4.564v1.368h-4.564v2.82h4.704v1.382Zm5.976-7.133h1.717l-2.638 3.545 2.638 3.588h-1.801l-1.758-2.555-1.787 2.555h-1.717l2.638-3.532-2.638-3.601h1.814l1.745 2.554 1.787-2.554Zm6.759-.14c.995 0 1.828.358 2.498 1.075.68.707 1.019 1.587 1.019 2.638 0 1.052-.339 1.931-1.019 2.639-.67.707-1.503 1.061-2.498 1.061-1.061 0-1.908-.401-2.541-1.201v3.853h-1.466v-9.925h1.466v1.061c.633-.801 1.48-1.201 2.541-1.201Zm-.266 6.059c.642 0 1.178-.224 1.606-.67.437-.447.656-1.006.656-1.676 0-.679-.219-1.242-.656-1.689-.428-.446-.964-.67-1.606-.67-.651 0-1.196.224-1.633.67-.428.447-.642 1.01-.642 1.689 0 .67.214 1.229.642 1.676.437.446.982.67 1.633.67Zm5.889.293c-.726-.708-1.089-1.587-1.089-2.639 0-1.051.363-1.931 1.089-2.638.726-.717 1.624-1.075 2.694-1.075 1.07 0 1.969.358 2.694 1.075.726.707 1.089 1.587 1.089 2.638 0 1.052-.363 1.931-1.089 2.639-.725.707-1.624 1.061-2.694 1.061-1.07 0-1.968-.354-2.694-1.061Zm1.075-4.314c-.437.447-.656 1.005-.656 1.675 0 .67.219 1.229.656 1.676.437.446.977.67 1.619.67.652 0 1.191-.224 1.62-.67.437-.447.656-1.006.656-1.676 0-.679-.219-1.242-.656-1.689-.429-.446-.968-.67-1.62-.67-.642 0-1.182.228-1.619.684Zm8.238-1.898v1.019a2.784 2.784 0 0 1 1.214-.963 2.525 2.525 0 0 1 1.578-.112v1.396c-.773-.214-1.433-.144-1.983.209-.539.345-.809.861-.809 1.55v4.034h-1.466v-7.133h1.466Zm4.855 1.298h-1.522v-1.298h1.522v-2.318l1.466-.46v2.778h2.01v1.298h-2.01v3.294c0 .438.097.754.293.95.195.195.507.293.935.293h.782v1.298h-.782c-.921 0-1.601-.214-2.038-.642-.437-.428-.656-1.084-.656-1.968v-3.225Zm12.687 5.835h-3.658v-9.772h3.658c1.424 0 2.605.47 3.545 1.41.95.931 1.424 2.09 1.424 3.476 0 1.387-.474 2.55-1.424 3.49-.94.931-2.121 1.396-3.545 1.396Zm-2.108-8.39v7.008h1.996c1.014 0 1.847-.33 2.499-.991.661-.67.991-1.508.991-2.513 0-1.014-.33-1.852-.991-2.513-.652-.66-1.485-.991-2.499-.991h-1.996Zm11.374 1.117c.857 0 1.555.223 2.094.67.54.447.81 1.089.81 1.927v4.676h-1.466v-1.061c-.586.8-1.414 1.201-2.485 1.201-.679 0-1.233-.182-1.661-.545-.428-.363-.642-.847-.642-1.452 0-.698.247-1.219.74-1.563.493-.354 1.121-.572 1.884-.656l1.382-.14c.522-.046.782-.279.782-.698a.98.98 0 0 0-.405-.823c-.26-.205-.605-.307-1.033-.307-.437 0-.809.111-1.116.335-.298.223-.489.549-.573.977l-1.452-.349c.131-.67.48-1.201 1.047-1.592.568-.4 1.266-.6 2.094-.6Zm-.726 6.226c.605 0 1.117-.2 1.536-.6.419-.41.628-.884.628-1.424v-.279c-.121.111-.391.191-.809.237l-1.355.168c-.353.046-.637.153-.851.321a.782.782 0 0 0-.307.656c0 .279.102.502.307.67.214.167.498.251.851.251Zm5.752-4.788h-1.522v-1.298h1.522v-2.318l1.465-.46v2.778h2.01v1.298h-2.01v3.294c0 .438.098.754.293.95.196.195.508.293.936.293h.781v1.298h-.781c-.922 0-1.601-.214-2.038-.642-.438-.428-.656-1.084-.656-1.968v-3.225Zm7.721-1.438c.856 0 1.554.223 2.094.67.539.447.809 1.089.809 1.927v4.676h-1.465v-1.061c-.587.8-1.415 1.201-2.485 1.201-.68 0-1.233-.182-1.661-.545-.429-.363-.643-.847-.643-1.452 0-.698.247-1.219.74-1.563.494-.354 1.122-.572 1.885-.656l1.382-.14c.521-.046.782-.279.782-.698a.98.98 0 0 0-.405-.823c-.261-.205-.605-.307-1.033-.307-.438 0-.81.111-1.117.335-.298.223-.489.549-.572.977l-1.452-.349c.13-.67.479-1.201 1.047-1.592.568-.4 1.265-.6 2.094-.6Zm-.726 6.226c.605 0 1.117-.2 1.535-.6.419-.41.629-.884.629-1.424v-.279c-.121.111-.391.191-.81.237l-1.354.168c-.354.046-.638.153-.852.321a.785.785 0 0 0-.307.656c0 .279.103.502.307.67.214.167.498.251.852.251Z"/><rect width="331.59" height="35" x="105.141" y="473.205" stroke="#5CD89F" rx="3.5"/><path fill="#000" d="M114.445 366.736h-1.648l-.977-2.359h-4.704l-.977 2.359h-1.578l4.104-9.772h1.689l4.091 9.772Zm-4.97-8.069-1.787 4.328h3.56l-1.773-4.328Zm9.92.796c.995 0 1.828.358 2.498 1.075.68.707 1.019 1.587 1.019 2.638 0 1.052-.339 1.931-1.019 2.639-.67.707-1.503 1.061-2.498 1.061-1.061 0-1.908-.4-2.541-1.201v3.853h-1.466v-9.925h1.466v1.061c.633-.801 1.48-1.201 2.541-1.201Zm-.266 6.059c.642 0 1.178-.224 1.606-.67.437-.447.656-1.006.656-1.676 0-.679-.219-1.242-.656-1.689-.428-.446-.964-.67-1.606-.67-.651 0-1.196.224-1.633.67-.428.447-.642 1.01-.642 1.689 0 .67.214 1.229.642 1.676.437.446.982.67 1.633.67Zm9.154-6.059c.996 0 1.829.358 2.499 1.075.679.707 1.019 1.587 1.019 2.638 0 1.052-.34 1.931-1.019 2.639-.67.707-1.503 1.061-2.499 1.061-1.061 0-1.908-.4-2.541-1.201v3.853h-1.465v-9.925h1.465v1.061c.633-.801 1.48-1.201 2.541-1.201Zm-.265 6.059c.642 0 1.177-.224 1.605-.67.437-.447.656-1.006.656-1.676 0-.679-.219-1.242-.656-1.689-.428-.446-.963-.67-1.605-.67-.652 0-1.196.224-1.634.67-.428.447-.642 1.01-.642 1.689 0 .67.214 1.229.642 1.676.438.446.982.67 1.634.67Zm6.613 1.214h-1.466v-10.33h1.466v10.33Zm1.726-8.543a.874.874 0 0 1-.265-.642c0-.252.088-.466.265-.643a.925.925 0 0 1 .656-.265c.251 0 .465.089.642.265a.875.875 0 0 1 .265.643.874.874 0 0 1-.265.642.874.874 0 0 1-.642.265.92.92 0 0 1-.656-.265Zm1.382 8.543h-1.466v-7.133h1.466v7.133Zm5.076-7.273c1.145 0 2.076.41 2.792 1.229.717.819 1.01 1.81.88 2.973h-5.905c.102.577.367 1.047.796 1.41.428.354.944.53 1.549.53a2.313 2.313 0 0 0 2.108-1.27l1.228.544a3.685 3.685 0 0 1-1.354 1.452c-.586.363-1.261.545-2.024.545-1.07 0-1.968-.354-2.694-1.061-.726-.708-1.089-1.587-1.089-2.639 0-1.051.354-1.931 1.061-2.638.717-.717 1.601-1.075 2.652-1.075Zm0 1.27c-.539 0-1.009.168-1.41.503-.39.326-.651.754-.781 1.284h4.383a2.246 2.246 0 0 0-.782-1.284c-.391-.335-.861-.503-1.41-.503Zm4.668 4.119 1.466-.308c.13.764.651 1.145 1.563 1.145.465 0 .838-.088 1.117-.265.288-.186.433-.419.433-.698 0-.298-.149-.521-.447-.67a3.414 3.414 0 0 0-1.089-.335 23.732 23.732 0 0 1-1.298-.265 2.252 2.252 0 0 1-1.089-.601c-.298-.307-.447-.716-.447-1.228 0-.624.265-1.14.796-1.55.54-.409 1.214-.614 2.024-.614s1.471.182 1.982.545c.522.362.833.856.936 1.479l-1.466.307c-.112-.763-.596-1.144-1.452-1.144-.391 0-.712.083-.963.251-.251.167-.377.386-.377.656 0 .242.107.437.321.586.214.149.484.247.81.294.325.046.674.116 1.047.209.381.093.735.2 1.061.321.325.112.595.316.809.614.214.298.321.67.321 1.117 0 .624-.293 1.145-.879 1.563-.577.41-1.294.615-2.15.615-.847 0-1.535-.182-2.066-.545a2.202 2.202 0 0 1-.963-1.479Zm12.438-3.951h-1.522v-1.298h1.522v-2.318l1.466-.46v2.778h2.01v1.298h-2.01v3.294c0 .438.097.754.293.95.195.195.507.293.935.293h.782v1.298h-.782c-.921 0-1.601-.214-2.038-.642-.437-.428-.656-1.084-.656-1.968v-3.225Zm5.34 4.914c-.726-.708-1.089-1.587-1.089-2.639 0-1.051.363-1.931 1.089-2.638.726-.717 1.624-1.075 2.694-1.075 1.071 0 1.969.358 2.695 1.075.725.707 1.088 1.587 1.088 2.638 0 1.052-.363 1.931-1.088 2.639-.726.707-1.624 1.061-2.695 1.061-1.07 0-1.968-.354-2.694-1.061Zm1.075-4.314c-.437.447-.656 1.005-.656 1.675 0 .67.219 1.229.656 1.676.437.446.977.67 1.619.67.652 0 1.192-.224 1.62-.67.437-.447.656-1.006.656-1.676 0-.679-.219-1.242-.656-1.689-.428-.446-.968-.67-1.62-.67-.642 0-1.182.228-1.619.684Zm11.767 4.314c-.726-.708-1.089-1.587-1.089-2.639 0-1.051.363-1.931 1.089-2.638.726-.717 1.624-1.075 2.694-1.075.773 0 1.461.2 2.066.6.614.401 1.066.95 1.354 1.648l-1.354.46a2.266 2.266 0 0 0-.823-.991 2.188 2.188 0 0 0-1.243-.363c-.642 0-1.182.228-1.619.684-.438.447-.656 1.005-.656 1.675 0 .67.218 1.229.656 1.676.437.446.977.67 1.619.67.466 0 .88-.117 1.243-.349.372-.242.646-.577.823-1.005l1.354.46a3.518 3.518 0 0 1-1.354 1.647c-.605.401-1.293.601-2.066.601-1.07 0-1.968-.354-2.694-1.061Zm10.342-6.352c.856 0 1.554.223 2.094.67.54.447.81 1.089.81 1.927v4.676h-1.466v-1.061c-.586.801-1.414 1.201-2.485 1.201-.679 0-1.233-.182-1.661-.545-.428-.363-.642-.847-.642-1.452 0-.698.247-1.219.74-1.563.493-.354 1.121-.572 1.884-.656l1.382-.14c.522-.046.782-.279.782-.698a.98.98 0 0 0-.405-.823c-.26-.205-.605-.307-1.033-.307-.437 0-.809.111-1.117.335-.297.223-.488.549-.572.977l-1.452-.349c.131-.67.48-1.201 1.047-1.592.568-.4 1.266-.6 2.094-.6Zm-.726 6.226c.605 0 1.117-.2 1.536-.6.419-.41.628-.884.628-1.424v-.279c-.121.111-.391.191-.81.237l-1.354.168c-.353.046-.637.153-.851.321a.782.782 0 0 0-.307.656c0 .279.102.502.307.67.214.167.498.251.851.251Zm5.751-4.788h-1.521v-1.298h1.521v-2.318l1.466-.46v2.778h2.01v1.298h-2.01v3.294c0 .438.098.754.293.95.196.195.508.293.936.293h.781v1.298h-.781c-.922 0-1.601-.214-2.038-.642-.438-.428-.657-1.084-.657-1.968v-3.225Zm7.965-1.438c1.145 0 2.076.41 2.792 1.229.717.819 1.01 1.81.88 2.973h-5.905c.102.577.367 1.047.795 1.41.428.354.945.53 1.55.53.465 0 .879-.111 1.242-.335.373-.232.661-.544.866-.935l1.228.544a3.692 3.692 0 0 1-1.354 1.452c-.586.363-1.261.545-2.024.545-1.07 0-1.968-.354-2.694-1.061-.726-.708-1.089-1.587-1.089-2.639 0-1.051.354-1.931 1.061-2.638.716-.717 1.601-1.075 2.652-1.075Zm0 1.27c-.54 0-1.01.168-1.41.503a2.356 2.356 0 0 0-.782 1.284h4.384a2.252 2.252 0 0 0-.782-1.284c-.391-.335-.861-.503-1.41-.503Zm10.798-.083v-1.047h1.465v6.365c0 1.052-.363 1.931-1.089 2.639-.725.707-1.624 1.061-2.694 1.061-.754 0-1.428-.182-2.024-.545a3.476 3.476 0 0 1-1.326-1.466l1.326-.656c.196.41.465.731.81.964.353.242.758.362 1.214.362.652 0 1.201-.228 1.647-.684.447-.446.671-1.005.671-1.675v-.418c-.633.781-1.48 1.172-2.541 1.172-.996 0-1.833-.344-2.513-1.033-.67-.698-1.005-1.563-1.005-2.596 0-1.024.335-1.885 1.005-2.583.68-.698 1.517-1.047 2.513-1.047 1.07 0 1.917.396 2.541 1.187Zm-2.276 4.732c.652 0 1.191-.219 1.619-.656.438-.438.657-.982.657-1.633 0-.652-.219-1.192-.657-1.62-.428-.437-.967-.656-1.619-.656-.642 0-1.182.219-1.619.656-.438.428-.656.968-.656 1.62 0 .651.218 1.195.656 1.633.437.437.977.656 1.619.656Zm6.194.433c-.726-.708-1.089-1.587-1.089-2.639 0-1.051.363-1.931 1.089-2.638.726-.717 1.624-1.075 2.695-1.075 1.07 0 1.968.358 2.694 1.075.726.707 1.089 1.587 1.089 2.638 0 1.052-.363 1.931-1.089 2.639-.726.707-1.624 1.061-2.694 1.061-1.071 0-1.969-.354-2.695-1.061Zm1.075-4.314c-.437.447-.656 1.005-.656 1.675 0 .67.219 1.229.656 1.676.438.446.977.67 1.62.67.651 0 1.191-.224 1.619-.67.437-.447.656-1.006.656-1.676 0-.679-.219-1.242-.656-1.689-.428-.446-.968-.67-1.619-.67-.643 0-1.182.228-1.62.684Zm8.238-1.898v1.019a2.78 2.78 0 0 1 1.215-.963 2.522 2.522 0 0 1 1.577-.112v1.396c-.772-.214-1.433-.144-1.982.209-.54.345-.81.861-.81 1.55v4.034h-1.466v-7.133h1.466Zm3.976-1.41a.875.875 0 0 1-.266-.642c0-.252.089-.466.266-.643a.923.923 0 0 1 .656-.265c.251 0 .465.089.642.265a.875.875 0 0 1 .265.643.874.874 0 0 1-.265.642.874.874 0 0 1-.642.265.919.919 0 0 1-.656-.265Zm1.382 8.543h-1.466v-7.133h1.466v7.133Zm5.076-7.273c1.145 0 2.075.41 2.792 1.229.717.819 1.01 1.81.88 2.973h-5.905c.102.577.367 1.047.795 1.41.428.354.945.53 1.55.53.465 0 .879-.111 1.242-.335.372-.232.661-.544.866-.935l1.228.544a3.692 3.692 0 0 1-1.354 1.452c-.586.363-1.261.545-2.024.545-1.07 0-1.968-.354-2.694-1.061-.726-.708-1.089-1.587-1.089-2.639 0-1.051.353-1.931 1.061-2.638.716-.717 1.601-1.075 2.652-1.075Zm0 1.27c-.54 0-1.01.168-1.41.503a2.356 2.356 0 0 0-.782 1.284h4.384a2.252 2.252 0 0 0-.782-1.284c-.391-.335-.861-.503-1.41-.503Zm4.668 4.119 1.465-.308c.131.764.652 1.145 1.564 1.145.465 0 .837-.088 1.117-.265.288-.186.432-.419.432-.698 0-.298-.149-.521-.446-.67a3.414 3.414 0 0 0-1.089-.335 23.732 23.732 0 0 1-1.298-.265 2.243 2.243 0 0 1-1.089-.601c-.298-.307-.447-.716-.447-1.228 0-.624.265-1.14.796-1.55.539-.409 1.214-.614 2.024-.614.809 0 1.47.182 1.982.545.521.362.833.856.935 1.479l-1.465.307c-.112-.763-.596-1.144-1.452-1.144-.391 0-.712.083-.963.251-.252.167-.377.386-.377.656 0 .242.107.437.321.586.214.149.484.247.809.294.326.046.675.116 1.047.209.382.093.736.2 1.061.321.326.112.596.316.81.614.214.298.321.67.321 1.117 0 .624-.293 1.145-.879 1.563-.577.41-1.294.615-2.15.615-.847 0-1.536-.182-2.066-.545a2.195 2.195 0 0 1-.963-1.479ZM118.297 402.195l1.549-.321c.084.522.317.926.698 1.215.382.288.889.433 1.522.433.577 0 1.047-.131 1.41-.391.372-.27.558-.61.558-1.019 0-.27-.079-.503-.237-.698a1.548 1.548 0 0 0-.628-.475 7.71 7.71 0 0 0-.88-.321 8.76 8.76 0 0 0-1.005-.279 6.016 6.016 0 0 1-1.019-.349 5.276 5.276 0 0 1-.879-.503 2.043 2.043 0 0 1-.615-.768 2.556 2.556 0 0 1-.237-1.13c0-.791.326-1.447.977-1.969.661-.53 1.48-.795 2.457-.795.968 0 1.773.251 2.415.754a2.901 2.901 0 0 1 1.145 1.926l-1.564.321a1.941 1.941 0 0 0-.67-1.2c-.363-.308-.823-.461-1.382-.461-.521 0-.949.13-1.284.391-.335.251-.503.567-.503.949 0 .335.135.614.405.838.27.223.61.386 1.019.488.41.093.852.219 1.327.377.474.149.916.316 1.326.503.409.176.749.47 1.019.879.27.4.405.893.405 1.48 0 .809-.345 1.48-1.033 2.01-.689.53-1.545.796-2.569.796s-1.871-.242-2.541-.726a2.83 2.83 0 0 1-1.186-1.955Zm9.569-3.294h-1.522v-1.298h1.522v-2.318l1.466-.46v2.778h2.01v1.298h-2.01v3.294c0 .438.097.754.293.95.195.195.507.293.935.293h.782v1.298h-.782c-.921 0-1.601-.214-2.038-.642-.437-.428-.656-1.084-.656-1.968v-3.225Zm7.721-1.438c.856 0 1.554.223 2.094.67.54.447.81 1.089.81 1.927v4.676h-1.466v-1.061c-.586.801-1.415 1.201-2.485 1.201-.679 0-1.233-.182-1.661-.545-.428-.363-.642-.847-.642-1.452 0-.698.247-1.219.74-1.563.493-.354 1.121-.572 1.884-.656l1.382-.14c.521-.046.782-.279.782-.698a.98.98 0 0 0-.405-.823c-.26-.205-.605-.307-1.033-.307-.437 0-.809.111-1.117.335-.297.223-.488.549-.572.977l-1.452-.349c.131-.67.48-1.201 1.047-1.592.568-.4 1.266-.6 2.094-.6Zm-.726 6.226c.605 0 1.117-.2 1.536-.6.419-.41.628-.884.628-1.424v-.279c-.121.111-.391.191-.81.237l-1.354.168c-.353.046-.637.153-.851.321a.782.782 0 0 0-.307.656c0 .279.102.502.307.67.214.167.498.251.851.251Zm7.272 1.047h-1.466v-5.835h-1.522v-1.298h1.522v-.587c0-.884.219-1.54.656-1.968.437-.428 1.117-.642 2.038-.642h.782v1.298h-.782c-.428 0-.74.098-.935.293-.196.196-.293.512-.293.95v.656h3.308v-.587c0-.884.219-1.54.656-1.968.438-.428 1.117-.642 2.038-.642h.782v1.298h-.782c-.428 0-.74.098-.935.293-.195.196-.293.512-.293.95v.656h2.01v1.298h-2.01v5.835h-1.466v-5.835h-3.308v5.835Zm14.627 0h-1.465v-5.835h-1.522v-1.298h1.522v-.587c0-.884.218-1.54.656-1.968.437-.428 1.116-.642 2.038-.642h.782v1.298h-.782c-.428 0-.74.098-.936.293-.195.196-.293.512-.293.95v.656h2.011v1.298h-2.011v5.835Zm6.172-7.273c1.145 0 2.076.41 2.792 1.229.717.819 1.01 1.81.88 2.973h-5.905c.102.577.367 1.047.795 1.41.428.354.945.53 1.55.53.465 0 .879-.111 1.242-.335.373-.232.661-.544.866-.935l1.228.544a3.692 3.692 0 0 1-1.354 1.452c-.586.363-1.261.545-2.024.545-1.07 0-1.968-.354-2.694-1.061-.726-.708-1.089-1.587-1.089-2.639 0-1.051.354-1.931 1.061-2.638.716-.717 1.601-1.075 2.652-1.075Zm0 1.27c-.54 0-1.01.168-1.41.503a2.356 2.356 0 0 0-.782 1.284h4.384a2.252 2.252 0 0 0-.782-1.284c-.391-.335-.861-.503-1.41-.503Zm8.452-1.27c1.145 0 2.076.41 2.792 1.229.717.819 1.01 1.81.88 2.973h-5.905c.102.577.367 1.047.795 1.41.429.354.945.53 1.55.53.465 0 .879-.111 1.242-.335.373-.232.661-.544.866-.935l1.228.544a3.685 3.685 0 0 1-1.354 1.452c-.586.363-1.261.545-2.024.545-1.07 0-1.968-.354-2.694-1.061-.726-.708-1.089-1.587-1.089-2.639 0-1.051.354-1.931 1.061-2.638.717-.717 1.601-1.075 2.652-1.075Zm0 1.27c-.539 0-1.009.168-1.41.503-.39.326-.651.754-.781 1.284h4.383a2.252 2.252 0 0 0-.782-1.284c-.391-.335-.861-.503-1.41-.503Zm10.798-.069v-4.258h1.465v10.33h-1.465v-1.061c-.633.801-1.48 1.201-2.541 1.201-.996 0-1.833-.354-2.513-1.061-.67-.708-1.005-1.587-1.005-2.639 0-1.051.335-1.931 1.005-2.638.68-.717 1.517-1.075 2.513-1.075 1.061 0 1.908.4 2.541 1.201Zm-2.276 4.858c.652 0 1.191-.224 1.62-.67.437-.447.656-1.006.656-1.676 0-.679-.219-1.242-.656-1.689-.429-.446-.968-.67-1.62-.67-.642 0-1.182.228-1.619.684-.437.447-.656 1.005-.656 1.675 0 .67.219 1.229.656 1.676.437.446.977.67 1.619.67Zm5.469-7.329a.875.875 0 0 1-.266-.642c0-.252.089-.466.266-.643a.923.923 0 0 1 .656-.265c.251 0 .465.089.642.265a.875.875 0 0 1 .265.643.874.874 0 0 1-.265.642.874.874 0 0 1-.642.265.919.919 0 0 1-.656-.265Zm1.382 8.543h-1.466v-7.133h1.466v7.133Zm5.453-7.273c.865 0 1.573.284 2.122.852.558.567.837 1.289.837 2.163v4.258h-1.465v-4.034c0-.549-.182-1.001-.545-1.354-.363-.363-.819-.545-1.368-.545-.549 0-1.01.182-1.382.545-.363.353-.544.805-.544 1.354v4.034h-1.466v-7.133h1.466v1.019c.567-.773 1.349-1.159 2.345-1.159Zm10.325 1.187v-1.047h1.466v6.365c0 1.052-.363 1.931-1.089 2.639-.726.707-1.624 1.061-2.694 1.061-.754 0-1.429-.182-2.024-.545a3.472 3.472 0 0 1-1.327-1.466l1.327-.656c.195.41.465.731.809.964a2.1 2.1 0 0 0 1.215.362c.651 0 1.2-.228 1.647-.684.447-.446.67-1.005.67-1.675v-.418c-.633.781-1.48 1.172-2.541 1.172-.995 0-1.833-.344-2.512-1.033-.67-.698-1.005-1.563-1.005-2.596 0-1.024.335-1.885 1.005-2.583.679-.698 1.517-1.047 2.512-1.047 1.071 0 1.917.396 2.541 1.187Zm-2.275 4.732c.651 0 1.191-.219 1.619-.656.437-.438.656-.982.656-1.633 0-.652-.219-1.192-.656-1.62-.428-.437-.968-.656-1.619-.656-.643 0-1.182.219-1.62.656-.437.428-.656.968-.656 1.62 0 .651.219 1.195.656 1.633.438.437.977.656 1.62.656Zm12.501-5.919c.856 0 1.554.223 2.094.67.54.447.809 1.089.809 1.927v4.676h-1.465v-1.061c-.587.801-1.415 1.201-2.485 1.201-.68 0-1.233-.182-1.661-.545-.428-.363-.643-.847-.643-1.452 0-.698.247-1.219.74-1.563.494-.354 1.122-.572 1.885-.656l1.382-.14c.521-.046.782-.279.782-.698a.98.98 0 0 0-.405-.823c-.261-.205-.605-.307-1.033-.307-.438 0-.81.111-1.117.335-.298.223-.489.549-.572.977l-1.452-.349c.13-.67.479-1.201 1.047-1.592.568-.4 1.266-.6 2.094-.6Zm-.726 6.226c.605 0 1.117-.2 1.535-.6.419-.41.629-.884.629-1.424v-.279c-.121.111-.391.191-.81.237l-1.354.168c-.354.046-.638.153-.852.321a.785.785 0 0 0-.307.656c0 .279.103.502.307.67.214.167.498.251.852.251Zm9.021-6.226c.866 0 1.573.284 2.122.852.559.567.838 1.289.838 2.163v4.258h-1.466v-4.034c0-.549-.181-1.001-.544-1.354-.363-.363-.819-.545-1.368-.545-.55 0-1.01.182-1.382.545-.363.353-.545.805-.545 1.354v4.034h-1.466v-7.133h1.466v1.019c.568-.773 1.35-1.159 2.345-1.159Zm10.325 1.201v-4.258h1.466v10.33h-1.466v-1.061c-.632.801-1.479 1.201-2.54 1.201-.996 0-1.834-.354-2.513-1.061-.67-.708-1.005-1.587-1.005-2.639 0-1.051.335-1.931 1.005-2.638.679-.717 1.517-1.075 2.513-1.075 1.061 0 1.908.4 2.54 1.201Zm-2.275 4.858c.651 0 1.191-.224 1.619-.67.438-.447.656-1.006.656-1.676 0-.679-.218-1.242-.656-1.689-.428-.446-.968-.67-1.619-.67-.642 0-1.182.228-1.619.684-.438.447-.656 1.005-.656 1.675 0 .67.218 1.229.656 1.676.437.446.977.67 1.619.67Zm10.379.293c-.726-.708-1.089-1.587-1.089-2.639 0-1.051.363-1.931 1.089-2.638.726-.717 1.624-1.075 2.695-1.075 1.07 0 1.968.358 2.694 1.075.726.707 1.089 1.587 1.089 2.638 0 1.052-.363 1.931-1.089 2.639-.726.707-1.624 1.061-2.694 1.061-1.071 0-1.969-.354-2.695-1.061Zm1.075-4.314c-.437.447-.656 1.005-.656 1.675 0 .67.219 1.229.656 1.676.438.446.977.67 1.62.67.651 0 1.191-.224 1.619-.67.437-.447.656-1.006.656-1.676 0-.679-.219-1.242-.656-1.689-.428-.446-.968-.67-1.619-.67-.643 0-1.182.228-1.62.684Zm7.381-.6h-1.522v-1.298h1.522v-2.318l1.466-.46v2.778h2.01v1.298h-2.01v3.294c0 .438.098.754.293.95.195.195.507.293.935.293h.782v1.298h-.782c-.921 0-1.6-.214-2.038-.642-.437-.428-.656-1.084-.656-1.968v-3.225Zm8.655-1.438c.866 0 1.573.284 2.122.852.559.567.838 1.289.838 2.163v4.258h-1.466v-4.034c0-.549-.182-1.001-.544-1.354-.363-.363-.819-.545-1.369-.545-.549 0-1.009.182-1.382.545-.362.353-.544.805-.544 1.354v4.034h-1.466v-10.33h1.466v4.216c.568-.773 1.349-1.159 2.345-1.159Zm7.98 0c1.145 0 2.075.41 2.792 1.229.717.819 1.01 1.81.879 2.973h-5.904c.102.577.367 1.047.795 1.41.428.354.945.53 1.55.53.465 0 .879-.111 1.242-.335.372-.232.661-.544.866-.935l1.228.544a3.692 3.692 0 0 1-1.354 1.452c-.586.363-1.261.545-2.024.545-1.07 0-1.968-.354-2.694-1.061-.726-.708-1.089-1.587-1.089-2.639 0-1.051.353-1.931 1.061-2.638.716-.717 1.6-1.075 2.652-1.075Zm0 1.27c-.54 0-1.01.168-1.41.503a2.356 2.356 0 0 0-.782 1.284h4.384a2.252 2.252 0 0 0-.782-1.284c-.391-.335-.861-.503-1.41-.503Zm6.552-1.13v1.019a2.786 2.786 0 0 1 1.215-.963 2.522 2.522 0 0 1 1.577-.112v1.396c-.772-.214-1.433-.144-1.982.209-.54.345-.81.861-.81 1.55v4.034h-1.466v-7.133h1.466Zm3.214 5.249 1.466-.308c.13.764.651 1.145 1.563 1.145.466 0 .838-.088 1.117-.265.289-.186.433-.419.433-.698 0-.298-.149-.521-.447-.67a3.414 3.414 0 0 0-1.089-.335 23.732 23.732 0 0 1-1.298-.265 2.252 2.252 0 0 1-1.089-.601c-.298-.307-.447-.716-.447-1.228 0-.624.266-1.14.796-1.55.54-.409 1.215-.614 2.024-.614.81 0 1.471.182 1.983.545.521.362.833.856.935 1.479l-1.466.307c-.112-.763-.595-1.144-1.452-1.144-.391 0-.712.083-.963.251-.251.167-.377.386-.377.656 0 .242.107.437.321.586.214.149.484.247.81.294.326.046.675.116 1.047.209.381.093.735.2 1.061.321.326.112.595.316.81.614.214.298.321.67.321 1.117 0 .624-.294 1.145-.88 1.563-.577.41-1.293.615-2.15.615-.847 0-1.535-.182-2.066-.545a2.202 2.202 0 0 1-.963-1.479Z"/><rect width="329.59" height="35" x="106.141" y="383.236" stroke="#EBEBEB" rx="3.5"/><path fill="#A3080C" d="M148.036 175.556c-.471 0-1.389.045-1.423.056.179.045-13.753 7.19-13.753 7.123a.085.085 0 0 1-.023.056 19.43 19.43 0 0 0-4.401 12.376c0 3.875 1.131 7.482 3.068 10.528.012-.011 4.94 4.771 4.884 5.242a19.514 19.514 0 0 0 11.648 3.83c1.523 0 3.001-.179 4.424-.504-.023-.157-.045-.313-.068-.459l-.257-1.803c-.079-.493-.482-3.853-.482-3.853v-.011l.426-.168.549.022s.571 3.383.672 3.965l.112.616c.044.246.078.493.123.75.033.213.067.415.101.628.459-.135.918-.292 1.366-.471-.067-.381-.146-.784-.146-.84l-.235-1.377c-.302-1.423-.504-2.476-.638-3.17a9.167 9.167 0 0 1-.056-.28l.437-.179.582.045s.739 3.259.93 4.244l.212 1.098c.404-.179.796-.37 1.176-.582l-.123-.56c-.011-.056-.022-.124-.045-.191-.246-1.097-.918-4.166-.918-4.166l.538-.213.515.078s.672 2.823 1.097 4.436a20.42 20.42 0 0 0 2.128-1.524s6.205-9.296 6.25-9.262a19.63 19.63 0 0 0 .896-5.88c.034-10.819-8.747-19.6-19.566-19.6Z"/><path fill="#FFF1E2" d="M152.941 185.322s-2.453-4.614-3.45-5.309c-.997-.694-2.643-1.12-3.785-.985-1.445.179-4.749 1.926-4.962 1.982 0 .023-1.232 1.535-1.546 3.103-.067.347-1.344 5.891-1.344 5.891l2.408 6.955 8.591 4.099 3.147-3.427s.403-3.394 1.254-5.936c.852-2.542.583-3.931.583-3.931l-.896-2.442Z"/><path fill="#fff" d="m143.141 203.063-.067.034a.184.184 0 0 1 .067-.034ZM142.436 189.802c-.135.079-.235.101-.303.135-.067.033-.168.112-.134.235.022.134.067.179.078.28.012.101-.033.28-.156.493a1.23 1.23 0 0 1-.404.425c-.1.068-.168.079-.224.112-.011.012-.022.034-.033.101.011-.011.011-.011.022-.011.023-.011.067-.011.112-.022.045-.012.067-.023.09-.023a.483.483 0 0 0 .123-.022c.011 0 .302-.067.482-.146.179-.078.481-.235.66-.448.135-.157.292-.437.303-.728v-.089h.011c-.034 0-.056-.012-.078-.023a1.503 1.503 0 0 1-.236-.224c-.089-.101-.089-.168-.033-.257v.011c-.067.045-.146.123-.28.201ZM149.625 188.884s-.078.011-.112.022c-.022.011-.067.023-.089.067-.023.034-.034.101.022.18.056.067.146.201.134.313 0 .045 0 .213-.044.336-.056.135-.124.269-.18.325-.022.034-.156.179-.168.269 0 .022 0 .045.012.067 0-.011.011-.011.011-.022a.513.513 0 0 1 .213-.101.956.956 0 0 0 .336-.168c-.012.011-.012.022-.023.033a.274.274 0 0 1 .034-.056c.045-.033.627-.425.638-1.052.011-.236-.302-.269-.425-.269-.09-.011-.269.067-.359.056ZM143.444 193.23s2.307.716 3.416-.572c1.108-1.288 3.012.684 3.136 1.266.123.582-2.868 2.184-3.775 2.218-.907.033-4.48-.448-4.48-.818 0-.37 1.703-2.094 1.703-2.094ZM152.918 184.057c-.369-3.898-2.161-5.847-3.449-6.788-1.356-.896-4.57-1.68-6.093-1.601-1.792.078-5.925 2.038-6.082 2.184-.157.134-2.923 4.771-2.587 5.6.347.829.829 4.737.986 5.051.044.09.84 2.643 1.366 2.554.526-.09 1.019-2.42.997-2.599-.067-.515-.997-2.822-.93-3.147.079-.325 2.565-4.222 2.733-4.357.123-.101 4.39-.627 4.413-.582.302-.258.985-.941 1.613-.919.616.023 2.385.247 3.382.941.997.695 1.31 1.367 1.389 1.557.033 0 1.422 3.158 1.825 3.17.28-.012.482-.605.437-1.064ZM151.193 186.644a9.308 9.308 0 0 1-.593.056c-.079.011-.079.056-.067.089 0 .034.011.168.022.224 0 .056.067.09.123.09.056 0 .448-.045.504-.045.056-.011.112-.056.112-.101v-.212c-.011-.056-.045-.112-.101-.101ZM135.066 205.258c.078.012.157.034.235.056-.179-.044-.37-.078-.482-.112a1.303 1.303 0 0 0-.235-.022c-.168 0-.369.034-.537.123-.213.101-1.535.773-2.095 1.064.639.919 1.344 1.77 2.128 2.565.045-.202.919-1.12 1.042-1.646.179-.74-.247-1.714-.056-2.028ZM157.253 207.386l-1.053.135s.751 3.483.963 4.356l.124.56c.369-.201.728-.403 1.075-.627-.437-1.601-1.109-4.424-1.109-4.424ZM163.335 193.431c-.527.403-.829.941-.818 1.478 0 .807.65 1.58 2.162 1.568.369 0 .705-.044.996-.089.09-.011.168-.034.258-.045l.179-.75a3.2 3.2 0 0 1-.952.179c-.806 0-1.344-.471-1.344-1.098 0-.336.135-.627.381-.84.269-.224.65-.369 1.142-.369.381 0 .616.112.762.257l.09.09h.123l.246-.885a3.619 3.619 0 0 0-1.019-.157c-.93.011-1.68.269-2.206.661ZM162.08 193.554c.112 0 .201.045.257.09a.193.193 0 0 1 .079.145h.123l.235-.963h-3.248l-.045.191-.011.044s.359.045.247.392l-.807 2.946H160.534l.056-.258s-.302-.078-.224-.358c0-.022.123-.437.191-.683l.056-.191h.739c.123 0 .213.023.291.045a.42.42 0 0 1 .202.146l.212-.874h-1.254l.134-.504.056-.19 1.087.022ZM158.138 195.884c-.101-.101-.929-1.4-.929-1.4l1.478-1.187.045-.045a1.23 1.23 0 0 1 .179-.123c.157-.079.258-.068.258-.068l.056-.235h-1.904l-.045.191-.011.044c.134.012.313.124.156.258-.022.011-1.523 1.165-1.523 1.165l.011-.045.314-1.131c.067-.224.314-.258.314-.258l.056-.235h-1.815l-.045.19-.011.045c.09.023.336.067.247.392-.605 2.184-.538 1.971-.583 2.095-.134.515-.336.593-.459.604h-.067l-.023.101-.033.157h1.904l.067-.258s-.302-.056-.246-.28c.033-.112.1-.38.168-.627.067-.235.123-.448.123-.448.325.527.403.594.806 1.143.37.504.751.481 1.703.47h.246l.067-.246c-.257 0-.414-.168-.504-.269ZM167.075 192.893a.232.232 0 0 0-.168-.067.228.228 0 0 0-.235.235c0 .068.022.124.067.168a.228.228 0 0 0 .168.068.228.228 0 0 0 .168-.068.225.225 0 0 0 .067-.168.228.228 0 0 0-.067-.168Zm-.022.314a.186.186 0 0 1-.146.056.235.235 0 0 1-.146-.056.19.19 0 0 1-.056-.146c0-.056.023-.1.056-.145a.186.186 0 0 1 .146-.056c.056 0 .101.022.146.056a.187.187 0 0 1 .056.145.241.241 0 0 1-.056.146Z"/><path fill="#fff" d="M167.019 193.005c0-.033-.011-.056-.045-.067-.022-.011-.045-.011-.067-.011h-.09v.258h.045v-.101h.034c.022 0 .045 0 .056.011a.087.087 0 0 1 .022.056v.034h.045v-.056c0-.012 0-.023-.011-.045-.011-.011-.023-.023-.045-.023a.12.12 0 0 0 .034-.011c.011-.011.022-.022.022-.045Zm-.078.045h-.09v-.089h.034c.022 0 .044 0 .056.011.011.011.022.022.022.033.011.023 0 .034-.022.045ZM164.409 200.263c-2.497-.761-7.627-.582-7.627-.582l4.189 9.878s.392-.19.437-.089a19.53 19.53 0 0 0 5.096-7.784c-.067-.056.403-.661-2.095-1.423ZM155.887 211.922c-.191-.985-.93-4.245-.93-4.245s.986-.257 1.221-.828c.235-.572-.291-1.434-.314-1.781-.112-1.031-.515-5.231-1.176-6.093-.38-.504-2.15-1.501-2.296-1.501-.638.023-1.904 2.8-2.968 3.047-.705.168-1.209-.527-1.097-.471h-.011s0-.078-.112-.448c-.124-.369-.37-.761-.415-.851-.045-.09-.179-.28-.179-.302 0-.023-.056-.146-.09-.37-.067-.437-.033-.728-.033-.762 0-.022.011-.1.022-.123 0-.022 0-.045-.022-.045-.023 0-.079-.022-.135.045-.123.123-.123.146-.134.168 0 .023.011.056 0 .101a.702.702 0 0 1-.101.347c-.056.101-.101.135-.19.123-.09-.011-.157-.078-.168-.257-.011-.179-.045-.247-.079-.291-.033-.045-.123-.068-.145-.068-.023 0-.056.023-.247.068a3.64 3.64 0 0 1-.537.067c-.045 0-.213.022-.213.022.034.135-.694-.067-.818.034-.246.201-.369 1.501-.492 2.184l-4.111.414-1.433 3.349s.436 6.63.436 6.731c0 .101 9.106-1.971 9.106-1.971l3.438-.078v.011c.023.201.404 3.36.482 3.853l.258 1.803c.022.157.044.313.067.459.403-.09.795-.19 1.187-.314-.034-.201-.067-.414-.101-.616-.056-.257-.089-.504-.123-.75l-.112-.616c-.101-.582-.672-3.965-.672-3.965l.605-.381.694.213c.023.09.034.179.056.28.146.706.336 1.747.639 3.17l.235 1.377c.011.056.078.46.145.84.37-.145.728-.291 1.087-.459l-.224-1.12Z"/><path fill="#F5D4B7" d="M149.066 186.823c-.762.112-1.859.728-1.815 1.187.034.28 1.613.325 2.33.37.717.056.829-.638.795-1.008-.033-.37-.504-.661-1.31-.549ZM154.252 198.986c-.381-.044-.202.572-.202.639.19.717.347 1.433.47 2.083 0 .067.012.123.012.168.056.28.168 1.198.38 3.259.045.683.09 1.4.124 2.005.022 0 1.288.067 1.288.067s-.045-1.769-.448-3.998c-.392-2.229-.986-4.155-1.624-4.223ZM150.824 193.398a.839.839 0 0 0-.112-.65c-.101-.179-.291-.358-.549-.515-.246-.168-.795-.65-.851-.695-.056-.044-.313-.291-.369-.336-.068-.044-.18-.145-.448-.28-.639-.324-1.154-.078-1.176-.067-.023.011-.112.09-.202.179-.09.09-.022.247.011.314 0 0 3.394 2.486 3.405 2.554.011-.023.246-.247.291-.504ZM149.424 190.329a.52.52 0 0 0-.213.101c-.011.011-.011.011-.011.022v.045c0 .011.011.011.011.022 0 0 0 .011.012.011 0 .012.011.012.022.023l.011.011c.011.011.023.022.034.022l.011.012.034.033h.011c.011.011.033.023.045.034.011.011.033.022.044.033.012.012.045.012.068.012.022 0 .056 0 .1-.012.124-.022.269-.078.404-.145-.012 0-.247-.392-.236-.403-.1.078-.201.134-.347.179ZM144.866 192.658c.011 0 .023.012.023.012-.045-.045-.056-.056-.068-.135-.022-.067-.067-.157-.089-.213-.023-.044-.112-.212-.146-.324-.033-.112-.056-.18-.056-.28a1.297 1.297 0 0 1-.033-.392c.011-.135.044-.28.123-.706.056-.28-.034-.605-.034-.896 0-.235-.022-.795-.022-1.366-.045.011-5.096-1.076-5.063-1.076.045-.414.012-.985-.011-1.411.135-1.288.325-2.766.784-3.763.347-.762.303-.515.482-.874.011-.022.022-.044.022-.067 0-.022-.011-.123-.011-.145-.011 0-1.243-.348-2.778 3.18-.638 1.479.213 5.164.213 5.164l1.333.448.874-.471 2.06-.425.84.414-.257.784v.09c-.011.28-.168.571-.303.728-.179.212-.481.358-.66.448-.18.078-.46.145-.482.145a.445.445 0 0 0-.123.023c-.011 0-.045.011-.09.022s-.089.011-.112.022c-.011 0-.022.012-.022.012-.011.011-.023.022-.023.033v.045c.012.045.056.101.056.112.023.034.124.134.303.101.235-.056.392-.101.549-.146a3.68 3.68 0 0 0 .403-.168c.033-.022.123-.089.134-.101.023-.011.034-.033.056-.044l.023-.023c.022.336-.37 1.322-.37 1.322s-.93.325-.862.291c-.079.034-.191.078-.303-.011 0 0-.112-.123-.246-.291-.079-.101-.168-.213-.247-.325a1.137 1.137 0 0 1-.123-.202.844.844 0 0 1-.089-.201v-.012c-.023-.067-.045-.168-.045-.168a1.945 1.945 0 0 1-.504-.123c.011.011-1.143.269-1.143.269l1.199 4.894s2.24 3.528 3.651 2.845c.213-.101.571-.817.426-1.064-.157-.246-2.532-4.189-2.532-4.189s3.26-1.803 3.293-1.792ZM149.413 205.964c.437.291.594.358 1.075.56.157.067.56-.011.728-.269 0 0-.011 0-.011.011-.011.012-2.386-1.859-2.699-1.971-.112-.033-.717.179-.639.291.068.101.359.404.37.415.414.325.941.761 1.176.963ZM144.362 202.514l-3.976-2.273s.112 1.131.112 1.142c.291.258.75.571.817.616.023.022.213.134.247.179.045.056.537.403.582.426.034.022.571.313.885.493.011-.012-.224.19-.224.179-.112.011-.19.056-.325.101-.56.313-.224.963-.179 1.422.112.381.246 1.042.739 1.109.381.045 1.243-.191 1.703-.28.067-.112.728-.157.716-.146.112-.033.269-.089.325-.078.034 0-.101.145-.179.291-.078.146-.549 1.546-.997 2.296-.145.302-.078.179-.168.403l.896.202 1.445-3.685-2.419-2.397ZM139.849 205.382c.157.291.605.884.616.918.022.034.112.134.235.258.112.123.213.235.235.268.023.034.236.247.292.303.056.045.123.157.168.19.156.146.739.639.795.683.056.045.336.224.381.236.492.067.739-.213.795-.292.056-.078.056-.112.033-.235 0 .011-1.915-1.433-3.192-4.2-.044-.112-.492-.638-.896-.313-.336.268-.089.907-.089.907.112.269.493 1.03.627 1.277ZM136.085 205.65c.124-.481-.929-.369-1.008-.392-.336.538-.683 2.363-.862 3.215-.034.1-.078.246-.123.448.246.246.493.492.75.728.179-.717 1.21-3.864 1.243-3.999Z"/><path fill="#000" d="M164.555 200.05a30.452 30.452 0 0 0-3.886-.582 288.2 288.2 0 0 1-3.651-.347c-.191-.023-.269-.202-.437-.292-.639-.324-1.848-.616-2.61-.884-.19-.068-.313-.236-.571-.549-.157-.191-.269-.28-.403-.403a4.276 4.276 0 0 0-.303-.258c-.044-.034-.078-.146-.033-.347.045-.213.168-1.019.157-1.96 0-.258.112-.415.224-.471.067-.033.481-.212.448-.627-.034-.414-.157-.985.179-1.803.325-.784.728-2.195.773-3.114.056-.985-.191-1.612-.583-1.96-.157-.134-.325-.336-.179-.761.157-.459.437-1.725.157-2.554-.067-.19-.135-.19-.179-.213-.045-.022-.247-.179-.325-.515-.101-.448-.426-2.038-1.669-3.662-.65-.863-1.355-1.367-1.635-1.579-.191-.124-.527-.359-.93-.572a10.124 10.124 0 0 0-1.949-.828c-.089-.023-.28-.09-.537-.157 0 0-.784-.213-1.624-.303-.146-.011-.347-.033-.571-.044-.874-.056-1.188 0-1.636.044-.044 0-.1.012-.145.023-.09.011-.179.022-.28.045-1.344.235-2.711.862-3.371 1.176-.381.179-.706.358-1.008.537-.012 0-.023.011-.023.011-.078.045-.201.112-.325.18-.19.1-.369.201-.537.291-.538.257-1.008.392-1.355.515-.068.022-.112.045-.157.056-.247.101-.403.202-.437.358-.056.303.291.572.168 1.042-.302 1.165-1.624 2.285-1.837 2.408-.616.37-.571.627-.593.762 0 .123.022.257.1.403.202.437.583.806.762 1.187.19.392.291 1.075.157 1.87-.135.773-.168.941-.247 1.087-.067.145-.201.414-.011.75.191.325.594.661.84.863.135.1.202.201.101.38-.168.303-.123 1.031.034 1.434.235.616.504 1.198.761 1.579.258.381.717 1.019.975 1.255.268.235.302.638.302.884-.011.247-.045.952.683 1.4.359.224.392.168.527.269.134.101.19.157.28.448.089.28.504 1.288 1.075 1.994.168.201.257.347.28.381.022.033.056.067-.023.235-.067.168-.358 1.131-.593 2.128-.045.179-.101.425-.336.537-.224.112-.739.392-.93.493-.19.101-.28.157-.493.426-.1.123-.168.19-.224.257-.033.045-.044.068-.235.168-.157.079-2.497.908-4.984 2.42-.056.033-.123.067-.179.1.146.224.291.46.448.672.56-.28 1.882-.952 2.094-1.064.168-.078.37-.112.538-.123.101 0 .19.011.235.023.112.022.303.067.482.112.011 0 .033.011.045.011.011 0 .022 0 .033.011.079.022.146.034.202.045h.011c.022.011.056.011.067.022.157.056.247.347.157.616-.011.056-.067.224-.134.471-.034.123-.079.268-.124.436a18.19 18.19 0 0 1-.145.527c-.179.661-.403 1.467-.583 2.184.493.448 1.02.873 1.557 1.277.056-.471.123-.952.168-1.311.135-.929.863-4.345 1.075-5.129.157-.572.236-.829.426-.919.056-.022.123-.067.168-.089.045-.023.123-.034.101.112-.034.179-.179.907-.415 3.259-.156 1.635-.156 3.08-.1 3.953.022.37.033.896.593.672a73.875 73.875 0 0 1 4.133-1.444c1.949-.605 5.589-1.4 9.106-1.916l.985-.134c.135-.022.28-.034.415-.056.313-.045.604-.078.884-.112l1.031-.134c.481-.056.896-.112 1.243-.157 0 0 .661 3.069.907 4.166.023.067.034.135.045.191-.202-.874-.963-4.357-.963-4.357l1.053-.135c.313-.044.705-.089.828-.089.247-.011.359-.146.168-.202-.134-.045-.448-.067-.604-.078h-.236c-.246 0-.313-.056-.369-.415-.157-1.052-.739-3.651-1.154-5.028-.403-1.322-.504-1.703-.605-1.994-.089-.246.079-.269.157-.258.291.012.706.168.829.426.258.56 2.038 5.23 2.755 6.978.448 1.097.975 2.419 1.479 3.595.313-.258.627-.538.929-.818-.929-2.038-2.979-6.641-4.065-8.971-.034-.078-.09-.224-.124-.302-.011-.023-.011-.045-.011-.068 0-.145.202-.168.291-.156.381.033 3.864.268 4.816.358.628.056 1.255.157 1.669.224.101.022.179.034.258.045.089.022.157.033.201.045.314.078.863.302 1.367.571.213.112.448.269.705.47.079-.224.157-.437.224-.661a5.3 5.3 0 0 0-.593-.358c-.583-.291-1.075-.482-1.602-.605Zm-28.347-11.547c-.09.045-.179.056-.246-.078-.157-.314-.28-.874-.325-1.232-.045-.359-.123-1.445-.101-2.039.022-.593-.09-.918-.302-1.209a8.172 8.172 0 0 1-.404-.572c-.067-.123-.022-.201.101-.291.056-.045.191-.022.28-.033.191-.034.829-.269 1.299-.639.471-.369 1.221-1.086 1.736-1.366.504-.28.728-.403 1.333-.471.101-.011.269.045.09.18-.179.134-.751.336-1.423 1.344-.414.616-.481.974-.604 1.243-.135.28-.258.358-.46.582-.1.112-.302.336-.38.661-.068.325-.37 1.467-.191 3.203.023.202.101.471-.089.571-.124.056-.224.112-.314.146Zm.818 2.341c-.101-.067-.516-.627-.717-1.255-.023-.067-.045-.235.067-.28.09-.033.202-.112.269-.134.067-.034.213-.067.235.157.022.224.045.493.291 1.153.045.124.056.157.067.202.045.134-.123.224-.212.157Zm.84-2.106c-.023 0-.314.034-.46.067-.089.023-.19.056-.201-.033-.011-.101-.045-.235-.056-.28-.011-.034.011-.079.056-.09.112-.022.549-.101.593-.101.045 0 .09.012.101.101.011.09.034.179.045.213 0 .045.011.112-.078.123Zm.156-1.411c-.022-.134-.067-.358-.056-.504 0-.056.023-.202.09-.269.09-.112.224-.201.302-.269.146-.123.124-.436.135-.616.033-.526-.011-2.195 1.064-3.785.045-.056.089-.112.123-.168.011-.011.022-.034.034-.045.033-.034.067-.067.089-.101.011-.011.023-.033.045-.045.034-.033.078-.078.112-.1.011 0 .011-.012.011-.012l.135-.1c.011-.012.033-.023.044-.034l.09-.056c.022-.011.034-.022.056-.022a.373.373 0 0 1 .101-.045c.011 0 .022-.011.033-.023.045-.022.09-.033.135-.044.022-.012.033-.012.056-.023.033-.011.056-.022.089-.022.012 0 .023-.011.034-.011.224-.056.448-.09.672-.135a4.254 4.254 0 0 1 1.781.112c.302.101.459.168.56.079.101-.101.369-.404.481-.504.012-.012.023-.034.034-.045 0-.011 0-.011.011-.023 0-.011.011-.022.011-.033v-.079a.083.083 0 0 0-.022-.044.342.342 0 0 0-.112-.112c-.123-.079-1.378-.997-3.069-1.031-1.657-.045-2.99.549-3.349.661a.507.507 0 0 1-.156.034c-.045 0-.191-.045-.135-.157.056-.112.202-.28.359-.426.156-.145.94-.885 1.713-1.221.146-.067.179-.089.269-.123.112-.045.19-.302-.067-.313-.269 0-.37.022-.515.044-.146.023-.213-.044-.124-.156.09-.124.258-.258.572-.426.672-.37 1.915-.762 2.497-.885.762-.168.863-.179 1.367-.213.47-.022.851.012 1.03.012 1.523.056 3.27.56 4.626 1.456 1.288.952 3.136 2.52 3.505 6.417.045.471.011.728 0 .851-.011.112-.145.336-.269.09a22.894 22.894 0 0 0-1.646-2.856c-.045-.056-.078-.09-.112-.09h-.034l-.011.012c-.011 0-.011.011-.022.022 0 .011-.011.011-.011.022 0 .012 0 .023-.012.023v.022c0 .023 0 .045.012.067.011.068.235 1.132.235 1.277.011.146-.067.504.481 1.176.224.269.426.504.527.907.101.404.134.572.134.616 0 .045.045.157-.145.168-.191 0-.93-.056-1.244-.044-.313.011-2.486.224-3.292.392-.807.168-1.244.38-1.658.806a1.285 1.285 0 0 1-.269.213c-.033.011-.134.011-.336-.011-.201-.012-.56.033-.75.123-.191.089-.325.157-.549.067-.325-.134-.874-.728-2.318-.661-.863.045-1.311.067-1.916.157-.033.011-.067.011-.112.011-.022 0-.044.011-.067.011-.011 0-.022 0-.045.012-.246.044-.526.089-.862.156a.538.538 0 0 1-.146.023c-.112.033-.201-.023-.224-.157Zm13.261-.381c0 .045-.056.09-.112.101a7.792 7.792 0 0 1-.504.045c-.056 0-.123-.034-.123-.09 0-.056-.022-.19-.022-.224-.012-.033-.012-.078.067-.089.045-.012.448-.045.605-.056.056-.012.089.044.089.089v.224Zm-1.814.437a3.22 3.22 0 0 0-.459-.269c-.09-.033-.056-.145.067-.157.437-.067.717-.067.929.068.157.1.269.291.213.459-.056.19-.134.157-.224.145-.089.012-.403-.156-.526-.246Zm.257.851c-.078.056-.324.011-.414-.033-.19-.079-.325-.124-.582-.292-.168-.112-.471-.156-.728-.078-.168.056-.303.09-.46.157-.145.056-.179-.079-.145-.135a1.5 1.5 0 0 1 .593-.459c.068-.022.202-.045.269-.045.202-.011.459.09.65.236.19.145.504.369.694.459.101.033.303.067.123.19Zm-6.283 6.787c-.761.269-.974 0-1.041-.078-.068-.078.011-.157.1-.19.18-.09.426-.269.549-.392.123-.124.359-.538.538-.684.078-.067.526-.224.862-.056.392.191 1.008.213 1.389.157.381-.056.526-.325.605-.493.078-.168.28-.224.392-.268.291-.124.672-.516.717-.56.044-.045.156-.101.347.011.347.201.526.47.84.84.325.369.705.425.817.425.112.012.18.135.191.168.011.034-.09.157-.157.213-.067.056-.112.146-.728.157-3.114.078-4.502.426-5.421.75Zm4.2.37c-.179.09-.728.302-.997.358-.268.056-1.142.224-1.288.236a1.154 1.154 0 0 1-.66-.191c-.045-.033-.101-.145.056-.168.302-.045.784-.269 2.542-.358.19-.011.28-.011.325-.011.045-.012.201.033.022.134Zm-4.077 3.898c-.616.1-2.251-.381-3.315-3.002-.269-.672.023-1.344.291-1.478.157-.079.247-.112.292-.124.056-.011.336-.056.369.258.023.258.515 2.33 1.176 3.013.168.168.291.157.336-.011.034-.157.112-.37.123-.46.012-.056.18-.235.269-.011.191.482.426 1.098.583 1.355.156.247.112.426-.124.46Zm.124-6.855a.623.623 0 0 1 .089.291c-.011.079-.257.213-.526-.089-.269-.291-.213-.706-.101-.885.179-.28.515-.134.482-.045-.112.359 0 .65.056.728Zm-1.96-3.841c-.202-.012-.415-.034-.773.1-.403.146-.661.348-.851.46a1.296 1.296 0 0 1-.46.179c-.067.011-.313-.023-.145-.202.045-.045.157-.089.313-.201.124-.09.202-.146.336-.258.236-.202.728-.493.941-.526.157-.023.426.011.594.145.179.135.246.314.045.303Zm-3.394.358c.022-.134.157-.47.459-.571.045-.011.191-.056.314-.09.145-.033.302-.067.381-.078.212-.034.257.123.123.235-.09.067-.235.168-.359.269-.19.157-.369.325-.515.448-.157.123-.437.045-.403-.213Zm1.019 3.696c-.011 0-.011 0 0 0a2.912 2.912 0 0 1-.157-.235c-.011-.023-.022-.034-.033-.056-.045-.09-.09-.168-.123-.269-.068-.179.044-.202.123-.168.078.045.291.168.526.213.146.033.224-.034.258-.146 0-.011.011-.033.022-.056 0-.011.011-.022.011-.033 0-.012 0-.012.012-.023 0-.011.011-.022.011-.033v-.124c0-.011-.011-.022-.011-.033v-.011l-.034-.034c-.022-.011-.034-.034-.067-.045-.202-.078-.773-.257-1.21-1.064-.067-.112 0-.213.034-.246.045-.034.19-.135.269-.168.067-.045.168-.045.268.033.101.068.314.224.482.213.157-.011.179-.078.202-.123.112-.168.414-.762 1.209-.773.325 0 .639.023.751.023.112-.012.492-.045.728-.202.224-.157.324-.045.19.123-.022.023-.034.045-.056.067l-.022.023c-.023.022-.034.045-.045.067-.045.09-.056.157.033.258.146.156.18.179.236.224.022.011.044.022.078.022.011 0 .022 0 .034-.011h.022a.239.239 0 0 0 .067-.045c.079-.078.135-.112.213-.213.056-.067.101 0 .09.112-.012.09.022.627-.56 1.288-.023.023-.068.056-.124.112-.011.011-.022.023-.044.034l-.023.022c-.022.011-.033.034-.056.056l-.045.045-.044.045-.034.033c-.022.023-.045.045-.056.068-.011.011-.011.022-.022.022-.023.034-.045.056-.068.09-.022.044-.044.078-.067.123-.168.347-.145.47-.157.593-.011.124-.112.18-.224.224a3.143 3.143 0 0 0-.436.28c-.056.045-.124.09-.18.146l-.033.034-.168.168c-.034.033-.067.067-.112.1-.011.012-.023.023-.034.023-.022.022-.056.033-.078.056-.011.011-.034.011-.045.022-.022.011-.056.023-.078.034-.012 0-.034.011-.045.011-.011 0-.011 0-.023.011-.022 0-.033 0-.056.011-.022 0-.044.012-.067.012h-.134c-.023 0-.045-.012-.079-.023-.022 0-.044-.011-.067-.022l-.067-.034-.067-.033h-.011c-.045-.023-.079-.056-.124-.09-.1-.09-.212-.19-.324-.302l-.012-.012-.011-.011c-.056-.056-.112-.123-.168-.19a2.344 2.344 0 0 1-.168-.213Zm7.09 12.443c-.034.191-.191.829-.751 2.128-.033.09-.078.168-.112.258-.011.022-.022.033-.022.056-.011.033-.034.067-.045.089v.012l-.067.134-.011.011c-.011.011-.011.034-.023.045-.011.022-.022.034-.033.056 0 0 0 .011-.011.011-.012.011-.023.045-.023.045v.011c-.011.011-.011.023-.022.034 0 0 0 .011-.011.011-.012.011-.023.022-.023.045v.011c-.011.011-.022.034-.033.045-.012.011-.023.022-.023.033l-.011.012-.034.033-.022.023-.011.011-.011.011c-.012.011-.023.022-.034.022-.011.012-.022.012-.034.023h-.022c-.011 0-.011.011-.022.011-.012 0-.023.011-.034.011h-.011c-.011 0-.023.011-.034.011a8.567 8.567 0 0 1-.313.056c-.012 0-.09.012-.09.012-.034 0-.067.011-.101.011-.851.145-3.147.537-4.222.75-.706.146-.639-.213-.818-.862-.078-.269-.336-2.666-.201-4.178.044-.504.067-.649.156-.705.09-.056.224-.146.269-.157.045-.011.157-.045.224.056.056.101 1.087 2.206 1.77 2.968.605.683 1.019 1.165 1.523 1.501.034.022.067.033.09.044h.011c.011 0 .022 0 .033.012h.045a.088.088 0 0 0 .045-.023c.011-.011.011-.022.022-.045v-.011a.363.363 0 0 0-.1-.28c-.112-.123-.572-.593-1.188-1.467-.784-1.12-1.321-2.766-1.467-3.293a5.524 5.524 0 0 1-.134-1.333v-.19c0-.045.011-.078.011-.123 0-.011 0-.034.011-.045 0-.022.011-.056.011-.078 0-.012 0-.023.012-.034.011-.034.011-.067.022-.09.123-.347.224-.313.336-.19.112.123 1.086 1.008 2.699 1.725.347.157.549.224.594.269.045.044.123.156-.023.19-.145.034-.571.045-1.03.224l-.067.034c-.157.067-.235.145-.269.212-.011.012-.011.034-.011.045 0 .011 0 .023-.011.034v.089c0 .023 0 .045.011.068 0 .044.011.078.011.123.022.246.067.414.101.75.033.325.011.627.168.762.157.134.381.213.963.101.549-.112.739-.157.795-.157.067 0 .224-.023.123.157-.011.022-.022.033-.033.067-.123.224-.437.739-.538 1.075-.112.37-.134.482-.145.538-.012.067.033.19.145.044.112-.134.336-.66.907-1.321.079-.09.146-.168.213-.235.056-.056.101-.101.146-.157l.033-.034c.034-.033.079-.067.112-.101.012-.011.023-.011.023-.022.089-.078.157-.134.224-.179.011 0 .011-.011.022-.011a.232.232 0 0 1 .067-.045c.012 0 .012-.011.023-.011l.067-.034s.011 0 .011-.011h.011l.068-.034c.123-.022.168.079.123.336Zm.941 2.879c-.09.022-.482.078-.549.078-.056 0-.112-.056-.09-.101.023-.045.291-.392.448-1.008.023-.101.09-.168.123-.022.034.101.157.627.18.817.011.045.033.202-.112.236Zm.156-4.996c-.257.101-.548-.19-.772-.347-.527-.358-1.008-.705-1.4-1.187-.605-.739-.549-1.254-.37-2.206a2.693 2.693 0 0 0-.146-1.4c-.044-.09.012-.18.146-.112.146.067.28.28.426.459.145.179.179.056.19-.067.022-.28-.034-.504-.067-.639v-.022c-.023-.079-.09-.247-.247-.28-.201-.045-.403-.056-.515-.135-.056-.033-.112-.112-.056-.168.101-.1.258-.235.403-.28.191-.067.381-.168.628-.168 1.668.012 2.116-.369 2.755-.638.123-.056.201-.078.302-.045.112.034.403.146.471.269.078.134.089.672.224 1.064.145.392.38-.011.436-.179.045-.168.068-.571.068-.672 0-.101.033-.527.168-.672.268-.28.324-.616.358-.751.034-.123.056-.448-.011-.918-.011-.056-.011-.123-.023-.179-.089-.56-.201-.616-.358-.717-.157-.101-.314-.056-.706-.325-.347-.235-.672-.661-.929-.918-.269-.258-.683-.515-1.12-.56h-.079c-.022 0-.033 0-.056.011h-.011c-.011 0-.022.011-.033.011h-.012c-.011 0-.011.011-.022.011l-.011.012-.011.011s0 .011-.012.011c0 0 0 .011-.011.011v.067c.011.112.09.247.112.292.023.078.101.302-.022.436-.123.135-.863.796-1.546.773a1.977 1.977 0 0 1-.784-.168c-.011 0-.022-.011-.022-.011a.616.616 0 0 1-.146-.078c-.011 0-.011-.012-.022-.012-.056-.033-.101-.067-.146-.089-.011-.011-.022-.023-.045-.034-.033-.022-.067-.056-.1-.078-.012-.011-.023-.011-.034-.023l-.101-.1c-.011-.012-.011-.023-.022-.023-.023-.033-.045-.056-.067-.089-.012-.012-.012-.023-.023-.023l-.067-.101s0-.011-.011-.011c-.023-.033-.034-.056-.045-.078 0-.011-.011-.011-.011-.023-.011-.022-.023-.056-.034-.078-.101-.302.146-1.019.146-1.523 0-.224-.045-.65-.079-.952-.033-.303.124-.706.202-.795.011-.023.045-.045.067-.068.011 0 .011-.011.023-.011.022-.022.056-.033.089-.045 0 0 .011 0 .011-.011.034-.011.068-.033.112-.045.068-.022.135-.044.213-.056.247-.056.538.068.605.269.258.706.538.851.638.907.101.045.247-.089.303-.145.056-.045.201-.235.145-.325-.1-.123-.156-.202-.179-.28-.045-.134.123-.134.168-.112.527.224.773.269 1.288.258.504-.012 1.299-.348 1.389-.348.078 0 .235.045.291.135a.228.228 0 0 1 .034.056c.056.078.123.179.179.201h.011c.079.023.258 0 .347.012.124 0 .348-.045.348.19-.012.627-.516 1.019-.56 1.064-.023.011-.023.034-.034.056 0 .011-.011.011-.011.022v.068c.011.033.067.168.089.212l.034.034.011.011c.011.011.023.011.034.023.011 0 .011 0 .022.011h.056c.023 0 .034-.011.056-.023.426-.257.594-.548.773-.929.179-.37.28-1.602.291-1.803.011-.202.079-.325.179-.415.101-.078.594-.403.661-.414.067-.011.157-.023.235.157.079.19.258 1.321.292 1.489.033.191.134.168.179.123.101-.078.179-.168.28-.336.101-.156.022-.38-.067-.492-.09-.101-.236-.269-.18-.437.146-.381.448-.359.527-.347.078.011.381.145.437.963.078 1.209-.415 2.464-.538 2.777-.258.706-.314 1.188-.358 1.412-.034.224-.213.19-.258.145-.045-.033-.101-.213-.123-.235-.023-.022-.101-.011-.146.179-.045.191-.19.459-.28.605-.056.09-.045.235-.033.336.022.202.134.997.1 1.893-.056 1.59-.593 2.598-.985 3.125-.941 1.232-1.815 1.758-1.915 1.825-.135.09-.359.079-.437.056-.079-.022-.146-.101-.291-.201-.012-.012-.023-.012-.034-.023-.112-.056-.134.112-.134.146 0 .045.067.213.112.369.078.303-.09.672-.269.952-.247.404-.527.863-.471 1.356-.011.056-.011.089-.056.1Zm7.93.471c.146.806.302 1.803.482 3.013.011.067.011.123.022.168v.022c0 .045.011.09.011.123V206.826c0 .011 0 .023-.011.034v.011c-.011.022-.011.045-.022.067l-.012.011-.033.034-.011.011a.09.09 0 0 1-.056.023s-.012 0-.023.011c-.022.011-.033.011-.056.011-.011 0-.022 0-.033.011a.32.32 0 0 0-.09.023c-.056.011-.146.022-.202.033a179.247 179.247 0 0 0-5.936.639c-.033 0-.078.011-.112.011-.145.022-.235 0-.246-.146-.011-.134-.235-1.478-.918-2.621-.068-.1-.135-.212-.202-.313-.078-.112.034-.202.146-.157.313.112 1.164.504 2.396 1.378.314.224.392.291.46.347.011.011.022.011.033.022 0 0 .011 0 .011.011.012 0 .023.012.034.012H151.16c.011 0 .022-.012.034-.012.033-.022.044-.056.022-.112-.078-.212-.482-.638-1.534-1.612-.146-.135-.157-.202 0-.213.156-.011.571 0 .795 0 .224-.011.728-.023.627-.683a19.601 19.601 0 0 1-.146-1.188c-.011-.156-.033-.448-.403-.492-.358-.045-.974.044-1.523.235-.146.056-.202-.023-.09-.123.112-.101 1.076-.728 1.893-1.669.896-1.031 1.299-1.792 1.523-2.487.045-.123.09-.078.146-.056.045.034.392.303.504.975.112.672.347 1.601-.056 4.054-.224 1.344-.504 2.139-.56 2.33-.067.19.045.291.168.123.291-.392.672-1.49.997-2.744.313-1.243.437-2.307.481-2.99 0-.068.012-.124.012-.18v-.022c0-.056 0-.112.011-.157 0-.033 0-.056.011-.078 0-.011 0-.011.011-.011 0-.012.011-.023.011-.023.012-.011.012-.022.023-.033l.011-.012c.011 0 .011-.011.022-.011 0 0 .012 0 .012-.011H154.218c.022 0 .044.011.067.022.067.023.347.112.493.784.011.023.011.056.022.09 0 .011 0 .022.011.034.011.022.011.056.023.089.089.527.313 1.456.638 3.338Z"/><path fill="#000" d="M150.253 204.598h.134v.358h.09v-.358h.134v-.068h-.358v.068ZM150.914 204.833l-.112-.303h-.123v.426h.078v-.347l.123.347h.068l.112-.347v.347h.078v-.426h-.123l-.101.303ZM184.46 184.739l4.201 5.765h-1.87l-3.392-4.593-1.424 1.564v3.029h-1.55v-9.772h1.55v4.621l4.202-4.621h1.94l-3.657 4.007Zm7.92-1.508c1.144 0 2.075.41 2.792 1.229.716.819 1.009 1.81.879 2.973h-5.905c.102.577.368 1.047.796 1.41.428.354.944.53 1.549.53.466 0 .88-.111 1.243-.335.372-.232.66-.544.865-.935l1.229.545a3.704 3.704 0 0 1-1.354 1.451c-.587.363-1.261.545-2.025.545-1.07 0-1.968-.354-2.694-1.061s-1.089-1.587-1.089-2.639c0-1.051.354-1.931 1.061-2.638.717-.717 1.601-1.075 2.653-1.075Zm0 1.27c-.54 0-1.01.168-1.41.503a2.35 2.35 0 0 0-.782 1.284h4.383a2.25 2.25 0 0 0-.781-1.284c-.391-.335-.861-.503-1.41-.503Zm8.897-1.27c.865 0 1.573.284 2.122.852.558.567.837 1.289.837 2.163v4.258h-1.466v-4.034c0-.549-.181-1.001-.544-1.354-.363-.363-.819-.545-1.368-.545-.549 0-1.01.182-1.382.545-.363.353-.544.805-.544 1.354v4.034h-1.466v-7.133h1.466v1.019c.567-.773 1.349-1.159 2.345-1.159Zm5.154 1.438h-1.521v-1.298h1.521v-2.318l1.466-.46v2.778h2.01v1.298h-2.01v3.294c0 .438.098.754.293.95.196.195.507.293.936.293h.781v1.298h-.781c-.922 0-1.601-.214-2.039-.642-.437-.428-.656-1.084-.656-1.968v-3.225Zm4.57 2.876v-4.174h1.466v4.174c0 .521.168.944.503 1.27.335.316.763.475 1.284.475.512 0 .935-.159 1.27-.475.335-.326.503-.749.503-1.27v-4.174h1.466v4.174c0 .912-.308 1.656-.922 2.233-.605.577-1.377.866-2.317.866-.949 0-1.731-.289-2.345-.866-.605-.577-.908-1.321-.908-2.233Zm8.827 2.038c-.725-.707-1.088-1.587-1.088-2.639 0-1.051.363-1.931 1.088-2.638.726-.717 1.624-1.075 2.695-1.075.772 0 1.461.2 2.066.6.614.401 1.065.95 1.354 1.648l-1.354.46a2.273 2.273 0 0 0-.824-.991 2.188 2.188 0 0 0-1.242-.363c-.642 0-1.182.228-1.62.684-.437.447-.656 1.005-.656 1.675 0 .67.219 1.229.656 1.676.438.446.978.67 1.62.67.465 0 .879-.117 1.242-.349.372-.242.647-.577.824-1.005l1.354.46a3.524 3.524 0 0 1-1.354 1.647c-.605.401-1.294.601-2.066.601-1.071 0-1.969-.354-2.695-1.061Zm10.985-3.239 3.294 4.16h-1.856l-2.429-3.071-1.117 1.201v1.87h-1.466v-10.33h1.466v6.533l3.015-3.336h1.843l-2.75 2.973Zm7.047 2.694 2.192-5.667h1.493l-4.076 9.925h-1.493l1.074-2.61-2.987-7.315h1.591l2.206 5.667Zm10.232 1.466h-1.549v-9.772h5.975v1.382h-4.426v2.96h4.286v1.382h-4.286v4.048Zm6.828-7.133v1.019a2.792 2.792 0 0 1 1.215-.963 2.522 2.522 0 0 1 1.577-.112v1.396c-.772-.214-1.433-.144-1.982.209-.54.345-.81.861-.81 1.55v4.034h-1.465v-7.133h1.465Zm3.976-1.41a.874.874 0 0 1-.265-.642.87.87 0 0 1 .265-.642.922.922 0 0 1 .656-.266c.251 0 .465.089.642.266a.87.87 0 0 1 .265.642.874.874 0 0 1-.265.642.874.874 0 0 1-.642.265.92.92 0 0 1-.656-.265Zm1.382 8.543h-1.466v-7.133h1.466v7.133Zm5.076-7.273c1.145 0 2.076.41 2.792 1.229.717.819 1.01 1.81.88 2.973h-5.905c.102.577.367 1.047.796 1.41.428.354.944.53 1.549.53a2.313 2.313 0 0 0 2.108-1.27l1.228.545a3.69 3.69 0 0 1-1.354 1.451c-.586.363-1.261.545-2.024.545-1.07 0-1.968-.354-2.694-1.061s-1.089-1.587-1.089-2.639c0-1.051.354-1.931 1.061-2.638.717-.717 1.601-1.075 2.652-1.075Zm0 1.27c-.539 0-1.009.168-1.41.503-.39.326-.651.754-.781 1.284h4.383a2.252 2.252 0 0 0-.782-1.284c-.391-.335-.861-.503-1.41-.503Zm10.798-.069v-4.258h1.466v10.33h-1.466v-1.061c-.633.801-1.48 1.201-2.541 1.201-.996 0-1.833-.354-2.513-1.061-.67-.707-1.005-1.587-1.005-2.639 0-1.051.335-1.931 1.005-2.638.68-.717 1.517-1.075 2.513-1.075 1.061 0 1.908.4 2.541 1.201Zm-2.276 4.858c.652 0 1.192-.224 1.62-.67.437-.447.656-1.006.656-1.676 0-.679-.219-1.242-.656-1.689-.428-.446-.968-.67-1.62-.67-.642 0-1.182.228-1.619.684-.437.447-.656 1.005-.656 1.675 0 .67.219 1.229.656 1.676.437.446.977.67 1.619.67Zm10.757-.098c-.978-.968-1.466-2.159-1.466-3.574 0-1.414.488-2.606 1.466-3.573.986-.968 2.201-1.452 3.643-1.452 1.042 0 1.964.274 2.764.823.8.54 1.382 1.21 1.745 2.011l-1.424.558a3.465 3.465 0 0 0-1.242-1.424 3.226 3.226 0 0 0-1.843-.544c-.996 0-1.833.349-2.513 1.047-.67.688-1.005 1.54-1.005 2.554 0 1.015.335 1.871 1.005 2.569.68.689 1.517 1.033 2.513 1.033.689 0 1.303-.182 1.843-.545a3.463 3.463 0 0 0 1.242-1.423l1.424.558c-.363.8-.945 1.475-1.745 2.024-.8.54-1.722.81-2.764.81-1.442 0-2.657-.484-3.643-1.452Zm13.326-5.961c.865 0 1.572.284 2.121.852.559.567.838 1.289.838 2.163v4.258h-1.466v-4.034c0-.549-.181-1.001-.544-1.354-.363-.363-.819-.545-1.368-.545-.549 0-1.01.182-1.382.545-.363.353-.545.805-.545 1.354v4.034h-1.465v-10.33h1.465v4.216c.568-.773 1.35-1.159 2.346-1.159Zm4.629-1.27a.874.874 0 0 1-.265-.642.87.87 0 0 1 .265-.642.922.922 0 0 1 .656-.266c.251 0 .465.089.642.266a.87.87 0 0 1 .265.642.874.874 0 0 1-.265.642.874.874 0 0 1-.642.265.92.92 0 0 1-.656-.265Zm1.382 8.543h-1.466v-7.133h1.466v7.133Zm2.452-.921c-.726-.707-1.089-1.587-1.089-2.639 0-1.051.363-1.931 1.089-2.638.726-.717 1.624-1.075 2.694-1.075.773 0 1.461.2 2.066.6a3.52 3.52 0 0 1 1.354 1.648l-1.354.46a2.271 2.271 0 0 0-.823-.991 2.188 2.188 0 0 0-1.243-.363c-.642 0-1.182.228-1.619.684-.437.447-.656 1.005-.656 1.675 0 .67.219 1.229.656 1.676.437.446.977.67 1.619.67.466 0 .88-.117 1.243-.349.372-.242.647-.577.823-1.005l1.354.46a3.512 3.512 0 0 1-1.354 1.647c-.605.401-1.293.601-2.066.601-1.07 0-1.968-.354-2.694-1.061Zm10.985-3.239 3.294 4.16h-1.857l-2.429-3.071-1.116 1.201v1.87h-1.466v-10.33h1.466v6.533l3.015-3.336h1.843l-2.75 2.973Zm6.99-3.113c1.144 0 2.075.41 2.792 1.229.716.819 1.009 1.81.879 2.973h-5.905c.103.577.368 1.047.796 1.41.428.354.944.53 1.549.53.466 0 .88-.111 1.243-.335.372-.232.661-.544.865-.935l1.229.545a3.704 3.704 0 0 1-1.354 1.451c-.587.363-1.261.545-2.024.545-1.071 0-1.969-.354-2.695-1.061-.726-.707-1.089-1.587-1.089-2.639 0-1.051.354-1.931 1.061-2.638.717-.717 1.601-1.075 2.653-1.075Zm0 1.27c-.54 0-1.01.168-1.41.503a2.35 2.35 0 0 0-.782 1.284h4.383a2.25 2.25 0 0 0-.781-1.284c-.391-.335-.861-.503-1.41-.503Zm8.897-1.27c.865 0 1.573.284 2.122.852.558.567.837 1.289.837 2.163v4.258h-1.465v-4.034c0-.549-.182-1.001-.545-1.354-.363-.363-.819-.545-1.368-.545-.549 0-1.01.182-1.382.545-.363.353-.544.805-.544 1.354v4.034h-1.466v-7.133h1.466v1.019c.567-.773 1.349-1.159 2.345-1.159ZM181.405 207.359c-.845-.845-1.267-1.884-1.267-3.119 0-1.234.422-2.274 1.267-3.119.852-.844 1.904-1.267 3.155-1.267.902 0 1.698.236 2.388.707.69.463 1.194 1.048 1.511 1.754l-.865.366a3.326 3.326 0 0 0-1.219-1.401 3.144 3.144 0 0 0-1.815-.549c-.966 0-1.783.342-2.449 1.024-.666.674-.999 1.502-.999 2.485 0 .983.333 1.815.999 2.498.666.674 1.483 1.011 2.449 1.011a3.2 3.2 0 0 0 1.815-.536 3.418 3.418 0 0 0 1.219-1.413l.865.365c-.317.707-.821 1.295-1.511 1.767-.69.463-1.486.694-2.388.694-1.251 0-2.303-.422-3.155-1.267Zm8.867.353c-.617-.617-.926-1.38-.926-2.29 0-.91.309-1.669.926-2.278.626-.618 1.397-.926 2.315-.926.918 0 1.685.308 2.303.926.625.609.938 1.368.938 2.278 0 .91-.313 1.673-.938 2.29-.618.609-1.385.914-2.303.914-.918 0-1.689-.305-2.315-.914Zm.67-3.959c-.438.446-.658 1.003-.658 1.669 0 .666.22 1.226.658 1.681.447.447.995.67 1.645.67.658 0 1.206-.223 1.645-.67.438-.447.658-1.007.658-1.681 0-.674-.22-1.235-.658-1.681-.439-.447-.987-.67-1.645-.67-.65 0-1.198.227-1.645.682Zm13.208-1.535c.715 0 1.304.252 1.767.755.471.504.706 1.137.706 1.901v3.63h-.914v-3.521c0-.552-.162-1.011-.487-1.376a1.526 1.526 0 0 0-1.206-.549c-.479 0-.881.187-1.206.561-.317.365-.475.82-.475 1.364v3.521h-.914v-3.521c0-.552-.162-1.011-.487-1.376a1.513 1.513 0 0 0-1.194-.549c-.479 0-.881.187-1.206.561-.317.365-.475.82-.475 1.364v3.521h-.914v-6.164h.914v.901c.462-.682 1.088-1.023 1.876-1.023.463 0 .881.122 1.255.365.373.236.657.557.852.963.203-.415.488-.739.853-.975a2.301 2.301 0 0 1 1.255-.353Zm7.314 0c.886 0 1.625.308 2.218.926.601.609.901 1.368.901 2.278 0 .91-.296 1.673-.889 2.29-.593.609-1.336.914-2.23.914-1.031 0-1.839-.41-2.424-1.231v3.546h-.914v-8.601h.914v1.108c.585-.82 1.393-1.23 2.424-1.23Zm-.122 5.555c.658 0 1.207-.223 1.645-.67.439-.447.658-1.007.658-1.681 0-.674-.219-1.235-.658-1.681-.438-.447-.987-.67-1.645-.67-.649 0-1.198.227-1.644.682-.439.446-.658 1.003-.658 1.669 0 .666.219 1.226.658 1.681.446.447.995.67 1.644.67Zm7.051-5.555c.698 0 1.267.187 1.705.56.439.366.658.881.658 1.547v4.179h-.914v-1.109c-.544.821-1.323 1.231-2.339 1.231-.593 0-1.072-.15-1.437-.451-.358-.308-.536-.723-.536-1.242 0-.553.199-.979.597-1.28.406-.3.93-.483 1.571-.548l1.377-.158c.512-.049.767-.285.767-.707 0-.382-.134-.682-.402-.901-.268-.22-.621-.329-1.059-.329-.439 0-.817.109-1.134.329-.316.219-.531.556-.645 1.011l-.89-.244c.147-.609.459-1.076.939-1.401.487-.325 1.068-.487 1.742-.487Zm-.731 5.64c.625 0 1.145-.207 1.559-.621.414-.422.621-.914.621-1.474v-.353c-.121.138-.398.231-.828.28l-1.328.146c-.374.049-.674.163-.901.341a.834.834 0 0 0-.342.707c0 .292.11.528.329.706.228.179.524.268.89.268Zm7.644-5.64c.763 0 1.393.252 1.888.755.504.504.755 1.137.755 1.901v3.63h-.913v-3.521c0-.552-.183-1.011-.548-1.376-.366-.366-.825-.549-1.377-.549-.544 0-1.003.187-1.377.561-.365.365-.548.82-.548 1.364v3.521h-.914v-6.164h.914v.962c.495-.723 1.202-1.084 2.12-1.084Zm6.386 5.385 2.156-5.263h.939l-3.655 8.601h-.938l.999-2.352-2.644-6.249h.999l2.144 5.263Zm7.411-1.292.951-.195c.081.528.312.938.694 1.231.39.284.902.426 1.535.426.601 0 1.089-.138 1.462-.414.374-.276.561-.63.561-1.06 0-.317-.094-.585-.281-.804a1.769 1.769 0 0 0-.706-.512 6.85 6.85 0 0 0-.975-.316 34.6 34.6 0 0 1-1.06-.317 5.93 5.93 0 0 1-.974-.427 1.957 1.957 0 0 1-.719-.694c-.179-.301-.268-.662-.268-1.084 0-.658.268-1.202.804-1.633.544-.438 1.226-.658 2.047-.658.82 0 1.498.215 2.034.646.544.43.869.987.975 1.669l-.963.195a1.856 1.856 0 0 0-.67-1.206c-.365-.309-.828-.463-1.389-.463-.544 0-.991.134-1.34.402-.349.268-.524.605-.524 1.011 0 .309.09.569.268.78.187.203.427.361.719.475.293.106.617.207.975.305.357.089.71.194 1.06.316.357.114.682.256.974.427.293.17.528.414.707.731.187.308.28.686.28 1.133 0 .682-.288 1.246-.865 1.693-.576.439-1.295.658-2.156.658-.869 0-1.588-.207-2.157-.621-.568-.415-.901-.979-.999-1.694Zm10.459-4.093c.951 0 1.73.337 2.34 1.011.617.666.889 1.49.816 2.473h-5.422c.065.617.313 1.125.744 1.523.438.39.97.585 1.596.585.479 0 .905-.118 1.279-.354a2.28 2.28 0 0 0 .853-.962l.779.329c-.26.544-.645.983-1.157 1.316-.512.325-1.101.487-1.767.487-.917 0-1.689-.305-2.314-.914-.618-.617-.926-1.38-.926-2.29 0-.91.304-1.669.913-2.278.61-.618 1.365-.926 2.266-.926Zm0 .816a2.17 2.17 0 0 0-1.462.536 2.328 2.328 0 0 0-.779 1.377h4.471a2.212 2.212 0 0 0-.755-1.365c-.407-.365-.898-.548-1.475-.548Zm5.414-.694v.986a2.427 2.427 0 0 1 1.06-.901c.447-.195.93-.248 1.45-.159v.89c-.691-.155-1.284-.049-1.779.317-.487.357-.731.861-.731 1.51v3.521h-.914v-6.164h.914Zm5.877 5.25 2.144-5.25h.938l-2.595 6.164h-1.035l-2.607-6.164h.999l2.156 5.25Zm3.771-7.078c0-.17.057-.313.171-.426a.575.575 0 0 1 .426-.171c.162 0 .3.057.414.171a.558.558 0 0 1 .183.426.543.543 0 0 1-.183.414.564.564 0 0 1-.414.171.575.575 0 0 1-.426-.171.56.56 0 0 1-.171-.414Zm1.048 7.992h-.914v-6.164h.914v6.164Zm2.243-.792c-.617-.617-.926-1.38-.926-2.29 0-.91.309-1.669.926-2.278.625-.618 1.397-.926 2.315-.926.666 0 1.259.174 1.778.524.528.341.918.808 1.17 1.401l-.841.292a2.252 2.252 0 0 0-2.107-1.364c-.65 0-1.198.227-1.645.682-.439.446-.658 1.003-.658 1.669 0 .666.219 1.226.658 1.681.447.447.995.67 1.645.67a2.252 2.252 0 0 0 2.107-1.364l.841.292a3.116 3.116 0 0 1-1.17 1.413 3.166 3.166 0 0 1-1.778.512c-.918 0-1.69-.305-2.315-.914Zm9.392-5.494c.951 0 1.73.337 2.339 1.011.618.666.89 1.49.817 2.473h-5.422c.065.617.313 1.125.743 1.523.439.39.971.585 1.596.585.48 0 .906-.118 1.28-.354.373-.235.657-.556.852-.962l.78.329c-.26.544-.646.983-1.157 1.316-.512.325-1.101.487-1.767.487-.918 0-1.689-.305-2.315-.914-.617-.617-.925-1.38-.925-2.29 0-.91.304-1.669.913-2.278.609-.618 1.365-.926 2.266-.926Zm0 .816a2.17 2.17 0 0 0-1.462.536 2.328 2.328 0 0 0-.779 1.377h4.471a2.214 2.214 0 0 0-.756-1.365c-.406-.365-.897-.548-1.474-.548Z"/><rect width="332" height="78.526" x="104.936" y="159.741" stroke="#F5F5F5" rx="3.5"/><path stroke="#F5F5F5" stroke-linecap="round" d="m70.728 135.272 400.415-1.003"/><path fill="#000" d="M109.201 100.241h-3.432v-16.8h7.104c1.84 0 3.328.528 4.464 1.584 1.136 1.056 1.704 2.4 1.704 4.032 0 1.632-.568 2.968-1.704 4.008-1.12 1.024-2.608 1.536-4.464 1.536h-3.672v5.64Zm0-13.752v5.064h3.672c.784 0 1.416-.232 1.896-.696.48-.48.72-1.088.72-1.824s-.24-1.344-.72-1.824-1.112-.72-1.896-.72h-3.672Zm16.306 1.128c1.568 0 2.84.408 3.816 1.224.976.816 1.464 2.008 1.464 3.576v7.824h-3.24v-1.512c-.976 1.168-2.28 1.752-3.912 1.752-1.168 0-2.136-.32-2.904-.96-.752-.656-1.128-1.52-1.128-2.592 0-2.32 1.592-3.648 4.776-3.984l2.016-.192c.768-.048 1.152-.376 1.152-.984 0-.448-.192-.808-.576-1.08-.368-.272-.848-.408-1.44-.408-.64 0-1.168.168-1.584.504-.4.32-.656.776-.768 1.368l-3.216-.72c.176-1.104.76-2.016 1.752-2.736.992-.72 2.256-1.08 3.792-1.08Zm-1.08 10.296c.848 0 1.576-.288 2.184-.864.624-.576.936-1.24.936-1.992v-.264c-.16.128-.528.232-1.104.312l-2.088.24c-.464.064-.832.216-1.104.456a1.069 1.069 0 0 0-.408.864c0 .368.144.672.432.912.288.224.672.336 1.152.336Zm13.812-.984 3.312-9.072h3.288l-6.816 17.184h-3.288l1.728-4.368-5.064-12.816h3.504l3.336 9.072Zm21.884-9.312c1.456 0 2.64.48 3.552 1.44.912.96 1.368 2.184 1.368 3.672v7.512h-3.24v-6.936c0-.8-.224-1.456-.672-1.968-.432-.512-.992-.768-1.68-.768a2.14 2.14 0 0 0-1.68.768c-.432.512-.648 1.168-.648 1.968v6.936h-3.24v-6.936c0-.8-.216-1.456-.648-1.968-.432-.512-.992-.768-1.68-.768a2.14 2.14 0 0 0-1.68.768c-.432.512-.648 1.168-.648 1.968v6.936h-3.24V87.857h3.24v1.488c.896-1.152 2.024-1.728 3.384-1.728 1.584 0 2.808.664 3.672 1.992.944-1.328 2.224-1.992 3.84-1.992Zm13.427 0c2.08 0 3.744.752 4.992 2.256 1.264 1.488 1.728 3.264 1.392 5.328h-9.552c.224.752.632 1.36 1.224 1.824.608.448 1.328.672 2.16.672 1.408 0 2.432-.576 3.072-1.728l2.664 1.2a6.396 6.396 0 0 1-2.376 2.424c-1.008.592-2.16.888-3.456.888-1.888 0-3.464-.616-4.728-1.848-1.264-1.232-1.896-2.76-1.896-4.584 0-1.824.624-3.352 1.872-4.584 1.248-1.232 2.792-1.848 4.632-1.848Zm0 2.784a3.16 3.16 0 0 0-1.944.648c-.56.416-.952.976-1.176 1.68h6.264c-.224-.704-.616-1.264-1.176-1.68-.56-.432-1.216-.648-1.968-.648Zm15.729-2.784c1.472 0 2.672.48 3.6 1.44.928.96 1.392 2.184 1.392 3.672v7.512h-3.24v-6.936c0-.8-.264-1.456-.792-1.968-.512-.512-1.184-.768-2.016-.768-.816 0-1.488.256-2.016.768s-.792 1.168-.792 1.968v6.936h-3.24V87.857h3.24v1.608c.944-1.232 2.232-1.848 3.864-1.848Zm8.424 3.096h-2.496v-2.856h2.496V84.21l3.24-1.008v4.656h3.216v2.856h-3.216v4.92c0 1.168.584 1.752 1.752 1.752h1.464v2.856h-1.464c-1.696 0-2.952-.392-3.768-1.176-.816-.8-1.224-2.008-1.224-3.624v-4.728Zm22.433 9.528h-6.672v-16.8h6.672c2.464 0 4.512.808 6.144 2.424 1.632 1.6 2.448 3.592 2.448 5.976s-.816 4.384-2.448 6c-1.632 1.6-3.68 2.4-6.144 2.4Zm-3.24-13.752v10.704h2.952c1.568 0 2.848-.504 3.84-1.512s1.488-2.288 1.488-3.84c0-1.568-.496-2.848-1.488-3.84-.992-1.008-2.272-1.512-3.84-1.512h-2.952Zm19.514 1.128c2.08 0 3.744.752 4.992 2.256 1.264 1.488 1.728 3.264 1.392 5.328h-9.552c.224.752.632 1.36 1.224 1.824.608.448 1.328.672 2.16.672 1.408 0 2.432-.576 3.072-1.728l2.664 1.2a6.396 6.396 0 0 1-2.376 2.424c-1.008.592-2.16.888-3.456.888-1.888 0-3.464-.616-4.728-1.848-1.264-1.232-1.896-2.76-1.896-4.584 0-1.824.624-3.352 1.872-4.584 1.248-1.232 2.792-1.848 4.632-1.848Zm0 2.784a3.16 3.16 0 0 0-1.944.648c-.56.416-.952.976-1.176 1.68h6.264c-.224-.704-.616-1.264-1.176-1.68-.56-.432-1.216-.648-1.968-.648Zm9.621.312h-2.496v-2.856h2.496V84.21l3.24-1.008v4.656h3.216v2.856h-3.216v4.92c0 1.168.584 1.752 1.752 1.752h1.464v2.856h-1.464c-1.696 0-2.952-.392-3.768-1.176-.816-.8-1.224-2.008-1.224-3.624v-4.728Zm13.844-3.096c1.568 0 2.84.408 3.816 1.224.976.816 1.464 2.008 1.464 3.576v7.824h-3.24v-1.512c-.976 1.168-2.28 1.752-3.912 1.752-1.168 0-2.136-.32-2.904-.96-.752-.656-1.128-1.52-1.128-2.592 0-2.32 1.592-3.648 4.776-3.984l2.016-.192c.768-.048 1.152-.376 1.152-.984 0-.448-.192-.808-.576-1.08-.368-.272-.848-.408-1.44-.408-.64 0-1.168.168-1.584.504-.4.32-.656.776-.768 1.368l-3.216-.72c.176-1.104.76-2.016 1.752-2.736.992-.72 2.256-1.08 3.792-1.08Zm-1.08 10.296c.848 0 1.576-.288 2.184-.864.624-.576.936-1.24.936-1.992v-.264c-.16.128-.528.232-1.104.312l-2.088.24c-.464.064-.832.216-1.104.456a1.069 1.069 0 0 0-.408.864c0 .368.144.672.432.912.288.224.672.336 1.152.336Zm8.497-13.488c0-.544.192-1 .576-1.368a1.896 1.896 0 0 1 1.392-.576c.528 0 .984.192 1.368.576.384.368.576.824.576 1.368 0 .528-.192.984-.576 1.368-.384.384-.84.576-1.368.576a1.896 1.896 0 0 1-1.392-.576 1.869 1.869 0 0 1-.576-1.368Zm3.576 15.816h-3.24V87.857h3.24v12.384Zm5.836 0h-3.24v-17.76h3.24v17.76Zm1.876-3.336 3.24-.672c.144 1.12.88 1.68 2.208 1.68.656 0 1.184-.12 1.584-.36.4-.256.6-.568.6-.936 0-.352-.184-.632-.552-.84-.352-.208-.8-.344-1.344-.408a17.816 17.816 0 0 1-1.752-.312 13.238 13.238 0 0 1-1.752-.528c-.528-.208-.976-.568-1.344-1.08-.352-.512-.528-1.152-.528-1.92 0-1.12.48-2.048 1.44-2.784.976-.752 2.192-1.128 3.648-1.128s2.656.328 3.6.984c.944.64 1.504 1.504 1.68 2.592l-3.216.672c-.16-1.12-.848-1.68-2.064-1.68-.528 0-.968.112-1.32.336-.336.224-.504.512-.504.864 0 .368.176.656.528.864.368.208.816.344 1.344.408.544.064 1.128.176 1.752.336.64.144 1.224.32 1.752.528.544.208.992.576 1.344 1.104.368.512.552 1.16.552 1.944 0 1.104-.528 2.032-1.584 2.784-1.056.752-2.344 1.128-3.864 1.128s-2.768-.32-3.744-.96c-.96-.656-1.528-1.528-1.704-2.616Z"/><path fill="#CACACA" d="M426.23 78.102a9.298 9.298 0 0 1 9.307 9.307 9.298 9.298 0 0 1-9.307 9.306 9.298 9.298 0 0 1-9.306-9.306 9.298 9.298 0 0 1 9.306-9.307Zm3.341 4.654-3.341 3.34-3.341-3.34-1.312 1.312 3.341 3.34-3.341 3.342 1.312 1.312 3.341-3.34 3.341 3.34 1.313-1.312-3.342-3.341 3.342-3.341-1.313-1.312Z"/></svg>