<svg xmlns="http://www.w3.org/2000/svg" width="165" height="152" fill="none"><rect width="164" height="151.636" x=".93" y=".348" fill="#0C0C0C" rx="24"/><path fill="#F8F8F8" d="M101.475 60.712h-9.273l12.364-12.364 12.364 12.364h-9.273v43.273h-6.182V60.712ZM70.566 54.53c-11.93 0-21.636 9.675-21.636 21.637 0 11.961 9.674 21.636 21.636 21.636 11.931 0 21.636-9.675 21.636-21.636 0-11.962-9.674-21.637-21.636-21.637Zm0 6.646c8.253 0 14.991 6.707 14.991 14.99 0 8.284-6.707 14.992-14.99 14.992-8.285 0-14.992-6.708-14.992-14.991 0-8.284 6.707-14.991 14.991-14.991Zm-3.09 5.718v11.405l9.86 5.688 2.317-4.019-7.541-4.358v-8.716"/></svg>