<svg xmlns="http://www.w3.org/2000/svg" width="543" height="495" fill="none"><path fill="#F5F5F5" d="M.15.037h541.87v494H.15z"/><rect width="310.227" height="178.357" x="116.037" y="81" fill="#4D4D4D" rx="15.179"/><circle cx="377.405" cy="123.837" r="10.673" fill="#E80B26"/><circle cx="391.636" cy="123.837" r="10.673" fill="#F59D31"/><path fill="#FC6020" d="M384.521 131.793a10.65 10.65 0 0 0 3.557-7.956c0-3.161-1.374-6.001-3.557-7.955a10.644 10.644 0 0 0-3.558 7.955c0 3.161 1.374 6.001 3.558 7.956Z"/><path fill="#DADADA" d="M154.423 115.863h-.957l-.911-2.118h-4.166l-.911 2.118h-.922l3.461-7.969h.945l3.461 7.969Zm-3.951-6.956-1.742 4.03h3.473l-1.731-4.03Zm5.229 6.216c-.577-.577-.866-1.29-.866-2.14 0-.85.289-1.56.866-2.129.584-.577 1.305-.865 2.163-.865.622 0 1.176.163 1.662.489.493.319.857.755 1.093 1.309l-.786.273a2.103 2.103 0 0 0-1.969-1.275 2.07 2.07 0 0 0-1.537.638c-.41.417-.615.937-.615 1.56 0 .622.205 1.146.615 1.571a2.09 2.09 0 0 0 1.537.626c.44 0 .835-.114 1.184-.342.349-.227.611-.539.785-.933l.786.273c-.236.554-.6.994-1.093 1.321a2.968 2.968 0 0 1-1.662.478c-.858 0-1.579-.285-2.163-.854Zm6.642-4.247h-1.298v-.774h1.298v-2.06l.853-.262v2.322h1.754v.774h-1.754v3.029c0 .425.092.728.274.911.182.182.482.273.899.273h.581v.774h-.581c-.691 0-1.203-.163-1.537-.49-.326-.326-.489-.827-.489-1.502v-2.995Zm3.712-2.481a.542.542 0 0 1 .558-.558c.152 0 .281.053.387.159a.522.522 0 0 1 .171.399c0 .151-.057.28-.171.387a.527.527 0 0 1-.387.159.54.54 0 0 1-.398-.159.53.53 0 0 1-.16-.387Zm.98 7.468h-.854v-5.761h.854v5.761Zm3.724-.854 2.003-4.907h.877l-2.425 5.761h-.968l-2.436-5.761h.934l2.015 4.907Zm6.048-5.02c.888 0 1.616.314 2.186.944.576.623.831 1.393.762 2.311h-5.066c.061.577.292 1.052.695 1.424.41.364.907.546 1.491.546.448 0 .846-.11 1.195-.33.35-.22.615-.52.797-.9l.729.308a2.966 2.966 0 0 1-1.082 1.229c-.478.304-1.028.456-1.65.456-.858 0-1.579-.285-2.163-.854-.577-.577-.866-1.29-.866-2.14 0-.85.285-1.56.854-2.129.569-.577 1.275-.865 2.118-.865Zm0 .762c-.524 0-.979.167-1.366.501-.387.334-.63.763-.729 1.287h4.178a2.066 2.066 0 0 0-.706-1.275c-.379-.342-.838-.513-1.377-.513Z"/><path fill="#fff" d="M144.089 145.311h6.254c.071.87-.025 1.69-.289 2.459-.263.759-.647 1.396-1.153 1.913a5.633 5.633 0 0 1-1.791 1.199 5.449 5.449 0 0 1-2.156.44c-1.568 0-2.889-.526-3.962-1.579-1.062-1.052-1.593-2.347-1.593-3.886 0-1.538.531-2.833 1.593-3.885 1.073-1.053 2.394-1.579 3.962-1.579 1.134 0 2.135.298 3.006.895.87.587 1.502 1.316 1.897 2.186l-1.548.607a3.775 3.775 0 0 0-1.351-1.548c-.587-.395-1.255-.592-2.004-.592-1.083 0-1.993.38-2.732 1.139-.729.748-1.093 1.674-1.093 2.777 0 1.103.364 2.034 1.093 2.793.739.749 1.649 1.124 2.732 1.124.962 0 1.771-.289 2.429-.866.668-.586 1.047-1.285 1.138-2.094h-4.432v-1.503Zm8.501 4.857c-.79-.769-1.184-1.725-1.184-2.869 0-1.143.394-2.099 1.184-2.868.789-.78 1.766-1.169 2.929-1.169 1.164 0 2.141.389 2.93 1.169.789.769 1.184 1.725 1.184 2.868 0 1.144-.395 2.1-1.184 2.869-.789.769-1.766 1.154-2.93 1.154-1.163 0-2.14-.385-2.929-1.154Zm1.168-4.69c-.475.486-.713 1.093-.713 1.821 0 .729.238 1.336.713 1.822.476.486 1.063.729 1.761.729.709 0 1.296-.243 1.761-.729.476-.486.713-1.093.713-1.822 0-.738-.237-1.351-.713-1.836-.465-.486-1.052-.729-1.761-.729-.698 0-1.285.248-1.761.744Zm8.17 4.69c-.789-.769-1.184-1.725-1.184-2.869 0-1.143.395-2.099 1.184-2.868.79-.78 1.766-1.169 2.93-1.169 1.164 0 2.14.389 2.93 1.169.789.769 1.184 1.725 1.184 2.868 0 1.144-.395 2.1-1.184 2.869-.79.769-1.766 1.154-2.93 1.154-1.164 0-2.14-.385-2.93-1.154Zm1.169-4.69c-.475.486-.713 1.093-.713 1.821 0 .729.238 1.336.713 1.822.476.486 1.063.729 1.761.729.708 0 1.295-.243 1.761-.729.475-.486.713-1.093.713-1.822 0-.738-.238-1.351-.713-1.836-.466-.486-1.053-.729-1.761-.729-.698 0-1.285.248-1.761.744Zm13.574-.926v-1.138h1.594v6.921c0 1.144-.395 2.1-1.184 2.869-.789.769-1.766 1.154-2.93 1.154-.819 0-1.553-.198-2.201-.592a3.787 3.787 0 0 1-1.442-1.594l1.442-.713c.213.445.506.794.881 1.047.384.263.825.395 1.32.395.709 0 1.306-.248 1.792-.744.485-.486.728-1.093.728-1.822v-.455c-.688.85-1.609 1.275-2.763 1.275-1.082 0-1.993-.374-2.732-1.123-.728-.759-1.093-1.7-1.093-2.824 0-1.113.365-2.049 1.093-2.808.739-.759 1.65-1.138 2.732-1.138 1.164 0 2.085.43 2.763 1.29Zm-2.474 5.146c.708 0 1.295-.238 1.761-.714.475-.475.713-1.067.713-1.776 0-.708-.238-1.295-.713-1.76-.466-.476-1.053-.714-1.761-.714-.698 0-1.285.238-1.761.714-.476.465-.713 1.052-.713 1.76 0 .709.237 1.301.713 1.776.476.476 1.063.714 1.761.714Zm7.449 1.472h-1.594v-11.233h1.594v11.233Zm5.52-7.908c1.244 0 2.256.445 3.036 1.336.779.89 1.098 1.968.956 3.233h-6.421c.111.627.4 1.138.865 1.533.466.384 1.027.577 1.685.577.506 0 .956-.122 1.351-.365.405-.253.719-.592.941-1.017l1.336.592a4.02 4.02 0 0 1-1.472 1.579c-.638.395-1.372.592-2.201.592-1.164 0-2.141-.385-2.93-1.154-.789-.769-1.184-1.725-1.184-2.869 0-1.143.385-2.099 1.154-2.868.779-.78 1.74-1.169 2.884-1.169Zm0 1.381a2.31 2.31 0 0 0-1.533.547 2.55 2.55 0 0 0-.85 1.396h4.766a2.446 2.446 0 0 0-.85-1.396c-.425-.365-.936-.547-1.533-.547Zm20.069 6.527h-1.791l-1.063-2.565h-5.115l-1.063 2.565h-1.715l4.463-10.625h1.837l4.447 10.625Zm-5.404-8.773-1.943 4.705h3.871l-1.928-4.705Zm12.358 2.17v-4.63h1.594v11.233h-1.594v-1.153c-.688.87-1.609 1.305-2.762 1.305-1.083 0-1.994-.385-2.732-1.154-.729-.769-1.093-1.725-1.093-2.869 0-1.143.364-2.099 1.093-2.868.738-.78 1.649-1.169 2.732-1.169 1.153 0 2.074.435 2.762 1.305Zm-2.474 5.283c.709 0 1.296-.243 1.761-.729.476-.486.713-1.093.713-1.822 0-.738-.237-1.351-.713-1.836-.465-.486-1.052-.729-1.761-.729-.698 0-1.285.248-1.761.744-.475.486-.713 1.093-.713 1.821 0 .729.238 1.336.713 1.822.476.486 1.063.729 1.761.729Zm5.4-.729 1.594-.334c.141.83.708 1.245 1.7 1.245.506 0 .91-.096 1.214-.289.314-.202.471-.455.471-.759 0-.323-.162-.566-.486-.728-.324-.172-.719-.294-1.184-.365a25.27 25.27 0 0 1-1.412-.288 2.441 2.441 0 0 1-1.184-.653c-.324-.334-.486-.779-.486-1.335 0-.678.289-1.24.866-1.685.587-.446 1.32-.668 2.201-.668.88 0 1.599.197 2.155.592.567.394.906.931 1.017 1.609l-1.594.334c-.121-.83-.647-1.245-1.578-1.245-.425 0-.774.091-1.048.273-.273.182-.41.42-.41.714 0 .263.117.475.35.637.232.162.526.268.88.319.354.051.734.126 1.138.228.415.101.8.217 1.154.349.354.121.648.344.88.668.233.323.35.728.35 1.214 0 .678-.319 1.245-.957 1.7-.627.445-1.406.668-2.337.668-.921 0-1.67-.197-2.247-.592a2.39 2.39 0 0 1-1.047-1.609Z"/><path fill="#DADADA" d="m148.254 166.298.372.651-1.488.81 1.488.81-.372.651-1.435-.89.04 1.7h-.757l.04-1.7-1.435.89-.371-.651 1.487-.81-1.487-.81.371-.651 1.435.877-.04-1.687h.757l-.04 1.687 1.435-.877Zm9.468 0 .372.651-1.487.81 1.487.81-.372.651-1.434-.89.04 1.7h-.757l.039-1.7-1.434.89-.372-.651 1.488-.81-1.488-.81.372-.651 1.434.877-.039-1.687h.757l-.04 1.687 1.434-.877Zm14.752 3.692c.54.213.965.523 1.275.93.31.407.465.859.465 1.355 0 .761-.319 1.394-.956 1.899-.629.496-1.448.744-2.457.744-1.01 0-1.833-.248-2.471-.744-.637-.505-.956-1.138-.956-1.899 0-.496.155-.948.465-1.355.31-.407.739-.717 1.288-.93a2.623 2.623 0 0 1-.983-.876 2.278 2.278 0 0 1-.345-1.222c0-.717.283-1.319.85-1.806.576-.487 1.293-.731 2.152-.731.859 0 1.571.244 2.138.731.576.487.863 1.089.863 1.806 0 .443-.119.85-.358 1.222a2.644 2.644 0 0 1-.97.876Zm-1.673-3.692c-.567 0-1.036.159-1.408.478-.372.31-.558.7-.558 1.169 0 .469.186.859.558 1.169.372.31.841.465 1.408.465.558 0 1.022-.155 1.394-.465.381-.31.571-.7.571-1.169 0-.469-.19-.859-.571-1.169-.372-.319-.836-.478-1.394-.478Zm0 7.677c.69 0 1.257-.164 1.7-.491.451-.328.677-.744.677-1.249 0-.514-.226-.934-.677-1.262-.443-.336-1.01-.504-1.7-.504-.691 0-1.262.168-1.714.504-.451.328-.677.748-.677 1.262 0 .505.221.921.664 1.249.452.327 1.027.491 1.727.491Zm10.55-7.65-2.59 2.948c.903.044 1.612.323 2.125.837.514.514.771 1.169.771 1.966 0 .823-.292 1.505-.877 2.045-.584.531-1.368.797-2.351.797-.956 0-1.718-.248-2.284-.744-.558-.505-.868-1.191-.93-2.058l1.063-.12c.044.602.252 1.08.624 1.434.372.355.881.532 1.527.532.673 0 1.2-.182 1.581-.545.389-.363.584-.828.584-1.394 0-.567-.199-1.028-.597-1.382-.39-.363-.975-.544-1.754-.544h-.597v-.85l2.457-2.816h-4.476v-.943h5.724v.837Zm5.144 2.563c.912 0 1.647.275 2.204.823.567.549.85 1.271.85 2.165 0 .877-.31 1.603-.929 2.179-.62.575-1.408.863-2.365.863-.912 0-1.651-.239-2.218-.717-.557-.487-.872-1.134-.943-1.939l1.063-.12c.044.54.252.979.624 1.315.372.336.864.505 1.474.505.647 0 1.178-.195 1.594-.585.425-.398.638-.898.638-1.501 0-.637-.195-1.146-.585-1.527-.389-.381-.912-.571-1.567-.571-.859 0-1.51.319-1.952.956l-.983-.146.624-5.1h4.808v.943h-3.971l-.399 3.161a3.227 3.227 0 0 1 2.033-.704Zm8.662-3.4-2.191 3.586c1.027-.337 1.965-.221 2.815.345.859.567 1.289 1.386 1.289 2.457 0 .868-.306 1.594-.917 2.179-.602.575-1.377.863-2.324.863-.947 0-1.727-.288-2.338-.863-.602-.576-.903-1.302-.903-2.179 0-.593.204-1.217.611-1.872l2.763-4.516h1.195Zm-2.895 7.889c.416.39.938.585 1.567.585s1.147-.195 1.554-.585c.416-.398.624-.898.624-1.501 0-.602-.208-1.102-.624-1.5-.407-.399-.925-.598-1.554-.598s-1.151.199-1.567.598c-.408.398-.611.898-.611 1.5 0 .603.203 1.103.611 1.501Z"/><circle cx="140.704" cy="112.453" r="1.897" fill="#44EFA7"/><path fill="#fff" d="M141.092 222.033v-3.902h-1.184v-.971h1.184v-1.245h-1.184v-.971h1.184v-3.75h1.578l1.442 3.75h1.791v-3.75h1.2v3.75h1.184v.971h-1.184v1.245h1.184v.971h-1.184v3.902h-1.594l-1.442-3.902h-1.791v3.902h-1.184Zm1.184-4.873h1.426l-.455-1.245h-1.002l.031 1.245Zm3.627 2.732h.061l-.045-1.761h-.638l.622 1.761Zm-3.658-4.948h.638l-.638-1.882h-.06l.06 1.882Zm2.672 2.216h1.017l-.031-1.245h-1.442l.456 1.245Zm8.365-5.753h7.392v1.321l-1.503 3.248h1.503v1.488h-2.201l-2.125 4.569h-1.837l2.171-4.569h-3.4v-1.488h4.113l1.457-3.066h-5.57v-1.503Zm14.064 6.224-3.111 2.899h5.024v1.503h-7.468v-1.321l4.478-4.25c.708-.688 1.062-1.361 1.062-2.019 0-.506-.172-.906-.516-1.199-.334-.304-.774-.456-1.32-.456-.628 0-1.119.188-1.473.562-.344.364-.516.875-.516 1.533h-1.73c0-1.103.339-1.983 1.017-2.641.688-.658 1.604-.987 2.747-.987 1.063 0 1.913.289 2.55.865.638.567.957 1.331.957 2.293 0 1.103-.567 2.175-1.701 3.218Zm4.619 2.367c.425 0 .769.173 1.032.517.273.334.41.743.41 1.229 0 .648-.167 1.209-.501 1.685-.334.486-.794.855-1.381 1.108l-.653-.865c.486-.213.83-.466 1.032-.759.213-.294.309-.587.289-.88a1.077 1.077 0 0 1-.911-.137c-.273-.182-.41-.455-.41-.82 0-.293.106-.546.319-.759.212-.212.47-.319.774-.319Zm9.402-7.27-2.748 2.96c.941.081 1.69.409 2.247.986.566.577.85 1.316.85 2.216 0 .962-.349 1.751-1.048 2.368-.688.618-1.599.926-2.732.926-1.113 0-1.999-.288-2.656-.865-.658-.587-1.027-1.396-1.108-2.429l1.73-.197c.03.607.223 1.083.577 1.427.364.344.855.516 1.472.516.638 0 1.139-.167 1.503-.501.364-.344.546-.799.546-1.366 0-.546-.197-.987-.592-1.321-.394-.344-.971-.516-1.73-.516h-.82v-1.32l2.459-2.702h-4.66v-1.503h6.71v1.321Zm5.998 2.413c.992 0 1.807.319 2.444.956.648.628.972 1.463.972 2.505 0 1.032-.365 1.887-1.093 2.565-.729.678-1.65 1.017-2.763 1.017-1.073 0-1.938-.278-2.596-.835-.657-.556-1.032-1.31-1.123-2.261l1.715-.198c.051.527.253.952.608 1.275.364.314.829.471 1.396.471.628 0 1.139-.192 1.533-.577.405-.384.607-.87.607-1.457 0-.607-.187-1.098-.561-1.472-.375-.385-.871-.577-1.488-.577-.84 0-1.477.329-1.912.986l-1.564-.212.729-5.92h5.692v1.503h-4.356l-.365 2.884a3.644 3.644 0 0 1 2.125-.653Zm5.905 5.48c-.809-1.042-1.214-2.343-1.214-3.901 0-1.559.405-2.859 1.214-3.901.81-1.043 1.832-1.564 3.066-1.564 1.245 0 2.272.521 3.082 1.564.809 1.042 1.214 2.342 1.214 3.901 0 1.558-.405 2.859-1.214 3.901-.81 1.042-1.837 1.563-3.082 1.563-1.234 0-2.256-.521-3.066-1.563Zm1.23-6.694c-.476.738-.714 1.669-.714 2.793 0 1.123.238 2.059.714 2.808.485.739 1.098 1.108 1.836 1.108.739 0 1.351-.369 1.837-1.108.486-.749.729-1.685.729-2.808 0-1.124-.243-2.055-.729-2.793-.486-.749-1.098-1.124-1.837-1.124-.738 0-1.351.375-1.836 1.124Z"/><path fill="#898A8D" d="M341.783 221.931v-3.414h-1.036v-.85h1.036v-1.089h-1.036v-.85h1.036v-3.28h1.382l1.261 3.28h1.568v-3.28h1.049v3.28h1.036v.85h-1.036v1.089h1.036v.85h-1.036v3.414h-1.395l-1.262-3.414h-1.567v3.414h-1.036Zm1.036-4.264h1.249l-.399-1.089h-.876l.026 1.089Zm3.175 2.391h.053l-.04-1.541h-.558l.545 1.541Zm-3.201-4.33h.558l-.558-1.647h-.053l.053 1.647Zm2.337 1.939h.89l-.026-1.089h-1.262l.398 1.089Zm11.556-5.166v8.487h2.458v.943h-6.362v-.943h2.868v-7.305l-2.868.757v-.93l3.904-1.009Zm3.996 8.195c-.699-.912-1.049-2.05-1.049-3.414 0-1.363.35-2.501 1.049-3.413.7-.912 1.581-1.368 2.644-1.368 1.071 0 1.952.456 2.643 1.368.699.903 1.049 2.041 1.049 3.413 0 1.373-.35 2.515-1.049 3.427-.691.903-1.572 1.355-2.643 1.355-1.063 0-1.944-.456-2.644-1.368Zm.757-6.15c-.495.726-.743 1.638-.743 2.736 0 1.098.248 2.01.743 2.736.496.726 1.125 1.089 1.887 1.089.761 0 1.39-.363 1.886-1.089.495-.726.743-1.638.743-2.736 0-1.098-.248-2.01-.743-2.736-.496-.726-1.125-1.089-1.886-1.089-.762 0-1.391.363-1.887 1.089Zm7.882 6.15c-.7-.912-1.049-2.05-1.049-3.414 0-1.363.349-2.501 1.049-3.413.699-.912 1.58-1.368 2.643-1.368 1.071 0 1.952.456 2.643 1.368.7.903 1.049 2.041 1.049 3.413 0 1.373-.349 2.515-1.049 3.427-.691.903-1.572 1.355-2.643 1.355-1.063 0-1.944-.456-2.643-1.368Zm.757-6.15c-.496.726-.744 1.638-.744 2.736 0 1.098.248 2.01.744 2.736.496.726 1.124 1.089 1.886 1.089.761 0 1.39-.363 1.886-1.089s.744-1.638.744-2.736c0-1.098-.248-2.01-.744-2.736-.496-.726-1.125-1.089-1.886-1.089-.762 0-1.39.363-1.886 1.089Zm7.043 6.097c.31 0 .562.128.757.385.195.248.292.553.292.916 0 .903-.429 1.59-1.288 2.059l-.492-.571c.39-.213.655-.461.797-.744.151-.283.19-.531.12-.744a.684.684 0 0 1-.598-.066c-.195-.115-.292-.297-.292-.545 0-.195.066-.358.199-.491a.713.713 0 0 1 .505-.199Zm2.473.053c-.7-.912-1.05-2.05-1.05-3.414 0-1.363.35-2.501 1.05-3.413.699-.912 1.58-1.368 2.643-1.368 1.071 0 1.952.456 2.643 1.368.699.903 1.049 2.041 1.049 3.413 0 1.373-.35 2.515-1.049 3.427-.691.903-1.572 1.355-2.643 1.355-1.063 0-1.944-.456-2.643-1.368Zm.757-6.15c-.496.726-.744 1.638-.744 2.736 0 1.098.248 2.01.744 2.736.495.726 1.124 1.089 1.886 1.089.761 0 1.39-.363 1.886-1.089.495-.726.743-1.638.743-2.736 0-1.098-.248-2.01-.743-2.736-.496-.726-1.125-1.089-1.886-1.089-.762 0-1.391.363-1.886 1.089Zm7.881 6.15c-.7-.912-1.049-2.05-1.049-3.414 0-1.363.349-2.501 1.049-3.413.699-.912 1.58-1.368 2.643-1.368 1.071 0 1.952.456 2.643 1.368.7.903 1.049 2.041 1.049 3.413 0 1.373-.349 2.515-1.049 3.427-.691.903-1.572 1.355-2.643 1.355-1.063 0-1.944-.456-2.643-1.368Zm.757-6.15c-.496.726-.744 1.638-.744 2.736 0 1.098.248 2.01.744 2.736.496.726 1.125 1.089 1.886 1.089.762 0 1.39-.363 1.886-1.089s.744-1.638.744-2.736c0-1.098-.248-2.01-.744-2.736-.496-.726-1.124-1.089-1.886-1.089-.761 0-1.39.363-1.886 1.089Zm7.881 6.15c-.699-.912-1.049-2.05-1.049-3.414 0-1.363.35-2.501 1.049-3.413.7-.912 1.581-1.368 2.643-1.368 1.072 0 1.953.456 2.644 1.368.699.903 1.049 2.041 1.049 3.413 0 1.373-.35 2.515-1.049 3.427-.691.903-1.572 1.355-2.644 1.355-1.062 0-1.943-.456-2.643-1.368Zm.757-6.15c-.495.726-.743 1.638-.743 2.736 0 1.098.248 2.01.743 2.736.496.726 1.125 1.089 1.886 1.089.762 0 1.391-.363 1.886-1.089.496-.726.744-1.638.744-2.736 0-1.098-.248-2.01-.744-2.736-.495-.726-1.124-1.089-1.886-1.089-.761 0-1.39.363-1.886 1.089Z"/><rect width="264.214" height="3.32" x="139.044" y="231.936" fill="#000" stroke="#2F2F2F" stroke-width=".474" rx="1.66"/><rect width="208.715" height="3.795" x="138.807" y="231.699" fill="#BFFFE6" rx="1.897"/><rect width="380.278" height="218.631" x="81.012" y="120.863" fill="#212121" rx="18.607"/><circle cx="401.399" cy="173.373" r="13.083" fill="#E80B26"/><circle cx="418.843" cy="173.373" r="13.083" fill="#F59D31"/><path fill="#FC6020" d="M410.121 183.125a13.053 13.053 0 0 0 4.361-9.752 13.05 13.05 0 0 0-4.361-9.751 13.046 13.046 0 0 0-4.361 9.751 13.05 13.05 0 0 0 4.361 9.752Z"/><path fill="#DADADA" d="M128.065 164.114h-1.172l-1.117-2.595h-5.107l-1.117 2.595h-1.13l4.242-9.768h1.159l4.242 9.768Zm-4.842-8.526-2.136 4.94h4.257l-2.121-4.94Zm6.409 7.619c-.707-.707-1.061-1.581-1.061-2.623 0-1.042.354-1.912 1.061-2.61.716-.707 1.6-1.061 2.651-1.061.763 0 1.442.2 2.038.6a3.49 3.49 0 0 1 1.339 1.605l-.963.335a2.576 2.576 0 0 0-.963-1.144 2.597 2.597 0 0 0-1.451-.419 2.54 2.54 0 0 0-1.884.782c-.502.511-.753 1.149-.753 1.912 0 .762.251 1.404.753 1.925.512.512 1.14.768 1.884.768.54 0 1.023-.14 1.451-.419.428-.279.749-.66.963-1.144l.963.335a3.571 3.571 0 0 1-1.339 1.619c-.596.39-1.275.586-2.038.586-1.051 0-1.935-.349-2.651-1.047Zm8.141-5.205h-1.59v-.949h1.59v-2.526l1.047-.321v2.847h2.149v.949h-2.149v3.712c0 .521.112.893.335 1.116.223.224.591.335 1.102.335h.712v.949h-.712c-.846 0-1.474-.2-1.883-.6-.401-.4-.601-1.014-.601-1.842v-3.67Zm4.552-3.042a.663.663 0 0 1 .684-.684c.186 0 .344.065.474.195.14.13.209.293.209.489a.622.622 0 0 1-.209.474.645.645 0 0 1-.474.195.663.663 0 0 1-.489-.195.645.645 0 0 1-.195-.474Zm1.2 9.154h-1.047v-7.061h1.047v7.061Zm4.565-1.046 2.456-6.015h1.075l-2.973 7.061h-1.186l-2.986-7.061h1.144l2.47 6.015Zm7.414-6.155c1.088 0 1.981.386 2.679 1.159.707.763 1.019 1.707.935 2.833h-6.21c.074.707.358 1.288.851 1.744.503.447 1.112.67 1.828.67a2.69 2.69 0 0 0 1.466-.405c.428-.27.753-.637.977-1.102l.893.376a3.644 3.644 0 0 1-1.326 1.508c-.586.372-1.261.558-2.024.558-1.051 0-1.935-.349-2.651-1.047-.707-.707-1.061-1.581-1.061-2.623 0-1.042.349-1.912 1.047-2.61.698-.707 1.563-1.061 2.596-1.061Zm0 .935c-.642 0-1.2.205-1.675.614-.474.41-.772.935-.893 1.577h5.121a2.533 2.533 0 0 0-.865-1.563c-.465-.418-1.028-.628-1.688-.628Z"/><path fill="#fff" d="M115.397 199.309h7.666a7.376 7.376 0 0 1-.353 3.014c-.323.93-.794 1.712-1.415 2.344a6.87 6.87 0 0 1-2.195 1.47c-.844.36-1.724.54-2.642.54-1.923 0-3.542-.645-4.857-1.935-1.302-1.29-1.953-2.878-1.953-4.764 0-1.885.651-3.473 1.953-4.763 1.315-1.29 2.934-1.935 4.857-1.935 1.389 0 2.617.366 3.684 1.098 1.067.719 1.842 1.612 2.326 2.679l-1.898.744a4.612 4.612 0 0 0-1.656-1.897c-.72-.484-1.538-.726-2.456-.726-1.328 0-2.444.465-3.35 1.395-.893.918-1.339 2.053-1.339 3.405 0 1.353.446 2.494 1.339 3.424.906.918 2.022 1.377 3.35 1.377 1.178 0 2.17-.353 2.977-1.061.818-.719 1.284-1.575 1.395-2.567h-5.433v-1.842Zm10.42 5.954c-.967-.943-1.451-2.115-1.451-3.517 0-1.402.484-2.574 1.451-3.517.968-.955 2.165-1.432 3.591-1.432 1.427 0 2.624.477 3.591 1.432.968.943 1.452 2.115 1.452 3.517 0 1.402-.484 2.574-1.452 3.517-.967.943-2.164 1.414-3.591 1.414-1.426 0-2.623-.471-3.591-1.414Zm1.433-5.75c-.583.596-.875 1.34-.875 2.233s.292 1.638.875 2.233c.583.595 1.302.893 2.158.893.869 0 1.588-.298 2.159-.893.583-.595.874-1.34.874-2.233 0-.905-.291-1.656-.874-2.251-.571-.596-1.29-.893-2.159-.893-.856 0-1.575.303-2.158.911Zm10.015 5.75c-.968-.943-1.452-2.115-1.452-3.517 0-1.402.484-2.574 1.452-3.517.967-.955 2.164-1.432 3.591-1.432 1.426 0 2.623.477 3.591 1.432.968.943 1.451 2.115 1.451 3.517 0 1.402-.483 2.574-1.451 3.517-.968.943-2.165 1.414-3.591 1.414-1.427 0-2.624-.471-3.591-1.414Zm1.433-5.75c-.584.596-.875 1.34-.875 2.233s.291 1.638.875 2.233c.583.595 1.302.893 2.158.893.868 0 1.588-.298 2.158-.893.583-.595.875-1.34.875-2.233 0-.905-.292-1.656-.875-2.251-.57-.596-1.29-.893-2.158-.893-.856 0-1.575.303-2.158.911Zm16.638-1.135v-1.395h1.954v8.484c0 1.402-.484 2.574-1.451 3.517-.968.943-2.165 1.414-3.591 1.414-1.005 0-1.904-.242-2.698-.725a4.632 4.632 0 0 1-1.768-1.954l1.768-.875c.26.546.62.974 1.079 1.284a2.794 2.794 0 0 0 1.619.484c.868 0 1.6-.304 2.195-.912.596-.595.893-1.339.893-2.233v-.558c-.843 1.042-1.972 1.563-3.386 1.563-1.327 0-2.444-.459-3.349-1.377-.893-.93-1.34-2.084-1.34-3.461 0-1.364.447-2.511 1.34-3.442.905-.93 2.022-1.395 3.349-1.395 1.426 0 2.555.527 3.386 1.581Zm-3.033 6.308c.869 0 1.588-.291 2.159-.875.583-.583.874-1.308.874-2.177 0-.868-.291-1.587-.874-2.158-.571-.583-1.29-.874-2.159-.874-.855 0-1.575.291-2.158.874-.583.571-.874 1.29-.874 2.158 0 .869.291 1.594.874 2.177.583.584 1.303.875 2.158.875Zm9.131 1.805h-1.954v-13.769h1.954v13.769Zm6.767-9.694c1.525 0 2.766.546 3.721 1.637.955 1.092 1.346 2.413 1.172 3.963h-7.87c.136.769.49 1.396 1.06 1.88.571.471 1.259.707 2.066.707.62 0 1.172-.149 1.656-.447a3.19 3.19 0 0 0 1.153-1.247l1.638.726a4.931 4.931 0 0 1-1.805 1.935c-.782.484-1.681.726-2.698.726-1.427 0-2.624-.471-3.591-1.414-.968-.943-1.452-2.115-1.452-3.517 0-1.402.472-2.574 1.414-3.517.956-.955 2.134-1.432 3.536-1.432Zm0 1.693c-.72 0-1.346.223-1.88.67-.521.434-.868 1.005-1.042 1.712h5.843c-.161-.707-.509-1.278-1.042-1.712-.521-.447-1.147-.67-1.879-.67Zm24.601 8.001h-2.196l-1.302-3.145h-6.271l-1.302 3.145h-2.103l5.471-13.025h2.251l5.452 13.025Zm-6.624-10.755-2.382 5.768h4.745l-2.363-5.768Zm15.149 2.661v-5.675h1.953v13.769h-1.953v-1.414c-.844 1.067-1.973 1.6-3.387 1.6-1.327 0-2.444-.471-3.349-1.414-.893-.943-1.34-2.115-1.34-3.517 0-1.402.447-2.574 1.34-3.517.905-.955 2.022-1.432 3.349-1.432 1.414 0 2.543.533 3.387 1.6Zm-3.033 6.475c.868 0 1.587-.298 2.158-.893.583-.595.875-1.34.875-2.233 0-.905-.292-1.656-.875-2.251-.571-.596-1.29-.893-2.158-.893-.856 0-1.576.303-2.159.911-.583.596-.874 1.34-.874 2.233s.291 1.638.874 2.233c.583.595 1.303.893 2.159.893Zm6.619-.893 1.953-.409c.174 1.017.869 1.525 2.084 1.525.62 0 1.117-.117 1.489-.353.384-.248.577-.558.577-.931 0-.396-.199-.694-.596-.893-.397-.211-.881-.359-1.451-.446a29.884 29.884 0 0 1-1.731-.354 2.99 2.99 0 0 1-1.451-.8c-.397-.409-.595-.955-.595-1.637 0-.831.353-1.52 1.06-2.066.72-.545 1.619-.818 2.698-.818s1.96.242 2.642.725a2.883 2.883 0 0 1 1.247 1.973l-1.954.409c-.149-1.017-.794-1.526-1.935-1.526-.521 0-.949.112-1.284.335-.335.223-.502.515-.502.875 0 .322.143.583.428.781.285.199.645.329 1.079.391.434.062.899.155 1.396.279.508.124.98.267 1.414.428a2.18 2.18 0 0 1 1.079.819c.285.397.428.893.428 1.488 0 .831-.391 1.526-1.172 2.084-.769.546-1.725.819-2.866.819-1.129 0-2.047-.242-2.754-.726-.707-.484-1.135-1.141-1.283-1.972Z"/><path fill="#DADADA" d="m120.501 225.486.456.798-1.824.993 1.824.993-.456.798-1.759-1.091.049 2.084h-.928l.049-2.084-1.758 1.091-.456-.798 1.823-.993-1.823-.993.456-.798 1.758 1.075-.049-2.068h.928l-.049 2.068 1.759-1.075Zm11.606 0 .456.798-1.823.993 1.823.993-.456.798-1.758-1.091.049 2.084h-.928l.049-2.084-1.759 1.091-.456-.798 1.824-.993-1.824-.993.456-.798 1.759 1.075-.049-2.068h.928l-.049 2.068 1.758-1.075Zm18.083 4.527c.663.26 1.184.64 1.563 1.139.38.499.57 1.053.57 1.661 0 .933-.39 1.709-1.172 2.328-.771.608-1.775.912-3.012.912s-2.247-.304-3.028-.912c-.782-.619-1.172-1.395-1.172-2.328 0-.608.189-1.162.569-1.661.38-.499.907-.879 1.58-1.139a3.227 3.227 0 0 1-1.205-1.075 2.793 2.793 0 0 1-.423-1.498c0-.879.347-1.617 1.042-2.214.705-.597 1.584-.896 2.637-.896s1.927.299 2.621.896c.706.597 1.059 1.335 1.059 2.214 0 .543-.147 1.042-.44 1.498a3.255 3.255 0 0 1-1.189 1.075Zm-2.051-4.527c-.695 0-1.27.196-1.726.587-.456.379-.684.857-.684 1.432s.228 1.053.684 1.433c.456.38 1.031.57 1.726.57.684 0 1.254-.19 1.71-.57.466-.38.7-.858.7-1.433 0-.575-.234-1.053-.7-1.432-.456-.391-1.026-.587-1.71-.587Zm0 9.411c.847 0 1.541-.201 2.084-.603.554-.401.83-.911.83-1.53 0-.63-.276-1.145-.83-1.547-.543-.412-1.237-.618-2.084-.618s-1.547.206-2.1.618c-.554.402-.831.917-.831 1.547 0 .619.272 1.129.815 1.53.553.402 1.259.603 2.116.603Zm12.933-9.378-3.175 3.614c1.107.055 1.976.397 2.605 1.026.63.63.944 1.433.944 2.41 0 1.009-.358 1.845-1.074 2.507-.717.651-1.677.977-2.882.977-1.172 0-2.106-.304-2.8-.912-.684-.619-1.064-1.46-1.14-2.524l1.303-.146c.054.738.309 1.324.765 1.758.456.434 1.08.652 1.872.652.825 0 1.471-.223 1.938-.668.477-.445.716-1.015.716-1.709 0-.695-.244-1.26-.733-1.694-.477-.445-1.194-.667-2.149-.667h-.733v-1.042l3.012-3.452h-5.486v-1.156h7.017v1.026Zm6.305 3.142c1.118 0 2.018.337 2.702 1.01.695.673 1.042 1.557 1.042 2.653 0 1.075-.38 1.965-1.139 2.67-.76.706-1.726 1.059-2.898 1.059-1.118 0-2.025-.293-2.719-.879-.684-.597-1.07-1.39-1.156-2.377l1.302-.147c.054.662.309 1.199.765 1.612.456.412 1.059.619 1.808.619.792 0 1.443-.239 1.953-.717.521-.488.782-1.102.782-1.84 0-.781-.239-1.405-.717-1.872-.477-.467-1.118-.7-1.921-.7-1.053 0-1.85.391-2.393 1.172l-1.205-.179.765-6.252h5.894v1.156h-4.868l-.488 3.875a3.95 3.95 0 0 1 2.491-.863Zm10.618-4.168-2.686 4.396c1.259-.412 2.41-.271 3.452.423 1.052.695 1.579 1.699 1.579 3.012 0 1.064-.375 1.954-1.124 2.67-.738.706-1.687 1.059-2.849 1.059-1.161 0-2.116-.353-2.865-1.059-.738-.705-1.107-1.595-1.107-2.67 0-.727.249-1.492.749-2.295l3.386-5.536h1.465Zm-3.549 9.671c.51.478 1.151.717 1.921.717.771 0 1.406-.239 1.905-.717.51-.488.765-1.102.765-1.84s-.255-1.351-.765-1.839c-.499-.489-1.134-.733-1.905-.733-.77 0-1.411.244-1.921.733-.499.488-.749 1.101-.749 1.839s.25 1.352.749 1.84Z"/><circle cx="111.248" cy="159.418" r="2.326" fill="#44EFA7"/><path fill="#fff" d="M111.721 293.354v-4.782h-1.451v-1.19h1.451v-1.526h-1.451v-1.191h1.451v-4.596h1.936l1.767 4.596h2.196v-4.596h1.47v4.596h1.451v1.191h-1.451v1.526h1.451v1.19h-1.451v4.782h-1.954l-1.768-4.782h-2.195v4.782h-1.452Zm1.452-5.972h1.749l-.558-1.526h-1.228l.037 1.526Zm4.447 3.349h.074l-.056-2.159h-.781l.763 2.159Zm-4.484-6.066h.781l-.781-2.307h-.075l.075 2.307Zm3.274 2.717h1.247l-.037-1.526h-1.768l.558 1.526Zm10.254-7.052h9.062v1.618l-1.843 3.982h1.843v1.824h-2.698l-2.605 5.6h-2.252l2.661-5.6h-4.168v-1.824h5.042l1.787-3.758h-6.829v-1.842Zm17.241 7.628-3.815 3.554h6.159v1.842h-9.154v-1.618l5.489-5.21c.868-.844 1.302-1.669 1.302-2.475 0-.62-.211-1.11-.633-1.47-.409-.372-.948-.558-1.618-.558-.769 0-1.371.229-1.805.688-.422.447-.633 1.073-.633 1.88h-2.121c0-1.353.416-2.432 1.247-3.238.843-.806 1.966-1.209 3.368-1.209 1.302 0 2.344.353 3.125 1.06.782.695 1.173 1.631 1.173 2.81 0 1.352-.695 2.667-2.084 3.944Zm5.661 2.903c.521 0 .943.211 1.265.633.335.409.503.911.503 1.507 0 .794-.205 1.482-.614 2.065-.41.596-.974 1.048-1.694 1.359l-.8-1.061c.596-.261 1.017-.571 1.266-.93.26-.36.378-.72.353-1.08a1.317 1.317 0 0 1-1.116-.167c-.335-.223-.503-.558-.503-1.005 0-.36.131-.67.391-.93.261-.261.577-.391.949-.391Zm11.525-8.913-3.368 3.629c1.153.099 2.071.502 2.754 1.209.694.707 1.042 1.613 1.042 2.717 0 1.178-.428 2.146-1.284 2.902-.844.757-1.96 1.135-3.35 1.135-1.364 0-2.449-.353-3.256-1.06-.806-.72-1.259-1.712-1.358-2.977l2.121-.242c.037.744.273 1.327.707 1.749.447.422 1.048.633 1.805.633.782 0 1.396-.205 1.842-.614.447-.422.67-.98.67-1.675 0-.67-.242-1.209-.726-1.619-.483-.422-1.19-.632-2.121-.632h-1.005v-1.619l3.015-3.312h-5.713v-1.842h8.225v1.618Zm7.353 2.959c1.216 0 2.214.391 2.996 1.172.794.769 1.191 1.793 1.191 3.07 0 1.266-.447 2.314-1.34 3.145s-2.022 1.246-3.387 1.246c-1.315 0-2.375-.341-3.181-1.023-.807-.682-1.266-1.606-1.377-2.772l2.102-.242c.062.645.31 1.166.745 1.563.446.384 1.017.577 1.711.577.769 0 1.396-.236 1.88-.707.496-.472.744-1.067.744-1.787 0-.744-.23-1.346-.689-1.805-.458-.471-1.066-.707-1.823-.707-1.03 0-1.811.404-2.344 1.21l-1.917-.261.893-7.256h6.978v1.842h-5.34l-.447 3.535a4.465 4.465 0 0 1 2.605-.8Zm7.238 6.717c-.992-1.278-1.488-2.872-1.488-4.782 0-1.91.496-3.504 1.488-4.782.993-1.278 2.245-1.916 3.759-1.916 1.526 0 2.785.638 3.777 1.916s1.489 2.872 1.489 4.782c0 1.91-.497 3.504-1.489 4.782-.992 1.278-2.251 1.916-3.777 1.916-1.514 0-2.766-.638-3.759-1.916Zm1.507-8.206c-.583.906-.874 2.047-.874 3.424 0 1.377.291 2.524.874 3.442.596.906 1.346 1.359 2.252 1.359.905 0 1.656-.453 2.251-1.359.596-.918.893-2.065.893-3.442 0-1.377-.297-2.518-.893-3.424-.595-.918-1.346-1.377-2.251-1.377-.906 0-1.656.459-2.252 1.377Z"/><path fill="#898A8D" d="M357.283 293.681v-4.184h-1.27v-1.042h1.27v-1.335h-1.27v-1.042h1.27v-4.021h1.693l1.547 4.021h1.921v-4.021h1.286v4.021H365v1.042h-1.27v1.335H365v1.042h-1.27v4.184h-1.709l-1.547-4.184h-1.921v4.184h-1.27Zm1.27-5.226h1.53l-.488-1.335h-1.075l.033 1.335Zm3.891 2.931h.065l-.049-1.889h-.684l.668 1.889Zm-3.924-5.308h.684l-.684-2.019h-.065l.065 2.019Zm2.866 2.377h1.09l-.032-1.335h-1.547l.489 1.335Zm14.165-6.333v10.404h3.012v1.155h-7.798v-1.155h3.516v-8.955l-3.516.928v-1.14l4.786-1.237Zm4.898 10.045c-.857-1.118-1.286-2.512-1.286-4.184 0-1.671.429-3.066 1.286-4.184.858-1.118 1.938-1.677 3.24-1.677 1.314 0 2.394.559 3.24 1.677.858 1.107 1.287 2.502 1.287 4.184 0 1.682-.429 3.083-1.287 4.201-.846 1.107-1.926 1.66-3.24 1.66-1.302 0-2.382-.559-3.24-1.677Zm.928-7.538c-.607.89-.911 2.008-.911 3.354s.304 2.464.911 3.354c.608.89 1.379 1.335 2.312 1.335.934 0 1.704-.445 2.312-1.335.608-.89.912-2.008.912-3.354s-.304-2.464-.912-3.354c-.608-.89-1.378-1.335-2.312-1.335-.933 0-1.704.445-2.312 1.335Zm9.661 7.538c-.857-1.118-1.286-2.512-1.286-4.184 0-1.671.429-3.066 1.286-4.184.858-1.118 1.938-1.677 3.24-1.677 1.314 0 2.394.559 3.24 1.677.858 1.107 1.287 2.502 1.287 4.184 0 1.682-.429 3.083-1.287 4.201-.846 1.107-1.926 1.66-3.24 1.66-1.302 0-2.382-.559-3.24-1.677Zm.928-7.538c-.607.89-.911 2.008-.911 3.354s.304 2.464.911 3.354c.608.89 1.379 1.335 2.312 1.335.934 0 1.704-.445 2.312-1.335.608-.89.912-2.008.912-3.354s-.304-2.464-.912-3.354c-.608-.89-1.378-1.335-2.312-1.335-.933 0-1.704.445-2.312 1.335Zm8.634 7.473c.38 0 .689.158.928.472.238.304.358.679.358 1.124 0 1.107-.527 1.948-1.579 2.523l-.603-.7c.478-.26.803-.564.977-.912.185-.347.233-.651.147-.911a.839.839 0 0 1-.733-.082c-.239-.141-.358-.363-.358-.667 0-.239.081-.44.244-.603a.878.878 0 0 1 .619-.244Zm3.031.065c-.858-1.118-1.286-2.512-1.286-4.184 0-1.671.428-3.066 1.286-4.184.857-1.118 1.937-1.677 3.24-1.677 1.313 0 2.393.559 3.24 1.677.857 1.107 1.286 2.502 1.286 4.184 0 1.682-.429 3.083-1.286 4.201-.847 1.107-1.927 1.66-3.24 1.66-1.303 0-2.383-.559-3.24-1.677Zm.928-7.538c-.608.89-.912 2.008-.912 3.354s.304 2.464.912 3.354c.608.89 1.378 1.335 2.312 1.335.933 0 1.704-.445 2.312-1.335.607-.89.911-2.008.911-3.354s-.304-2.464-.911-3.354c-.608-.89-1.379-1.335-2.312-1.335-.934 0-1.704.445-2.312 1.335Zm9.661 7.538c-.858-1.118-1.286-2.512-1.286-4.184 0-1.671.428-3.066 1.286-4.184.857-1.118 1.937-1.677 3.24-1.677 1.313 0 2.393.559 3.24 1.677.857 1.107 1.286 2.502 1.286 4.184 0 1.682-.429 3.083-1.286 4.201-.847 1.107-1.927 1.66-3.24 1.66-1.303 0-2.383-.559-3.24-1.677Zm.928-7.538c-.608.89-.912 2.008-.912 3.354s.304 2.464.912 3.354c.608.89 1.378 1.335 2.312 1.335.933 0 1.704-.445 2.312-1.335.607-.89.911-2.008.911-3.354s-.304-2.464-.911-3.354c-.608-.89-1.379-1.335-2.312-1.335-.934 0-1.704.445-2.312 1.335Zm9.661 7.538c-.858-1.118-1.286-2.512-1.286-4.184 0-1.671.428-3.066 1.286-4.184.857-1.118 1.937-1.677 3.24-1.677 1.313 0 2.393.559 3.24 1.677.857 1.107 1.286 2.502 1.286 4.184 0 1.682-.429 3.083-1.286 4.201-.847 1.107-1.927 1.66-3.24 1.66-1.303 0-2.383-.559-3.24-1.677Zm.928-7.538c-.608.89-.912 2.008-.912 3.354s.304 2.464.912 3.354c.608.89 1.378 1.335 2.312 1.335.933 0 1.704-.445 2.312-1.335.607-.89.911-2.008.911-3.354s-.304-2.464-.911-3.354c-.608-.89-1.379-1.335-2.312-1.335-.934 0-1.704.445-2.312 1.335Z"/><rect width="323.876" height="4.07" x="109.213" y="305.881" fill="#000" stroke="#2F2F2F" stroke-width=".581" rx="2.035"/><rect width="255.844" height="4.652" x="108.922" y="305.591" fill="#BFFFE6" rx="2.326"/><rect width="425.372" height="244.556" x="58.465" y="168.682" fill="#000" rx="20.813"/><circle cx="416.845" cy="227.419" r="14.634" fill="#E80B26"/><circle cx="436.357" cy="227.419" r="14.634" fill="#F59D31"/><path fill="#FC6020" d="M426.601 238.327a14.599 14.599 0 0 0 4.878-10.908c0-4.334-1.884-8.228-4.878-10.908a14.599 14.599 0 0 0-4.878 10.908c0 4.334 1.884 8.228 4.878 10.908Z"/><path fill="#DADADA" d="M111.095 216.402h-1.311l-1.249-2.903h-5.713l-1.249 2.903h-1.265l4.746-10.927h1.295l4.746 10.927Zm-5.417-9.538-2.388 5.526h4.761l-2.373-5.526Zm7.169 8.523c-.791-.79-1.186-1.769-1.186-2.934 0-1.166.395-2.139 1.186-2.919.802-.791 1.79-1.187 2.966-1.187.854 0 1.613.224 2.279.672a3.897 3.897 0 0 1 1.499 1.795l-1.077.374a2.897 2.897 0 0 0-1.077-1.28 2.91 2.91 0 0 0-1.624-.468c-.832 0-1.535.291-2.107.874-.562.573-.843 1.285-.843 2.139 0 .853.281 1.571.843 2.154.572.572 1.275.858 2.107.858a2.91 2.91 0 0 0 1.624-.468 2.892 2.892 0 0 0 1.077-1.28l1.077.375a4 4 0 0 1-1.499 1.811c-.666.437-1.425.655-2.279.655-1.176 0-2.164-.39-2.966-1.171Zm9.108-5.822h-1.78v-1.062h1.78v-2.825l1.17-.359v3.184h2.404v1.062h-2.404v4.152c0 .583.125.999.375 1.249.25.25.661.375 1.233.375h.796v1.061h-.796c-.947 0-1.649-.224-2.107-.671-.448-.448-.671-1.134-.671-2.061v-4.105Zm5.091-3.403c0-.219.072-.401.218-.546a.741.741 0 0 1 .546-.219.72.72 0 0 1 .531.219.714.714 0 0 1 .234.546.7.7 0 0 1-.234.531.723.723 0 0 1-.531.218.744.744 0 0 1-.764-.749Zm1.342 10.24h-1.171v-7.899h1.171v7.899Zm5.106-1.171 2.748-6.728h1.202l-3.325 7.899h-1.327l-3.341-7.899h1.281l2.762 6.728Zm8.293-6.884c1.218 0 2.217.432 2.998 1.296.79.853 1.139 1.91 1.045 3.169h-6.946c.083.791.401 1.441.952 1.951.562.5 1.244.749 2.045.749.614 0 1.16-.151 1.639-.452a2.92 2.92 0 0 0 1.093-1.234l.999.422a4.072 4.072 0 0 1-1.483 1.686c-.656.416-1.41.624-2.264.624-1.175 0-2.164-.39-2.965-1.171-.791-.79-1.187-1.769-1.187-2.934 0-1.166.39-2.139 1.171-2.919.78-.791 1.748-1.187 2.903-1.187Zm0 1.046c-.718 0-1.342.229-1.873.687a2.986 2.986 0 0 0-.999 1.764h5.729a2.83 2.83 0 0 0-.968-1.748c-.52-.469-1.15-.703-1.889-.703Z"/><path fill="#fff" d="M96.927 257.296h8.575c.097 1.193-.035 2.317-.396 3.371-.361 1.041-.888 1.915-1.582 2.623a7.687 7.687 0 0 1-2.456 1.644 7.461 7.461 0 0 1-2.955.604c-2.15 0-3.962-.722-5.432-2.165-1.457-1.443-2.186-3.219-2.186-5.328 0-2.109.729-3.885 2.186-5.328 1.47-1.443 3.281-2.165 5.432-2.165 1.554 0 2.928.409 4.121 1.228 1.193.805 2.061 1.804 2.602 2.997l-2.123.833a5.17 5.17 0 0 0-1.853-2.123c-.804-.541-1.72-.812-2.747-.812-1.485 0-2.734.52-3.746 1.561-1 1.027-1.499 2.296-1.499 3.809 0 1.512.5 2.789 1.499 3.83 1.012 1.026 2.261 1.54 3.746 1.54 1.318 0 2.428-.396 3.33-1.187.916-.804 1.436-1.762 1.561-2.872h-6.077v-2.06Zm11.655 6.66c-1.082-1.055-1.623-2.366-1.623-3.934s.541-2.879 1.623-3.934c1.083-1.068 2.422-1.602 4.017-1.602 1.596 0 2.935.534 4.017 1.602 1.083 1.055 1.624 2.366 1.624 3.934s-.541 2.879-1.624 3.934c-1.082 1.054-2.421 1.582-4.017 1.582-1.595 0-2.934-.528-4.017-1.582Zm1.603-6.431c-.652.666-.978 1.498-.978 2.497 0 .999.326 1.832.978 2.498.652.666 1.457.999 2.414.999.972 0 1.776-.333 2.415-.999.652-.666.978-1.499.978-2.498 0-1.013-.326-1.852-.978-2.518-.639-.666-1.443-.999-2.415-.999-.957 0-1.762.34-2.414 1.02Zm11.202 6.431c-1.082-1.055-1.623-2.366-1.623-3.934s.541-2.879 1.623-3.934c1.083-1.068 2.422-1.602 4.017-1.602 1.596 0 2.935.534 4.017 1.602 1.083 1.055 1.624 2.366 1.624 3.934s-.541 2.879-1.624 3.934c-1.082 1.054-2.421 1.582-4.017 1.582-1.595 0-2.934-.528-4.017-1.582Zm1.603-6.431c-.652.666-.978 1.498-.978 2.497 0 .999.326 1.832.978 2.498.652.666 1.457.999 2.414.999.972 0 1.777-.333 2.415-.999.652-.666.978-1.499.978-2.498 0-1.013-.326-1.852-.978-2.518-.638-.666-1.443-.999-2.415-.999-.957 0-1.762.34-2.414 1.02Zm18.612-1.27v-1.561h2.185v9.491c0 1.568-.541 2.879-1.623 3.934-1.082 1.054-2.421 1.581-4.017 1.581-1.124 0-2.13-.27-3.018-.811a5.189 5.189 0 0 1-1.977-2.186l1.977-.978c.292.611.694 1.089 1.207 1.436a3.13 3.13 0 0 0 1.811.541c.971 0 1.79-.34 2.456-1.02.666-.666.999-1.498.999-2.497v-.625c-.943 1.166-2.206 1.749-3.788 1.749-1.485 0-2.733-.514-3.746-1.54-.999-1.041-1.499-2.332-1.499-3.872 0-1.526.5-2.81 1.499-3.85 1.013-1.041 2.261-1.561 3.746-1.561 1.596 0 2.858.59 3.788 1.769Zm-3.392 7.056c.971 0 1.776-.326 2.414-.979.652-.652.978-1.463.978-2.435 0-.971-.326-1.776-.978-2.414-.638-.652-1.443-.978-2.414-.978-.958 0-1.763.326-2.415.978-.652.638-.978 1.443-.978 2.414 0 .972.326 1.783.978 2.435.652.653 1.457.979 2.415.979Zm10.213 2.019h-2.185v-15.402h2.185v15.402Zm7.569-10.844c1.707 0 3.094.61 4.163 1.831 1.068 1.221 1.505 2.699 1.311 4.434h-8.804c.152.86.548 1.561 1.186 2.102.638.527 1.408.791 2.31.791.694 0 1.312-.167 1.853-.5a3.569 3.569 0 0 0 1.29-1.394l1.832.811a5.509 5.509 0 0 1-2.019 2.165c-.874.541-1.88.812-3.018.812-1.596 0-2.935-.528-4.017-1.582-1.082-1.055-1.623-2.366-1.623-3.934s.527-2.879 1.581-3.934c1.069-1.068 2.387-1.602 3.955-1.602Zm0 1.894c-.805 0-1.506.25-2.102.749-.583.486-.972 1.124-1.166 1.915h6.536c-.181-.791-.569-1.429-1.166-1.915-.583-.499-1.283-.749-2.102-.749Zm27.518 8.95h-2.456l-1.457-3.518h-7.014l-1.457 3.518h-2.351l6.119-14.57h2.518l6.098 14.57Zm-7.409-12.031-2.664 6.453h5.307l-2.643-6.453Zm16.945 2.977v-6.348h2.185v15.402h-2.185v-1.582c-.944 1.193-2.206 1.79-3.788 1.79-1.485 0-2.734-.528-3.747-1.582-.999-1.055-1.498-2.366-1.498-3.934s.499-2.879 1.498-3.934c1.013-1.068 2.262-1.602 3.747-1.602 1.582 0 2.844.596 3.788 1.79Zm-3.393 7.243c.972 0 1.776-.333 2.415-.999.652-.666.978-1.499.978-2.498 0-1.013-.326-1.852-.978-2.518-.639-.666-1.443-.999-2.415-.999-.957 0-1.762.34-2.414 1.02-.652.666-.978 1.498-.978 2.497 0 .999.326 1.832.978 2.498.652.666 1.457.999 2.414.999Zm7.404-.999 2.185-.458c.195 1.138.972 1.707 2.332 1.707.693 0 1.248-.132 1.665-.396.43-.277.645-.624.645-1.041 0-.444-.222-.777-.666-.999-.444-.236-.985-.402-1.624-.499a33.92 33.92 0 0 1-1.935-.396 3.341 3.341 0 0 1-1.624-.895c-.444-.457-.666-1.068-.666-1.831 0-.93.396-1.7 1.187-2.31.804-.611 1.81-.916 3.018-.916 1.207 0 2.192.27 2.955.812.777.541 1.242 1.276 1.395 2.206l-2.186.458c-.166-1.138-.888-1.707-2.164-1.707-.583 0-1.062.125-1.437.375-.374.249-.562.575-.562.978 0 .361.16.652.479.874.319.222.722.368 1.207.437.486.069 1.006.173 1.561.312.569.139 1.096.299 1.582.479.486.166.888.472 1.207.916.319.444.479.999.479 1.665 0 .929-.437 1.706-1.311 2.331-.861.61-1.929.916-3.205.916-1.263 0-2.29-.271-3.081-.812-.791-.541-1.269-1.277-1.436-2.206Z"/><path fill="#DADADA" d="m102.636 285.815.51.892-2.04 1.111 2.04 1.111-.51.892-1.967-1.22.055 2.331h-1.038l.055-2.331-1.967 1.22-.51-.892 2.04-1.111-2.04-1.111.51-.892 1.967 1.202-.055-2.313h1.038l-.055 2.313 1.967-1.202Zm12.983 0 .51.892-2.04 1.111 2.04 1.111-.51.892-1.967-1.22.055 2.331h-1.038l.055-2.331-1.967 1.22-.51-.892 2.039-1.111-2.039-1.111.51-.892 1.967 1.202-.055-2.313h1.038l-.055 2.313 1.967-1.202Zm20.228 5.063c.74.291 1.323.716 1.748 1.274.425.559.638 1.178.638 1.858 0 1.044-.438 1.912-1.312 2.604-.862.68-1.985 1.02-3.369 1.02-1.384 0-2.513-.34-3.387-1.02-.874-.692-1.311-1.56-1.311-2.604 0-.68.212-1.299.637-1.858.425-.558 1.014-.983 1.766-1.274a3.616 3.616 0 0 1-1.347-1.202 3.122 3.122 0 0 1-.474-1.676c0-.983.389-1.809 1.166-2.477.789-.667 1.772-1.001 2.95-1.001 1.178 0 2.155.334 2.932 1.001.789.668 1.184 1.494 1.184 2.477 0 .607-.164 1.166-.492 1.676a3.654 3.654 0 0 1-1.329 1.202Zm-2.295-5.063c-.777 0-1.42.218-1.93.655-.51.425-.765.959-.765 1.603 0 .643.255 1.178.765 1.603.51.425 1.153.637 1.93.637.765 0 1.402-.212 1.912-.637.522-.425.783-.96.783-1.603 0-.644-.261-1.178-.783-1.603-.51-.437-1.147-.655-1.912-.655Zm0 10.526c.947 0 1.724-.225 2.331-.674.619-.449.929-1.02.929-1.712 0-.704-.31-1.281-.929-1.73-.607-.461-1.384-.692-2.331-.692-.947 0-1.73.231-2.349.692-.619.449-.929 1.026-.929 1.73 0 .692.304 1.263.911 1.712.619.449 1.408.674 2.367.674Zm14.467-10.49-3.552 4.043c1.239.061 2.21.443 2.914 1.147.704.705 1.056 1.603 1.056 2.696 0 1.129-.4 2.064-1.202 2.804-.801.729-1.875 1.093-3.223 1.093-1.311 0-2.355-.34-3.132-1.02-.765-.692-1.19-1.633-1.275-2.823l1.457-.163c.06.825.346 1.481.856 1.966.51.486 1.208.729 2.094.729.923 0 1.645-.249 2.167-.747.534-.498.801-1.135.801-1.912 0-.777-.273-1.408-.819-1.894-.534-.498-1.336-.747-2.404-.747h-.819v-1.165l3.369-3.861h-6.138v-1.293h7.85v1.147Zm7.052 3.515c1.25 0 2.258.376 3.023 1.129.777.753 1.166 1.742 1.166 2.969 0 1.202-.425 2.197-1.275 2.986-.85.789-1.931 1.184-3.242 1.184-1.25 0-2.264-.328-3.041-.983-.765-.668-1.196-1.554-1.293-2.659l1.457-.164c.06.74.346 1.341.856 1.803.51.461 1.183.692 2.021.692.886 0 1.615-.267 2.185-.801.583-.547.875-1.233.875-2.058 0-.875-.267-1.573-.802-2.095-.534-.522-1.25-.783-2.149-.783-1.177 0-2.07.437-2.677 1.311l-1.347-.2.856-6.993h6.592v1.293h-5.445l-.547 4.334a4.422 4.422 0 0 1 2.787-.965Zm11.878-4.662-3.005 4.917c1.408-.461 2.695-.304 3.861.473 1.177.777 1.766 1.901 1.766 3.37 0 1.189-.419 2.185-1.256 2.986-.826.789-1.888 1.184-3.187 1.184s-2.368-.395-3.206-1.184c-.825-.789-1.238-1.784-1.238-2.986 0-.814.279-1.67.838-2.568l3.788-6.192h1.639Zm-3.97 10.818c.57.534 1.287.801 2.149.801.862 0 1.572-.267 2.13-.801.571-.547.856-1.233.856-2.058 0-.826-.285-1.512-.856-2.058-.558-.547-1.268-.82-2.13-.82-.862 0-1.579.273-2.149.82-.559.546-.838 1.232-.838 2.058 0 .825.279 1.511.838 2.058Z"/><circle cx="92.285" cy="211.809" r="2.602" fill="#44EFA7"/><path fill="#fff" d="M103.119 358.518c0 1.096-.444 2.026-1.333 2.789-.874.763-1.99 1.214-3.35 1.353v2.331h-1.728v-2.331c-1.318-.153-2.4-.576-3.247-1.27-.846-.707-1.346-1.602-1.498-2.684l2.31-.479c.236 1.346 1.047 2.137 2.435 2.373v-4.621a16.995 16.995 0 0 1-1.644-.52 9.347 9.347 0 0 1-1.332-.729 2.903 2.903 0 0 1-1.062-1.186c-.236-.486-.354-1.055-.354-1.707 0-1.054.41-1.956 1.228-2.706.833-.763 1.888-1.221 3.164-1.373v-2.331h1.728v2.331c1.248.152 2.275.589 3.08 1.311a4.224 4.224 0 0 1 1.436 2.643l-2.31.479c-.25-1.29-.985-2.081-2.206-2.373v4.288c.693.194 1.262.374 1.706.541.444.166.923.416 1.436.749.514.333.895.763 1.145 1.291.264.513.396 1.124.396 1.831Zm-7.889-8.055c-.36.347-.54.764-.54 1.249 0 .486.173.874.52 1.166.346.291.846.541 1.498.749v-3.85c-.624.097-1.117.326-1.478.686Zm3.206 5.995v4.183c.721-.097 1.283-.333 1.685-.707.417-.375.625-.826.625-1.353 0-.541-.201-.972-.604-1.291-.388-.319-.957-.596-1.706-.832Zm20.806 0-4.266 3.975h6.889v2.061h-10.24v-1.811l6.14-5.828c.971-.943 1.457-1.866 1.457-2.768 0-.694-.236-1.242-.708-1.644-.458-.417-1.062-.625-1.811-.625-.86 0-1.533.257-2.019.77-.472.5-.707 1.201-.707 2.103h-2.373c0-1.513.465-2.72 1.394-3.622.944-.902 2.2-1.353 3.768-1.353 1.456 0 2.622.396 3.496 1.186.874.778 1.311 1.825 1.311 3.143 0 1.513-.777 2.984-2.331 4.413Zm6.333 3.247c.583 0 1.055.235 1.415.707.375.458.562 1.02.562 1.686 0 .888-.229 1.658-.687 2.31-.458.666-1.089 1.173-1.894 1.52l-.895-1.187c.666-.291 1.138-.638 1.416-1.04.291-.403.423-.805.395-1.207-.444.124-.86.062-1.249-.188-.374-.249-.562-.624-.562-1.124 0-.402.146-.749.437-1.04a1.445 1.445 0 0 1 1.062-.437Zm12.891-9.97-3.767 4.059c1.29.111 2.317.562 3.08 1.352.777.791 1.166 1.804 1.166 3.039 0 1.318-.479 2.401-1.436 3.247-.944.847-2.193 1.27-3.747 1.27-1.526 0-2.74-.396-3.642-1.187-.902-.804-1.408-1.914-1.519-3.33l2.372-.27c.042.832.306 1.484.791 1.956.5.472 1.173.708 2.019.708.874 0 1.561-.229 2.061-.687.499-.472.749-1.096.749-1.873 0-.75-.271-1.353-.812-1.811-.541-.472-1.332-.708-2.372-.708h-1.124v-1.81l3.371-3.705h-6.389v-2.061h9.199v1.811Zm8.226 3.309c1.359 0 2.476.437 3.35 1.312.889.86 1.333 2.005 1.333 3.434 0 1.415-.5 2.588-1.499 3.517-.999.93-2.262 1.395-3.788 1.395-1.471 0-2.657-.382-3.559-1.145-.902-.763-1.415-1.797-1.54-3.101l2.352-.271c.069.722.346 1.305.832 1.749.5.43 1.138.645 1.915.645.86 0 1.561-.264 2.102-.791.555-.527.833-1.193.833-1.998 0-.833-.257-1.506-.77-2.019-.514-.527-1.194-.791-2.04-.791-1.152 0-2.026.451-2.623 1.353l-2.143-.292.999-8.117h7.805v2.061h-5.974l-.499 3.954c.86-.596 1.831-.895 2.914-.895Zm8.096 7.514c-1.11-1.429-1.665-3.212-1.665-5.349s.555-3.92 1.665-5.349c1.11-1.429 2.512-2.144 4.204-2.144 1.707 0 3.115.715 4.225 2.144 1.111 1.429 1.666 3.212 1.666 5.349s-.555 3.92-1.666 5.349c-1.11 1.429-2.518 2.144-4.225 2.144-1.692 0-3.094-.715-4.204-2.144Zm1.686-9.179c-.652 1.013-.978 2.29-.978 3.83s.326 2.824.978 3.85c.666 1.013 1.505 1.52 2.518 1.52s1.853-.507 2.519-1.52c.666-1.026.999-2.31.999-3.85s-.333-2.817-.999-3.83c-.666-1.027-1.506-1.54-2.519-1.54-1.013 0-1.852.513-2.518 1.54Z"/><path fill="#898A8D" d="M396.933 358.764c0 .959-.383 1.761-1.148 2.404-.765.644-1.736 1.008-2.914 1.093v2.021h-1.147v-2.039c-1.153-.097-2.1-.45-2.841-1.057-.728-.607-1.159-1.396-1.293-2.367l1.421-.292c.097.693.376 1.251.837 1.676.462.425 1.087.68 1.876.765v-4.826a14.288 14.288 0 0 1-1.147-.346 9.443 9.443 0 0 1-1.002-.456 3.371 3.371 0 0 1-.874-.637 3.042 3.042 0 0 1-.565-.892 3.278 3.278 0 0 1-.218-1.221c0-.91.352-1.681 1.056-2.312.716-.632 1.633-.996 2.75-1.093v-2.022h1.147v2.04c1.069.109 1.949.48 2.641 1.111a3.697 3.697 0 0 1 1.257 2.313l-1.421.291a2.828 2.828 0 0 0-.801-1.621c-.425-.437-.984-.71-1.676-.819v4.535c.62.17 1.117.327 1.494.473.388.134.801.34 1.238.619.449.28.783.644 1.002 1.093.218.437.328.959.328 1.566Zm-7.558-6.228c0 .583.2 1.032.601 1.348.413.315.995.582 1.748.801v-4.244c-.716.085-1.287.316-1.712.693a1.795 1.795 0 0 0-.637 1.402Zm3.496 3.915v4.535c.802-.073 1.433-.31 1.894-.71.474-.401.711-.893.711-1.475 0-.644-.225-1.136-.674-1.475-.449-.34-1.093-.632-1.931-.875Zm19.488-5.955-3.552 4.043c1.239.061 2.21.443 2.914 1.147.704.705 1.056 1.603 1.056 2.696 0 1.129-.4 2.064-1.202 2.804-.801.729-1.875 1.093-3.223 1.093-1.311 0-2.355-.34-3.132-1.02-.765-.692-1.19-1.633-1.275-2.823l1.457-.163c.06.825.346 1.481.856 1.966.51.486 1.208.729 2.094.729.923 0 1.645-.249 2.167-.747.534-.498.802-1.135.802-1.912 0-.777-.274-1.408-.82-1.894-.534-.498-1.336-.747-2.404-.747h-.819v-1.165l3.369-3.861h-6.138v-1.293h7.85v1.147Zm3.337 9.834c.425 0 .771.176 1.038.529.267.34.4.758.4 1.256 0 1.239-.588 2.179-1.766 2.823l-.674-.783c.534-.292.899-.631 1.093-1.02.206-.388.261-.728.164-1.02a.938.938 0 0 1-.82-.091c-.267-.158-.4-.407-.4-.747 0-.267.091-.491.273-.673a.974.974 0 0 1 .692-.274Zm3.39.073c-.959-1.25-1.438-2.81-1.438-4.68 0-1.87.479-3.43 1.438-4.681.96-1.25 2.168-1.875 3.624-1.875 1.47 0 2.678.625 3.625 1.875.959 1.239 1.438 2.799 1.438 4.681 0 1.882-.479 3.448-1.438 4.698-.947 1.239-2.155 1.858-3.625 1.858-1.456 0-2.664-.625-3.624-1.876Zm1.038-8.432c-.679.996-1.019 2.246-1.019 3.752 0 1.505.34 2.756 1.019 3.751.68.996 1.542 1.494 2.586 1.494 1.045 0 1.907-.498 2.587-1.494.679-.995 1.019-2.246 1.019-3.751 0-1.506-.34-2.756-1.019-3.752-.68-.995-1.542-1.493-2.587-1.493-1.044 0-1.906.498-2.586 1.493Zm10.807 8.432c-.959-1.25-1.439-2.81-1.439-4.68 0-1.87.48-3.43 1.439-4.681.959-1.25 2.167-1.875 3.624-1.875 1.469 0 2.677.625 3.624 1.875.959 1.239 1.439 2.799 1.439 4.681 0 1.882-.48 3.448-1.439 4.698-.947 1.239-2.155 1.858-3.624 1.858-1.457 0-2.665-.625-3.624-1.876Zm1.038-8.432c-.68.996-1.02 2.246-1.02 3.752 0 1.505.34 2.756 1.02 3.751.68.996 1.542 1.494 2.586 1.494 1.044 0 1.906-.498 2.586-1.494.68-.995 1.02-2.246 1.02-3.751 0-1.506-.34-2.756-1.02-3.752-.68-.995-1.542-1.493-2.586-1.493-1.044 0-1.906.498-2.586 1.493Zm10.807 8.432c-.959-1.25-1.439-2.81-1.439-4.68 0-1.87.48-3.43 1.439-4.681.959-1.25 2.167-1.875 3.624-1.875 1.469 0 2.677.625 3.624 1.875.959 1.239 1.439 2.799 1.439 4.681 0 1.882-.48 3.448-1.439 4.698-.947 1.239-2.155 1.858-3.624 1.858-1.457 0-2.665-.625-3.624-1.876Zm1.038-8.432c-.68.996-1.02 2.246-1.02 3.752 0 1.505.34 2.756 1.02 3.751.68.996 1.542 1.494 2.586 1.494 1.044 0 1.906-.498 2.586-1.494.68-.995 1.02-2.246 1.02-3.751 0-1.506-.34-2.756-1.02-3.752-.68-.995-1.542-1.493-2.586-1.493-1.044 0-1.906.498-2.586 1.493Z"/><rect width="362.282" height="4.553" x="90.009" y="375.64" fill="#000" stroke="#2F2F2F" stroke-width=".65" rx="2.276"/><rect width="286.183" height="5.203" x="89.684" y="375.315" fill="#BFFFE6" rx="2.602"/></svg>