<svg width="210" height="46" viewBox="0 0 210 46" fill="none" xmlns="http://www.w3.org/2000/svg">
<g clip-path="url(#clip0_1582_2750)">
<path d="M45.4415 31.7643V27.0313H53.1997V23.201H45.4415V18.712H53.956V14.8329H41.3672V35.619H54.1024V31.7399H45.4415V31.7643Z" fill="black"/>
<path d="M56.2487 21.0297V35.619H60.0058V21.0297H56.2487ZM58.1273 14.101C56.8586 14.101 55.7852 15.1744 55.7852 16.4431C55.7852 17.7117 56.8586 18.7852 58.1273 18.7852C59.3959 18.7852 60.4694 17.7117 60.4694 16.4431C60.4694 15.1744 59.3959 14.101 58.1273 14.101Z" fill="black"/>
<path d="M74.302 21.0297V23.4206L73.4969 22.4203C72.521 21.2005 71.106 20.5662 69.325 20.5662C65.2995 20.5662 62.1523 23.8353 62.1523 27.9828C62.1523 32.1303 65.2995 35.3994 69.325 35.3994C71.106 35.3994 72.521 34.7895 73.4969 33.5453L74.302 32.545V35.2287C74.302 37.6196 72.8626 38.9858 70.3497 38.9858C68.2272 38.9858 67.2513 38.1075 66.6658 37.2048L63.4698 39.0346C64.8116 41.0595 67.1781 42.1818 70.2033 42.1818C73.7652 42.1818 77.9371 40.352 77.9371 35.2287V21.0297H74.302ZM70.1057 32.0571C67.6416 32.0571 65.9095 30.3981 65.9095 28.0072C65.9095 25.6163 67.6416 23.9573 70.1057 23.9573C72.5698 23.9573 74.302 25.6163 74.302 28.0072C74.302 30.3981 72.5698 32.0571 70.1057 32.0571Z" fill="black"/>
<path d="M89.4529 20.5905C87.6719 20.5905 86.1837 21.2249 85.3786 22.2983L84.5735 23.4206V14.8329H80.8164V35.619H84.5735V27.6168C84.5735 25.3479 85.8178 23.9817 87.9159 23.9817C89.8188 23.9817 91.0631 25.2747 91.0631 27.2509V35.6434H94.8202V26.5678C94.8202 22.4447 92.1366 20.5905 89.4529 20.5905Z" fill="black"/>
<path d="M105.701 24.5916V21.0297H102.505V16.8578L98.7483 17.9801V21.0297H96.2598V24.5916H98.7483V30.5201C98.7483 32.545 99.163 33.8624 100.017 34.6431C101.066 35.5702 102.871 35.9118 105.677 35.6678V32.3254C104.384 32.3742 103.506 32.2767 102.969 31.7887C102.652 31.496 102.481 31.0568 102.481 30.5201V24.5916H105.701Z" fill="black"/>
<path d="M124.829 14.8329L118.681 24.8844L112.533 14.8329H108.264V35.619H112.313V21.8836L118.632 32.2278H118.681L125 21.8836V35.6434H129.05V14.8329H124.829Z" fill="black"/>
<path d="M146.59 28.3244C146.59 23.9085 143.394 20.5906 139.174 20.5906C134.66 20.5906 131.367 23.8353 131.367 28.3244C131.367 32.8866 134.709 36.0582 139.515 36.0582C142.126 36.0582 144.175 35.1799 145.614 33.4477L142.638 31.7399C141.882 32.423 140.759 32.8134 139.588 32.8134C137.441 32.8134 136.051 31.9839 135.441 30.3493L135.221 29.7394H146.493C146.566 29.3002 146.59 28.8123 146.59 28.3244ZM135.173 27.1777L135.319 26.6166C135.807 24.8356 137.173 23.8353 139.125 23.8353C141.003 23.8353 142.345 24.8356 142.833 26.6166L142.98 27.1777H135.173Z" fill="black"/>
<path d="M159.838 14.8329V23.2498L159.057 22.3471C158.057 21.2005 156.617 20.6149 154.787 20.6149C150.884 20.6149 147.834 24.0061 147.834 28.3488C147.834 32.6914 150.884 36.0826 154.787 36.0826C156.617 36.0826 158.057 35.497 159.057 34.3504L159.838 33.4477V35.6434H163.595V14.8329H159.838ZM155.69 32.5694C153.25 32.5694 151.543 30.8372 151.543 28.3488C151.543 25.8603 153.25 24.1281 155.69 24.1281C158.13 24.1281 159.838 25.8603 159.838 28.3488C159.838 30.8372 158.13 32.5694 155.69 32.5694Z" fill="black"/>
<path d="M166.498 21.0297V35.619H170.255V21.0297H166.498ZM168.377 14.101C167.108 14.101 166.035 15.1744 166.035 16.4431C166.035 17.7117 167.108 18.7852 168.377 18.7852C169.645 18.7852 170.719 17.7117 170.719 16.4431C170.719 15.1744 169.645 14.101 168.377 14.101Z" fill="black"/>
<path d="M183.26 30.8128C182.601 31.7887 181.43 32.3742 180.088 32.3742C177.795 32.3742 176.136 30.6665 176.136 28.3244C176.136 25.9823 177.795 24.2745 180.088 24.2745C181.43 24.2745 182.601 24.86 183.26 25.8359L186.529 23.9329C185.187 21.8592 182.772 20.5662 180.137 20.5662C175.721 20.5662 172.379 23.8841 172.379 28.3C172.379 32.7158 175.721 36.0338 180.137 36.0338C182.772 36.0338 185.187 34.7407 186.529 32.6426L183.26 30.8128Z" fill="black"/>
<path d="M198.995 21.0297V23.2254L198.214 22.3227C197.214 21.1761 195.774 20.5906 193.945 20.5906C190.041 20.5906 186.992 23.9817 186.992 28.3244C186.992 32.667 190.041 36.0582 193.945 36.0582C195.774 36.0582 197.214 35.4726 198.214 34.326L198.995 33.4233V35.619H202.752V21.0297H198.995ZM194.872 32.5694C192.432 32.5694 190.724 30.8372 190.724 28.3488C190.724 25.8603 192.432 24.1281 194.872 24.1281C197.311 24.1281 199.019 25.8603 199.019 28.3488C198.995 30.8372 197.311 32.5694 194.872 32.5694Z" fill="black"/>
<path d="M205.68 13.9058V35.6434H209.437V13.9058H205.68Z" fill="black"/>
<path d="M16.5554 24.3721L9.7243 17.5409C5.89399 13.7106 5.89399 7.46503 9.7243 3.63473C13.4814 -0.122385 19.6294 -0.122385 23.3865 3.63473L23.5329 3.78111C25.3383 5.58648 26.363 8.02616 26.363 10.5878C26.363 13.1495 25.3383 15.5648 23.5085 17.3946L16.5554 24.3721ZM16.5554 4.635C15.0672 4.635 13.5546 5.19613 12.4324 6.34278C10.0902 8.68488 10.0902 12.4908 12.4324 14.8329L16.5554 18.956L20.8249 14.6865C21.9227 13.5887 22.5326 12.1248 22.5326 10.5878C22.5326 9.05083 21.9227 7.58702 20.8249 6.48916L20.6785 6.34278C19.5318 5.19613 18.0436 4.635 16.5554 4.635Z" fill="black"/>
<path d="M16.5553 45.8169C12.5298 45.8169 8.47989 44.2799 5.43029 41.2059C2.40508 38.2051 0.746094 34.2284 0.746094 29.9589C0.746094 25.7139 2.40508 21.7128 5.40589 18.6876L16.5309 7.56262L19.2389 10.2707L16.5553 12.9787L8.11394 21.42C3.40535 26.1286 3.40535 33.8136 8.11394 38.5222C12.7494 43.1576 20.3124 43.1576 24.9722 38.5222L25.021 38.4734C29.7052 33.7892 29.7052 26.153 25.021 21.4688L20.8735 17.3214L23.5816 14.6133L27.729 18.7608C33.9014 24.9332 33.9014 35.0091 27.729 41.1815L27.6802 41.2303C24.6062 44.3043 20.5807 45.8169 16.5553 45.8169Z" fill="black"/>
<path d="M16.5558 37.7659C14.4821 37.7659 12.5303 36.9608 11.0665 35.497C8.0169 32.4474 8.0169 27.4705 11.0665 24.4209L13.7746 27.1289C12.2132 28.6903 12.2132 31.2276 13.7746 32.789C14.5065 33.5209 15.5067 33.9356 16.5558 33.9356C17.6049 33.9356 18.5808 33.5209 19.3371 32.789C20.8985 31.2276 20.8985 28.6903 19.3615 27.1533L22.0695 24.4453C25.1191 27.4949 25.1191 32.423 22.0695 35.4726C20.5569 36.9608 18.6051 37.7659 16.5558 37.7659Z" fill="black"/>
<path d="M17.8901 20.2935L15.1816 23.0019L19.3219 27.1421L22.0303 24.4337L17.8901 20.2935Z" fill="black"/>
<path d="M15.1835 20.3151L11.0605 24.4381L13.769 27.1465L17.8919 23.0235L15.1835 20.3151Z" fill="black"/>
</g>
<defs>
<clipPath id="clip0_1582_2750">
<rect width="209" height="45" fill="white" transform="translate(0.746094 0.816895)"/>
</clipPath>
</defs>
</svg>
