<svg width="37" height="36" viewBox="0 0 37 36" fill="none" xmlns="http://www.w3.org/2000/svg">
<path d="M18.5 30C15.7152 30 13.0445 28.8938 11.0754 26.9246C9.10624 24.9555 8 22.2848 8 19.5C8 17.58 8.525 15.75 9.425 14.25L23.75 28.56C22.25 29.475 20.42 30 18.5 30ZM5 6L3.125 7.905L7.25 12.045C5.77622 14.2514 4.99292 16.8467 5 19.5C5 23.0804 6.42231 26.5142 8.95405 29.0459C11.4858 31.5777 14.9196 33 18.5 33C21.26 33 23.825 32.175 26 30.75L29.75 34.5L31.625 32.595L20.06 21L5 6ZM17 14.16L20 17.16L20 12L17 12M23 1.5L14 1.5L14 4.5L23 4.5M29.06 6.825L26.93 8.955C24.536 7.04319 21.5637 6.00127 18.5 6C15.755 6 13.205 6.825 11.075 8.25L13.25 10.41C14.795 9.525 16.595 9 18.5 9C21.2848 9 23.9555 10.1063 25.9246 12.0754C27.8938 14.0445 29 16.7152 29 19.5C29 21.405 28.475 23.205 27.59 24.75L29.75 26.91C31.175 24.795 32 22.245 32 19.5C32 16.32 30.89 13.395 29.045 11.085L31.175 8.955L29.06 6.825Z" fill="#111111"/>
</svg>
