<svg width="36" height="37" viewBox="0 0 36 37" fill="none" xmlns="http://www.w3.org/2000/svg">
<path d="M33.6905 9.12012C32.5355 9.64512 31.2905 9.99012 30.0005 10.1551C31.3205 9.36012 32.3405 8.10012 32.8205 6.58512C31.5755 7.33512 30.1955 7.86012 28.7405 8.16012C27.5555 6.87012 25.8905 6.12012 24.0005 6.12012C20.4755 6.12012 17.5955 9.00012 17.5955 12.5551C17.5955 13.0651 17.6555 13.5601 17.7605 14.0251C12.4205 13.7551 7.66555 11.1901 4.50055 7.30512C3.94555 8.25012 3.63055 9.36012 3.63055 10.5301C3.63055 12.7651 4.75555 14.7451 6.49555 15.8701C5.43055 15.8701 4.44055 15.5701 3.57055 15.1201V15.1651C3.57055 18.2851 5.79055 20.8951 8.73055 21.4801C7.78664 21.7384 6.79569 21.7744 5.83555 21.5851C6.24296 22.8638 7.04085 23.9827 8.11707 24.7845C9.19329 25.5863 10.4937 26.0307 11.8355 26.0551C9.56099 27.8558 6.74154 28.8291 3.84055 28.8151C3.33055 28.8151 2.82055 28.7851 2.31055 28.7251C5.16055 30.5551 8.55055 31.6201 12.1805 31.6201C24.0005 31.6201 30.4955 21.8101 30.4955 13.3051C30.4955 13.0201 30.4955 12.7501 30.4805 12.4651C31.7405 11.5651 32.8205 10.4251 33.6905 9.12012Z" fill="#F8F8F8"/>
</svg>
