<svg width="37" height="36" viewBox="0 0 37 36" fill="none" xmlns="http://www.w3.org/2000/svg">
<path d="M18.5 30C15.3174 30 12.2652 28.7357 10.0147 26.4853C7.76428 24.2348 6.5 21.1826 6.5 18C6.5 14.8174 7.76428 11.7652 10.0147 9.51472C12.2652 7.26428 15.3174 6 18.5 6C21.6826 6 24.7348 7.26429 26.9853 9.51472C29.2357 11.7652 30.5 14.8174 30.5 18C30.5 21.1826 29.2357 24.2349 26.9853 26.4853C24.7348 28.7357 21.6826 30 18.5 30ZM18.5 3C16.5302 3 14.5796 3.38799 12.7597 4.14181C10.9399 4.89563 9.28628 6.00052 7.8934 7.3934C5.08035 10.2064 3.5 14.0218 3.5 18C3.5 21.9782 5.08035 25.7936 7.89339 28.6066C9.28627 29.9995 10.9399 31.1044 12.7597 31.8582C14.5796 32.612 16.5302 33 18.5 33C22.4782 33 26.2936 31.4197 29.1066 28.6066C31.9196 25.7936 33.5 21.9783 33.5 18C33.5 16.0302 33.112 14.0796 32.3582 12.2598C31.6044 10.4399 30.4995 8.78628 29.1066 7.3934C27.7137 6.00052 26.0601 4.89563 24.2403 4.14181C22.4204 3.38799 20.4698 3 18.5 3ZM24.86 11.64C24.0276 10.8007 23.0367 10.1351 21.9449 9.68192C20.8531 9.22872 19.6821 8.99693 18.5 9L18.5 18L12.14 24.36C13.8275 26.0454 16.115 26.9921 18.5 26.9921C20.885 26.9921 23.1725 26.0454 24.86 24.36C25.6979 23.5263 26.3629 22.5353 26.8166 21.4438C27.2703 20.3524 27.5039 19.182 27.5039 18C27.5039 16.818 27.2703 15.6476 26.8166 14.5562C26.3629 13.4647 25.6979 12.4737 24.86 11.64Z" fill="#111111"/>
</svg>
