<svg xmlns="http://www.w3.org/2000/svg" width="156" height="158" fill="none"><rect width="154.667" height="157.333" x=".93" y=".5" fill="#0C0C0C" rx="24"/><path fill="#F8F8F8" d="M102.263 69.833c-4 0-6.133 3.734-5.067 6.667l-9.6 9.6c-.8-.267-1.866-.267-2.666 0l-6.934-6.933c1.067-2.934-1.066-6.667-5.066-6.667-3.734 0-6.134 3.733-5.067 6.667l-12.267 12c-2.933-.8-6.666 1.333-6.666 5.333 0 2.933 2.4 5.333 5.333 5.333 3.733 0 6.133-3.733 5.067-6.666l12-12.267c.8.267 1.866.267 2.666 0l6.934 6.933c-.8 2.667 1.333 6.667 5.333 6.667s6.133-3.733 5.067-6.667l9.6-9.6c2.933.8 6.666-1.333 6.666-5.066 0-2.934-2.4-5.334-5.333-5.334Zm-16 2.667 2.4-5.6 5.6-2.4-5.6-2.4-2.4-5.6-2.4 5.6-5.6 2.4 5.6 2.4 2.4 5.6Zm-30.667 5.333L56.93 72.5l5.333-1.333-5.333-1.334-1.334-5.333-1.333 5.333-5.333 1.334 5.333 1.333 1.333 5.333Z"/></svg>