<svg xmlns="http://www.w3.org/2000/svg" width="159" height="153" fill="none"><rect width="158.526" height="152" x=".404" y=".167" fill="#0C0C0C" rx="24"/><path fill="#F8F8F8" d="M99.562 77.906v-17.95c0-6.514-10.551-11.79-23.579-11.79-13.027 0-23.579 5.277-23.579 11.79V89.43c0 6.514 10.581 11.789 23.58 11.789 1.355 0 2.652 0 3.92-.176a17.516 17.516 0 0 1-.973-5.718v-.148c-.944.148-1.916.148-2.948.148-11.406 0-17.684-4.421-17.684-5.895v-6.573c4.745 2.3 10.964 3.626 17.684 3.626 1.916 0 3.743-.118 5.541-.325a17.642 17.642 0 0 1 15.09-8.518c1.003 0 1.976.118 2.948.266Zm-5.894-1.887c-3.832 2.8-10.552 4.569-17.685 4.569-7.132 0-13.852-1.769-17.684-4.569v-8.282c4.333 2.447 10.64 4.009 17.684 4.009 7.044 0 13.352-1.562 17.684-4.009v8.282ZM75.983 65.851c-11.406 0-17.684-4.421-17.684-5.895 0-1.474 6.278-5.895 17.684-5.895 11.407 0 17.684 4.422 17.684 5.895 0 1.474-6.277 5.895-17.684 5.895Zm30.948 24.316-14 14-8.106-8.842 3.42-3.42 4.686 4.687 10.581-10.581 3.419 4.156Z"/></svg>