<svg width="36" height="37" viewBox="0 0 36 37" fill="none" xmlns="http://www.w3.org/2000/svg">
<path d="M15 22.6201L22.785 18.1201L15 13.6201V22.6201ZM32.34 10.8751C32.535 11.5801 32.67 12.5251 32.76 13.7251C32.865 14.9251 32.91 15.9601 32.91 16.8601L33 18.1201C33 21.4051 32.76 23.8201 32.34 25.3651C31.965 26.7151 31.095 27.5851 29.745 27.9601C29.04 28.1551 27.75 28.2901 25.77 28.3801C23.82 28.4851 22.035 28.5301 20.385 28.5301L18 28.6201C11.715 28.6201 7.8 28.3801 6.255 27.9601C4.905 27.5851 4.035 26.7151 3.66 25.3651C3.465 24.6601 3.33 23.7151 3.24 22.5151C3.135 21.3151 3.09 20.2801 3.09 19.3801L3 18.1201C3 14.8351 3.24 12.4201 3.66 10.8751C4.035 9.52512 4.905 8.65512 6.255 8.28012C6.96 8.08512 8.25 7.95012 10.23 7.86012C12.18 7.75512 13.965 7.71012 15.615 7.71012L18 7.62012C24.285 7.62012 28.2 7.86012 29.745 8.28012C31.095 8.65512 31.965 9.52512 32.34 10.8751Z" fill="#F8F8F8"/>
</svg>
