<svg width="37" height="36" viewBox="0 0 37 36" fill="none" xmlns="http://www.w3.org/2000/svg">
<path d="M17 12L20 12L20 21L17 21L17 12ZM23 1.5L14 1.5L14 4.5L23 4.5L23 1.5ZM18.5 30C12.695 30 8 25.305 8 19.5C8 13.695 12.695 9 18.5 9C24.305 9 29 13.695 29 19.5C30.05 19.5 31.04 19.695 32 20.025L32 19.5C32 16.32 30.89 13.395 29.045 11.085L31.175 8.955C30.5 8.19 29.825 7.5 29.06 6.84L26.93 9C24.605 7.11 21.68 6 18.5 6C14.9196 6 11.4858 7.42232 8.95406 9.95406C6.42232 12.4858 5 15.9196 5 19.5C5 23.0804 6.42231 26.5142 8.95405 29.0459C11.4858 31.5777 14.9196 33 18.5 33C19.385 33 20.24 32.91 21.065 32.745C20.6 31.875 20.27 30.9 20.12 29.865C19.58 29.94 19.055 30 18.5 30ZM32.51 23.76L27.125 29.145L24.74 26.76L23 28.5L27.125 33L34.25 25.875L32.51 23.76Z" fill="#111111"/>
</svg>
