<svg width="243" height="56" viewBox="0 0 243 56" fill="none" xmlns="http://www.w3.org/2000/svg">
<g clip-path="url(#clip0_4_6627)">
<path d="M80.3413 49.3765V46.659C79.1324 47.6726 77.7519 48.4618 76.2651 48.9892C74.7535 49.5352 73.1576 49.8112 71.5503 49.8045C69.6085 49.824 67.6837 49.44 65.898 48.6767C64.1861 47.9401 62.6317 46.8815 61.3191 45.5584C60.0025 44.2115 58.9638 42.6187 58.262 40.8708C57.5089 39.0275 57.1279 37.0534 57.141 35.0622C57.1266 33.0776 57.5077 31.1099 58.262 29.2741C59.6755 25.8931 62.3121 23.1695 65.6455 21.647C68.9788 20.1245 72.7638 19.9151 76.2447 21.0605C77.7024 21.5395 79.0774 22.2407 80.3209 23.1394V20.7956H85.9393V49.3765H80.3413ZM62.6778 35.0011C62.6435 36.3093 62.8744 37.611 63.3566 38.8276C63.8388 40.0442 64.5623 41.1506 65.4836 42.0801C66.3739 43.01 67.4479 43.7444 68.6374 44.2368C69.8268 44.7292 71.1057 44.9688 72.3927 44.9402C73.9267 44.9548 75.4469 44.6494 76.8562 44.0434C78.1835 43.474 79.3638 42.6097 80.3073 41.5162V28.5336C79.3418 27.4658 78.1547 26.6218 76.829 26.0607C75.4276 25.4599 73.9174 25.1546 72.3927 25.1639C71.1105 25.1349 69.836 25.3689 68.6477 25.8514C67.4594 26.334 66.3825 27.0549 65.4836 27.9697C64.5558 28.8855 63.8262 29.9822 63.34 31.1918C62.8538 32.4014 62.6215 33.698 62.6575 35.0011H62.6778Z" fill="#fff"/>
<path d="M96.7414 8.83179V49.3763H91.123V10.0682L96.7414 8.83179Z" fill="#fff"/>
<path d="M107.577 8.83179V49.3763H101.966V10.0682L107.577 8.83179Z" fill="#fff"/>
<path d="M134.698 49.3764V46.6589C133.489 47.6725 132.108 48.4617 130.621 48.9891C129.11 49.5352 127.514 49.8111 125.907 49.8044C123.956 49.8182 122.024 49.4248 120.234 48.6495C118.522 47.9128 116.968 46.8542 115.655 45.5312C114.338 44.1842 113.3 42.5915 112.598 40.8436C111.845 39.0003 111.464 37.0262 111.477 35.035C111.463 33.0503 111.844 31.0827 112.598 29.2468C114.017 25.8661 116.659 23.1452 119.996 21.6276C123.334 20.11 127.121 19.9075 130.601 21.0605C132.047 21.5426 133.41 22.2437 134.643 23.1393V20.7955H140.262V49.3764H134.698ZM117.034 35.001C117 36.3093 117.231 37.6109 117.713 38.8275C118.195 40.0441 118.919 41.1505 119.84 42.08C120.73 43.0099 121.804 43.7444 122.994 44.2368C124.183 44.7292 125.462 44.9687 126.749 44.9401C128.283 44.9542 129.803 44.6488 131.212 44.0434C132.54 43.4739 133.72 42.6097 134.664 41.5161V28.5335C133.698 27.4657 132.511 26.6218 131.185 26.0606C129.784 25.4598 128.274 25.1545 126.749 25.1638C125.467 25.1348 124.192 25.3688 123.004 25.8514C121.816 26.3339 120.739 27.0548 119.84 27.9696C118.912 28.8854 118.182 29.9821 117.696 31.1917C117.21 32.4013 116.978 33.6979 117.014 35.001H117.034Z" fill="#fff"/>
<path d="M156.253 49.3765H150.819L142.843 20.7957H148.278L153.781 41.8016L160.35 20.7957H165.18L171.689 41.8016L177.253 20.7957H182.531L174.515 49.3765H169.121L162.721 28.4317L156.253 49.3765Z" fill="#fff"/>
<path d="M209.332 46.1222C206.191 48.6231 202.279 49.9537 198.265 49.8859C194.291 49.9025 190.466 48.3725 187.599 45.6195C186.232 44.2881 185.152 42.6904 184.426 40.9251C183.285 38.2102 182.961 35.221 183.494 32.3246C184.028 29.4281 185.395 26.7505 187.429 24.6203C188.755 23.2625 190.34 22.1851 192.091 21.4522C193.842 20.7192 195.722 20.3458 197.62 20.3539C199.471 20.3446 201.304 20.7216 203.001 21.4609C204.699 22.2002 206.223 23.2856 207.477 24.6475C208.729 26.0374 209.709 27.6507 210.364 29.4031C211.086 31.2847 211.447 33.2849 211.431 35.2999V36.9236H188.863C189.215 39.2174 190.382 41.3073 192.15 42.8107C193.918 44.3142 196.169 45.1304 198.489 45.11C199.847 45.1127 201.196 44.8829 202.477 44.4306C203.672 44.0253 204.779 43.3958 205.738 42.5759L209.332 46.1222ZM197.477 25.0619C195.415 25.0347 193.42 25.7896 191.893 27.1747C190.278 28.6161 189.209 30.5685 188.863 32.7048H205.847C205.478 30.6219 204.443 28.7148 202.898 27.2699C201.454 25.8468 199.505 25.053 197.477 25.0619Z" fill="#fff"/>
<path d="M240.217 46.122C237.076 48.6228 233.164 49.9534 229.15 49.8856C227.127 49.8986 225.122 49.5059 223.253 48.7307C221.483 48.0073 219.869 46.951 218.497 45.6192C217.132 44.2861 216.052 42.6889 215.325 40.9248C214.187 38.2091 213.866 35.221 214.399 32.3255C214.932 29.43 216.297 26.7525 218.327 24.6201C219.625 23.2917 221.172 22.232 222.879 21.5018C224.648 20.7465 226.554 20.3649 228.477 20.3809C230.329 20.3715 232.161 20.7485 233.859 21.4879C235.556 22.2272 237.081 23.3125 238.335 24.6744C239.587 26.0644 240.567 27.6776 241.222 29.43C241.943 31.3116 242.305 33.3118 242.289 35.3269V36.9505H219.72C220.079 39.244 221.253 41.3312 223.026 42.8297C224.799 44.3282 227.053 45.1377 229.374 45.1097C230.732 45.1125 232.081 44.8827 233.362 44.4303C234.558 44.0267 235.665 43.3971 236.623 42.5757L240.217 46.122ZM228.368 25.0617C226.304 25.0327 224.306 25.7878 222.777 27.1745C221.179 28.6165 220.12 30.5597 219.774 32.6841H236.759C236.39 30.6012 235.355 28.6942 233.81 27.2492C233.092 26.5446 232.241 25.9886 231.307 25.6132C230.373 25.2378 229.375 25.0504 228.368 25.0617Z" fill="#fff"/>
<path fill-rule="evenodd" clip-rule="evenodd" d="M35.5919 33.2345C35.2182 23.2343 36.0674 14.4025 37.7251 2.43212C37.7667 2.12987 37.7433 1.82221 37.6563 1.52977C37.5693 1.23733 37.4208 0.966879 37.2207 0.736547C37.0206 0.506215 36.7735 0.321333 36.4961 0.194299C36.2187 0.0672655 35.9174 0.00101802 35.6123 0L10.1905 0C9.89157 0.00024854 9.59606 0.0633078 9.32309 0.18509C9.05013 0.306872 8.8058 0.484658 8.60596 0.706923C8.40611 0.929188 8.25521 1.19097 8.16302 1.4753C8.07084 1.75962 8.03943 2.06015 8.07085 2.35739L8.13878 3.03676C9.38881 14.9936 10.3127 23.7778 10.2652 33.2141C7.03867 31.7596 3.53924 31.0092 0 31.013L0 38.255C0.020472 38.8225 0.243392 39.364 0.628432 39.7814C1.01347 40.1989 1.5352 40.4647 2.09924 40.5309C4.3692 40.8584 6.53719 41.6894 8.4445 42.963C8.91712 43.2756 9.37083 43.6158 9.80323 43.982C11.8912 45.7259 13.4823 47.9896 14.4161 50.5447C15.0368 52.2471 15.3541 54.0453 15.3536 55.8573C15.3536 55.8952 15.3687 55.9315 15.3954 55.9582C15.4222 55.985 15.4585 56 15.4963 56H30.4423C30.461 56 30.4796 55.9963 30.4969 55.9891C30.5142 55.982 30.5299 55.9715 30.5432 55.9582C30.5564 55.945 30.5669 55.9292 30.5741 55.9119C30.5813 55.8946 30.585 55.8761 30.585 55.8573C30.5778 52.927 31.4027 50.0549 32.9638 47.5751C34.5248 45.0952 36.7578 43.1095 39.4031 41.8488C40.7824 41.1926 42.2528 40.7483 43.7646 40.5309C44.3299 40.4662 44.8532 40.201 45.2397 39.7835C45.6261 39.3659 45.85 38.8236 45.8707 38.255V31.013C42.3252 31.0118 38.8204 31.7692 35.5919 33.2345ZM33.3908 24.4028L33.0443 34.5932C30.1706 36.3201 27.6695 38.6019 25.6868 41.3054C24.605 42.8027 23.6936 44.416 22.9693 46.1152C22.245 44.416 21.3336 42.8027 20.2518 41.3054C18.2437 38.5607 15.7019 36.2499 12.7788 34.5117C12.7788 26.5088 12.3373 19.8918 11.8481 12.2693C11.7462 10.7543 11.6443 9.19859 11.5424 7.58171C12.5956 7.51934 13.5851 7.05699 14.3087 6.2892C15.0323 5.52141 15.4353 4.5062 15.4352 3.45117H30.2181C30.2279 4.49113 30.6302 5.48901 31.3445 6.2449C32.0588 7.00079 33.0324 7.45887 34.0701 7.52736L33.3908 24.4028Z" fill="#5CD89F"/>
<path fill-rule="evenodd" clip-rule="evenodd" d="M28.5812 25.3472C28.5785 26.4605 28.246 27.548 27.6255 28.4724C27.005 29.3968 26.1245 30.1165 25.0951 30.5407C24.0658 30.9649 22.9338 31.0745 21.8423 30.8556C20.7507 30.6368 19.7484 30.0993 18.9621 29.3112C18.1759 28.523 17.6408 27.5195 17.4246 26.4273C17.2084 25.3352 17.3207 24.2035 17.7474 23.1752C18.1741 22.1469 18.8959 21.2681 19.8218 20.6499C20.7477 20.0316 21.836 19.7017 22.9493 19.7017C23.69 19.7017 24.4235 19.8478 25.1077 20.1317C25.7919 20.4155 26.4133 20.8316 26.9365 21.356C27.4596 21.8804 27.8742 22.5029 28.1564 23.1878C28.4387 23.8726 28.583 24.6064 28.5812 25.3472Z" fill="#5CD89F"/>
</g>
<defs>
<clipPath id="clip0_4_6627">
<rect width="242.288" height="56" fill="white"/>
</clipPath>
</defs>
</svg>
