<svg width="171" height="40" viewBox="0 0 171 40" fill="none" xmlns="http://www.w3.org/2000/svg">
<g clip-path="url(#clip0_1073_603)">
<path d="M90.5293 29.2859V17.5378C90.5422 15.8981 91.0958 14.3054 92.1093 12.9926C93.1228 11.6797 94.543 10.7155 96.1622 10.2409C98.0201 9.79953 99.9435 9.67765 101.845 9.8808V14.4841C101.577 14.4841 99.7244 14.4438 99.4602 14.4841C97.0461 14.6427 95.6325 15.9687 95.6325 18.0526V29.2859H90.5293Z" fill="#4300C2"/>
<path fill-rule="evenodd" clip-rule="evenodd" d="M142.208 10.5529C140.688 9.9251 139.032 9.67098 137.386 9.81318C135.741 9.95537 134.157 10.4895 132.776 11.368C131.394 12.2465 130.258 13.4422 129.469 14.8488C128.679 16.2554 128.261 17.8294 128.25 19.4306C128.249 20.7271 128.491 22.0128 128.965 23.2253C129.589 24.7117 130.582 26.0258 131.855 27.0515C133.129 28.0772 134.643 28.7827 136.265 29.1056C137.887 29.4285 139.566 29.3588 141.153 28.9026C142.74 28.4465 144.187 27.618 145.365 26.4906C146.544 25.3631 147.417 23.9715 147.908 22.4389C148.399 20.9062 148.492 19.2799 148.18 17.7039C147.868 16.1279 147.159 14.6509 146.118 13.4036C145.076 12.1562 143.733 11.1771 142.208 10.5529ZM138.303 25.0557C137.55 25.057 136.806 24.897 136.124 24.5874C135.442 24.2777 134.839 23.826 134.358 23.2643H134.371C133.387 22.1767 132.878 20.7602 132.953 19.3152C133.029 17.8702 133.681 16.5104 134.773 15.5241C135.391 14.9449 136.148 14.5241 136.976 14.2997C137.804 14.0754 138.676 14.0546 139.514 14.2393C140.352 14.424 141.13 14.8083 141.776 15.3574C142.423 15.9066 142.917 16.6032 143.216 17.3844C143.644 18.3532 143.781 19.4195 143.61 20.4604C143.44 21.5012 142.969 22.4741 142.253 23.2669C141.772 23.8289 141.168 24.2808 140.485 24.5902C139.802 24.8997 139.057 25.0578 138.303 25.0557Z" fill="#4300C2"/>
<path d="M152.14 29.2338V18.4438C152.093 16.6891 152.626 14.966 153.661 13.5255C154.696 12.085 156.178 11.0025 157.892 10.4358C164.893 8.11273 170.999 12.2935 170.999 18.4451V29.2858H166.273V18.5244C166.302 17.9286 166.202 17.3335 165.978 16.7776C165.755 16.2218 165.414 15.7177 164.976 15.298C164.539 14.8783 164.016 14.5524 163.44 14.3414C162.864 14.1304 162.249 14.039 161.635 14.0732C161.013 14.0333 160.39 14.1198 159.805 14.3271C159.219 14.5344 158.685 14.858 158.237 15.2771C157.788 15.6962 157.435 16.2015 157.199 16.7608C156.964 17.32 156.852 17.9207 156.87 18.5244V29.2338H152.14Z" fill="#4300C2"/>
<path d="M125.721 19.077V18.9106C125.645 17.766 125.404 16.6374 125.005 15.5579C124.321 13.7647 123.071 12.2257 121.435 11.159C119.798 10.0922 117.856 9.55179 115.885 9.61429H111.647V14.5023H115.804C116.436 14.4658 117.068 14.5514 117.665 14.7539C118.262 14.9564 118.812 15.272 119.282 15.6821C119.752 16.0923 120.133 16.5889 120.403 17.1431C120.674 17.6974 120.828 18.2982 120.856 18.9106H120.84C120.84 19.0159 120.855 19.1212 120.855 19.2265C120.857 19.9606 120.707 20.6876 120.414 21.3645C120.12 22.0413 119.69 22.6542 119.148 23.1668C118.601 23.6836 117.955 24.0909 117.245 24.3652C116.536 24.6396 115.778 24.7757 115.014 24.7658C114.22 24.746 113.437 24.5722 112.713 24.2545C111.989 23.9369 111.338 23.4819 110.799 22.9164C110.259 22.3509 109.842 21.6863 109.571 20.9619C109.301 20.2375 109.183 19.468 109.224 18.6987V0.0358887H104.361V18.8287C104.361 25.1727 108.699 29.3249 115.041 29.2859C117.73 29.393 120.356 28.472 122.351 26.7214C124.347 24.9707 125.554 22.5304 125.712 19.9259H125.732C125.741 19.649 125.736 19.3643 125.721 19.077Z" fill="#4300C2"/>
<path d="M65.3823 19.9064V20.0716C65.4569 21.2068 65.6976 22.326 66.0972 23.3956C66.79 25.181 68.0441 26.7103 69.6823 27.7672C71.3205 28.8242 73.2599 29.3555 75.2266 29.2859H79.4888V24.4409H75.3204C74.6916 24.4799 74.061 24.3974 73.4654 24.1982C72.8697 23.999 72.3208 23.6872 71.8505 23.2807C71.3802 22.8741 70.9979 22.3811 70.7259 21.8302C70.4538 21.2793 70.2973 20.6815 70.2655 20.0716H70.2776C70.28 19.9669 70.2755 19.8623 70.2642 19.7582C70.2636 19.0302 70.4146 18.3095 70.7082 17.6393C71.0018 16.9692 71.4319 16.3634 71.9729 15.8582C73.0827 14.8221 74.5697 14.2526 76.1104 14.2735C76.9019 14.2888 77.6822 14.4578 78.4052 14.7704C79.1282 15.083 79.7791 15.5329 80.3197 16.0935C80.8602 16.6542 81.2793 17.3142 81.5521 18.0345C81.825 18.7548 81.9461 19.5209 81.9083 20.2873V29.221H86.7526V20.1522C86.7526 13.8628 82.4072 9.75215 76.0581 9.78595C73.3804 9.67121 70.763 10.5776 68.7664 12.3109C66.7699 14.0442 65.5532 16.4665 65.377 19.0588L65.3823 19.9064Z" fill="#4300C2"/>
<path d="M62.8655 24.3992H56.3782C55.7043 24.4336 55.0305 24.3293 54.4011 24.093C53.7718 23.8568 53.2013 23.4939 52.7271 23.0284C52.2529 22.5629 51.8859 22.0053 51.6502 21.3923C51.4145 20.7794 51.3154 20.125 51.3596 19.4722C51.3279 18.8277 51.4365 18.184 51.6783 17.5829C51.9201 16.9818 52.2897 16.4367 52.763 15.9831C53.2363 15.5294 53.8028 15.1774 54.4257 14.9498C55.0485 14.7223 55.7138 14.6243 56.3782 14.6622H62.8682V9.78589H56.2964C49.3558 9.78589 44.6456 16.1039 47.2623 23.3475C47.929 25.1334 49.161 26.6694 50.7823 27.7359C52.4036 28.8024 54.3313 29.3449 56.2897 29.2859H62.8615L62.8655 24.3992Z" fill="#4300C2"/>
<path d="M35.2035 9.78589H23.8906L35.2075 29.2859V9.78589H35.2035Z" fill="#9B7DD4"/>
<path d="M35.2065 9.78589L17.6035 0.0358887L23.4712 9.78589H35.2065Z" fill="#4300C2"/>
<path d="M23.8904 9.78589L17.9181 0.0358887L0 9.78589H23.8904Z" fill="#9B7DD4"/>
<path d="M0 29.2859H11.3168L0 9.78589V29.2859Z" fill="#9B7DD4"/>
<path d="M0 29.2859L17.6029 39.0359L11.7366 29.2859H0Z" fill="#4300C2"/>
<path d="M11.3164 29.2859L17.29 39.0359L35.2054 29.2859H11.3164Z" fill="#9B7DD4"/>
</g>
<defs>
<clipPath id="clip0_1073_603">
<rect width="171" height="39" fill="white" transform="translate(0 0.0358887)"/>
</clipPath>
</defs>
</svg>
