<svg width="504" height="296" viewBox="0 0 504 296" fill="none" xmlns="http://www.w3.org/2000/svg">
<g clip-path="url(#clip0_35_322)">
<rect width="504" height="295.312" transform="translate(0 0.120117)" fill="white"/>
<path d="M0 147.776L17.1573 147.776C98.7055 147.776 164.813 81.6682 164.813 0.119964L1.29085e-05 0.119949L0 147.776Z" fill="#EAF3FB"/>
<path d="M504 147.776L486.843 147.776C405.294 147.776 339.187 213.884 339.187 295.432L504 295.432L504 147.776Z" fill="#EAF3FB"/>
<rect x="29.3672" y="52.0996" width="40.95" height="40.95" rx="7.875" fill="#323232"/>
<path d="M49.8418 62.7307C48.5491 62.7307 47.2691 62.9853 46.0748 63.48C44.8805 63.9747 43.7953 64.6998 42.8812 65.6139C41.0352 67.4599 39.998 69.9637 39.998 72.5745C39.998 75.1852 41.0352 77.689 42.8812 79.535C43.7953 80.4491 44.8805 81.1742 46.0748 81.6689C47.2691 82.1636 48.5491 82.4182 49.8418 82.4182C52.4525 82.4182 54.9563 81.3811 56.8024 79.535C58.6484 77.689 59.6855 75.1852 59.6855 72.5745C59.6855 71.2818 59.4309 70.0017 58.9362 68.8074C58.4415 67.6131 57.7164 66.528 56.8024 65.6139C55.8883 64.6998 54.8031 63.9747 53.6088 63.48C52.4145 62.9853 51.1345 62.7307 49.8418 62.7307ZM44.9888 78.7563C45.4121 77.8704 47.9912 77.0041 49.8418 77.0041C51.6924 77.0041 54.2715 77.8704 54.6948 78.7563C53.316 79.8549 51.6047 80.452 49.8418 80.4495C48.0109 80.4495 46.3276 79.8195 44.9888 78.7563ZM56.1024 77.329C54.6948 75.6162 51.279 75.0354 49.8418 75.0354C48.4046 75.0354 44.9888 75.6162 43.5812 77.329C42.534 75.9653 41.9665 74.2939 41.9668 72.5745C41.9668 68.2334 45.5007 64.6995 49.8418 64.6995C54.1829 64.6995 57.7168 68.2334 57.7168 72.5745C57.7168 74.366 57.1065 76.0198 56.1024 77.329ZM49.8418 66.6682C47.9321 66.6682 46.3965 68.2038 46.3965 70.1135C46.3965 72.0232 47.9321 73.5588 49.8418 73.5588C51.7515 73.5588 53.2871 72.0232 53.2871 70.1135C53.2871 68.2038 51.7515 66.6682 49.8418 66.6682ZM49.8418 71.5901C49.4502 71.5901 49.0746 71.4345 48.7977 71.1576C48.5208 70.8807 48.3652 70.5051 48.3652 70.1135C48.3652 69.7219 48.5208 69.3463 48.7977 69.0694C49.0746 68.7925 49.4502 68.637 49.8418 68.637C50.2334 68.637 50.609 68.7925 50.8859 69.0694C51.1628 69.3463 51.3184 69.7219 51.3184 70.1135C51.3184 70.5051 51.1628 70.8807 50.8859 71.1576C50.609 71.4345 50.2334 71.5901 49.8418 71.5901Z" fill="#F8F8F8"/>
<path d="M307.65 59.9746C307.65 55.6254 311.176 52.0996 315.525 52.0996H503.802V243.452H315.525C311.176 243.452 307.65 239.926 307.65 235.577V59.9746Z" fill="#5CD89F"/>
<rect x="29.3672" y="127.301" width="40.95" height="40.95" rx="7.875" fill="#323232"/>
<g clip-path="url(#clip1_35_322)">
<path d="M43.3445 138.03H42.4586L43.6398 136.849L44.8211 138.03H43.9352V142.164H43.3445V138.03ZM40.3914 137.44C39.2515 137.44 38.3242 138.364 38.3242 139.507C38.3242 140.65 39.2485 141.574 40.3914 141.574C41.5313 141.574 42.4586 140.65 42.4586 139.507C42.4586 138.364 41.5343 137.44 40.3914 137.44ZM40.3914 138.074C41.1799 138.074 41.8237 138.715 41.8237 139.507C41.8237 140.298 41.1828 140.939 40.3914 140.939C39.6 140.939 38.9591 140.298 38.9591 139.507C38.9591 138.715 39.6 138.074 40.3914 138.074ZM40.0961 138.621V139.71L41.0381 140.254L41.2596 139.87L40.5391 139.454V138.621" fill="#F8F8F8"/>
<path d="M46.8906 146.791V144.823H52.7969V146.791H46.8906ZM56.7344 140.885V156.635L49.8437 153.682L42.9531 156.635V140.885C42.9531 140.363 43.1605 139.862 43.5298 139.493C43.899 139.124 44.3997 138.916 44.9219 138.916H54.7656C55.2878 138.916 55.7885 139.124 56.1577 139.493C56.5269 139.862 56.7344 140.363 56.7344 140.885ZM54.7656 140.885H44.9219V153.682L49.8437 151.536L54.7656 153.682V140.885Z" fill="#F8F8F8"/>
</g>
<rect x="297.02" y="127.301" width="40.95" height="40.95" rx="7.875" fill="#323232"/>
<path d="M318.477 146.792H321.43V148.76H318.477V151.713H316.508V148.76H313.555V146.792H316.508V143.838H318.477V146.792ZM327.336 141.377V151.713L321.43 157.62H311.094C309.223 157.62 307.648 156.045 307.648 154.174V141.377C307.648 139.507 309.223 137.932 311.094 137.932H323.891C325.761 137.932 327.336 139.507 327.336 141.377ZM325.367 141.673C325.367 140.688 324.58 139.901 323.595 139.901H311.389C310.405 139.901 309.617 140.688 309.617 141.673V153.977C309.617 154.962 310.405 155.749 311.389 155.749H320.445V154.273C320.445 152.402 322.02 150.827 323.891 150.827H325.367V141.673Z" fill="#F8F8F8"/>
<rect x="29.3672" y="202.502" width="40.95" height="40.95" rx="7.875" fill="#323232"/>
<g clip-path="url(#clip2_35_322)">
<path d="M54.7637 220.024H54.2715H54.7637ZM44.9199 225.93H47.873C47.9518 225.261 48.0994 224.592 48.3652 223.962H44.9199V225.93ZM49.7434 221.894C50.9467 220.698 52.5744 220.025 54.2715 220.024H44.9199V221.993H49.6646C49.6941 221.963 49.7138 221.934 49.7434 221.894ZM49.7434 230.951C50.0977 231.295 50.4816 231.581 50.8852 231.837H42.9512C42.429 231.837 41.9283 231.629 41.5591 231.26C41.1898 230.891 40.9824 230.39 40.9824 229.868V216.087C40.9824 215.004 41.8684 214.118 42.9512 214.118H47.0659C47.3809 213.291 48.0109 212.641 48.8574 212.346C50.3635 211.795 52.0566 212.582 52.6177 214.118H56.7324C57.2546 214.118 57.7553 214.325 58.1245 214.694C58.4937 215.064 58.7012 215.564 58.7012 216.087V221.816C58.132 221.263 57.4642 220.822 56.7324 220.516V216.087H54.7637V218.055H44.9199V216.087H42.9512V229.868H48.8869C49.1232 230.252 49.4185 230.616 49.7434 230.951ZM48.8574 215.102C48.8574 215.644 49.3004 216.087 49.8418 216.087C50.3832 216.087 50.8262 215.644 50.8262 215.102C50.8262 214.561 50.3832 214.118 49.8418 214.118C49.3004 214.118 48.8574 214.561 48.8574 215.102ZM61.0538 231.837L59.6855 233.205L56.6143 230.183C55.9351 230.606 55.1279 230.852 54.2715 230.852C51.8105 230.852 49.8418 228.883 49.8418 226.423C49.8418 223.962 51.8105 221.993 54.2715 221.993C56.7324 221.993 58.7012 223.962 58.7012 226.423C58.7012 227.289 58.4551 228.106 58.0219 228.785L61.0538 231.837ZM56.7324 226.423C56.7324 225.77 56.4731 225.144 56.0116 224.682C55.5501 224.221 54.9242 223.962 54.2715 223.962C53.6188 223.962 52.9928 224.221 52.5313 224.682C52.0698 225.144 51.8105 225.77 51.8105 226.423C51.8105 227.075 52.0698 227.701 52.5313 228.163C52.9928 228.624 53.6188 228.883 54.2715 228.883C54.9242 228.883 55.5501 228.624 56.0116 228.163C56.4731 227.701 56.7324 227.075 56.7324 226.423Z" fill="#F8F8F8"/>
</g>
<path d="M355.531 101.671H454.585" stroke="white" stroke-width="6.89062"/>
<path d="M355.531 82.5737L454.585 82.5737" stroke="#2FB67C" stroke-width="6.89062"/>
<path d="M478.283 103.576L478.283 196.586" stroke="#2FB67C" stroke-width="6.89062"/>
<path d="M333.402 103.576V120.767" stroke="#2FB67C" stroke-width="6.89062"/>
<path d="M333.402 178.058V197.155" stroke="#2FB67C" stroke-width="6.89062"/>
<path d="M355.531 217.588L454.585 217.588" stroke="#2FB67C" stroke-width="6.89062"/>
<path d="M355.531 120.768H454.585" stroke="white" stroke-width="6.89062"/>
<path d="M355.531 139.864H388.16" stroke="white" stroke-width="6.89062"/>
<path d="M405.057 139.864L454.583 139.864" stroke="white" stroke-width="6.89062"/>
<path d="M355.531 158.961H454.585" stroke="white" stroke-width="6.89062"/>
<path d="M355.531 197.155H454.585" stroke="white" stroke-width="6.89062"/>
<path d="M355.531 178.058H394.795" stroke="white" stroke-width="6.89062"/>
<path d="M412.77 178.058H454.585" stroke="white" stroke-width="6.89062"/>
<rect x="324.777" y="73.9478" width="17.2518" height="17.2518" rx="3.9375" fill="#2FB67C"/>
<rect x="469.656" y="73.9478" width="17.2518" height="17.2518" rx="3.9375" fill="#2FB67C"/>
<rect x="324.777" y="208.962" width="17.2518" height="17.2518" rx="3.9375" fill="#2FB67C"/>
<rect x="469.656" y="208.962" width="17.2518" height="17.2518" rx="3.9375" fill="#2FB67C"/>
<path d="M97.4531 59.9748C97.4531 55.6256 100.979 52.0999 105.328 52.0999H267.53C271.879 52.0999 275.405 55.6256 275.405 59.9748V243.452H97.4531V59.9748Z" fill="#5CD89F"/>
<rect x="114.096" y="183.62" width="40.95" height="40.95" rx="3.9375" fill="#2FB67C"/>
<path d="M128.664 194.251C129.708 194.251 130.71 194.666 131.448 195.405C132.187 196.143 132.602 197.145 132.602 198.189V200.158H136.539V198.189C136.539 197.145 136.954 196.143 137.692 195.405C138.431 194.666 139.432 194.251 140.477 194.251C141.521 194.251 142.522 194.666 143.261 195.405C143.999 196.143 144.414 197.145 144.414 198.189C144.414 199.233 143.999 200.235 143.261 200.973C142.522 201.712 141.521 202.126 140.477 202.126H138.508V206.064H140.477C141.521 206.064 142.522 206.479 143.261 207.217C143.999 207.956 144.414 208.957 144.414 210.001C144.414 211.046 143.999 212.047 143.261 212.786C142.522 213.524 141.521 213.939 140.477 213.939C139.432 213.939 138.431 213.524 137.692 212.786C136.954 212.047 136.539 211.046 136.539 210.001V208.033H132.602V210.001C132.602 211.046 132.187 212.047 131.448 212.786C130.71 213.524 129.708 213.939 128.664 213.939C127.62 213.939 126.618 213.524 125.88 212.786C125.141 212.047 124.727 211.046 124.727 210.001C124.727 208.957 125.141 207.956 125.88 207.217C126.618 206.479 127.62 206.064 128.664 206.064H130.633V202.126H128.664C127.62 202.126 126.618 201.712 125.88 200.973C125.141 200.235 124.727 199.233 124.727 198.189C124.727 197.145 125.141 196.143 125.88 195.405C126.618 194.666 127.62 194.251 128.664 194.251ZM138.508 210.001C138.508 210.524 138.715 211.024 139.084 211.394C139.454 211.763 139.954 211.97 140.477 211.97C140.999 211.97 141.499 211.763 141.869 211.394C142.238 211.024 142.445 210.524 142.445 210.001C142.445 209.479 142.238 208.979 141.869 208.609C141.499 208.24 140.999 208.033 140.477 208.033H138.508V210.001ZM136.539 202.126H132.602V206.064H136.539V202.126ZM128.664 208.033C128.142 208.033 127.641 208.24 127.272 208.609C126.903 208.979 126.695 209.479 126.695 210.001C126.695 210.524 126.903 211.024 127.272 211.394C127.641 211.763 128.142 211.97 128.664 211.97C129.186 211.97 129.687 211.763 130.056 211.394C130.425 211.024 130.633 210.524 130.633 210.001V208.033H128.664ZM130.633 198.189C130.633 197.667 130.425 197.166 130.056 196.797C129.687 196.428 129.186 196.22 128.664 196.22C128.142 196.22 127.641 196.428 127.272 196.797C126.903 197.166 126.695 197.667 126.695 198.189C126.695 198.711 126.903 199.212 127.272 199.581C127.641 199.95 128.142 200.158 128.664 200.158H130.633V198.189ZM140.477 200.158C140.999 200.158 141.499 199.95 141.869 199.581C142.238 199.212 142.445 198.711 142.445 198.189C142.445 197.667 142.238 197.166 141.869 196.797C141.499 196.428 140.999 196.22 140.477 196.22C139.954 196.22 139.454 196.428 139.084 196.797C138.715 197.166 138.508 197.667 138.508 198.189V200.158H140.477Z" fill="#F8F8F8"/>
<rect x="165.953" y="183.62" width="40.95" height="40.95" rx="3.9375" fill="#2FB67C"/>
<path d="M176.584 196.22H192.334V199.173H176.584V196.22ZM181.998 203.111H186.92C187.196 203.111 187.412 203.327 187.412 203.603V205.079H181.506V203.603C181.506 203.327 181.722 203.111 181.998 203.111ZM194.303 205.079V199.173H196.271V205.079H194.303ZM194.303 209.017V207.048H196.271V209.017H194.303ZM177.568 200.157H179.537V210.001H189.381V200.157H191.35V211.97H177.568V200.157Z" fill="#F8F8F8"/>
<rect x="217.812" y="183.62" width="40.95" height="40.95" rx="3.9375" fill="#2FB67C"/>
<path d="M237.49 194.498C237.234 194.498 236.978 194.557 236.732 194.645L229.487 197.648C229.005 197.845 228.621 198.225 228.42 198.705C228.219 199.185 228.217 199.725 228.414 200.207L233.296 211.97C233.44 212.327 233.686 212.634 234.003 212.852C234.319 213.071 234.693 213.192 235.078 213.201C235.334 213.201 235.6 213.171 235.855 213.053L243.11 210.051C243.46 209.902 243.761 209.656 243.975 209.342C244.19 209.028 244.31 208.659 244.321 208.279C244.331 208.033 244.282 207.747 244.193 207.491L239.271 195.728C239.132 195.368 238.888 195.058 238.57 194.838C238.252 194.619 237.876 194.5 237.49 194.498ZM240.915 194.498L244.311 202.717V196.466C244.311 195.944 244.104 195.443 243.735 195.074C243.365 194.705 242.865 194.498 242.343 194.498M246.29 196.013V204.902L248.682 199.134C248.78 198.896 248.83 198.64 248.829 198.382C248.828 198.124 248.776 197.869 248.677 197.632C248.577 197.394 248.431 197.178 248.248 196.997C248.065 196.815 247.848 196.672 247.609 196.575M237.49 196.437L242.392 208.269L235.117 211.281L230.215 199.459" fill="#F8F8F8"/>
<rect x="114.096" y="70.9819" width="40.95" height="40.95" rx="3.9375" fill="#2FB67C"/>
<path d="M132.602 92.4414C132.257 93.0222 131.972 93.662 131.804 94.3412C129.156 94.5677 126.597 95.808 126.597 96.3789V97.4617H131.814C131.981 98.1311 132.257 98.7611 132.602 99.332H124.727V96.3789C124.727 93.7605 129.973 92.4414 132.602 92.4414ZM132.602 83.582C133.646 83.582 134.647 83.9969 135.386 84.7353C136.124 85.4737 136.539 86.4752 136.539 87.5195C136.539 88.4153 136.234 89.2422 135.732 89.9116C134.885 90.2266 134.127 90.7286 133.497 91.3586L132.602 91.457C131.557 91.457 130.556 91.0422 129.817 90.3038C129.079 89.5653 128.664 88.5638 128.664 87.5195C128.664 86.4752 129.079 85.4737 129.817 84.7353C130.556 83.9969 131.557 83.582 132.602 83.582ZM132.602 85.4523C132.053 85.4523 131.528 85.6701 131.14 86.0578C130.752 86.4455 130.534 86.9713 130.534 87.5195C130.534 88.0678 130.752 88.5936 131.14 88.9813C131.528 89.3689 132.053 89.5867 132.602 89.5867C133.15 89.5867 133.676 89.3689 134.063 88.9813C134.451 88.5936 134.669 88.0678 134.669 87.5195C134.669 86.9713 134.451 86.4455 134.063 86.0578C133.676 85.6701 133.15 85.4523 132.602 85.4523ZM138.016 91.457C140.477 91.457 142.445 93.4258 142.445 95.8867C142.445 96.753 142.199 97.57 141.766 98.2492L144.798 101.301L143.43 102.669L140.358 99.647C139.679 100.07 138.872 100.316 138.016 100.316C135.555 100.316 133.586 98.3476 133.586 95.8867C133.586 93.4258 135.555 91.457 138.016 91.457ZM138.016 93.4258C137.363 93.4258 136.737 93.6851 136.275 94.1466C135.814 94.6081 135.555 95.234 135.555 95.8867C135.555 96.5394 135.814 97.1653 136.275 97.6269C136.737 98.0884 137.363 98.3476 138.016 98.3476C138.668 98.3476 139.294 98.0884 139.756 97.6269C140.217 97.1653 140.477 96.5394 140.477 95.8867C140.477 95.234 140.217 94.6081 139.756 94.1466C139.294 93.6851 138.668 93.4258 138.016 93.4258Z" fill="#F8F8F8"/>
<path d="M258.764 81.9084H170.893" stroke="white" stroke-width="6.89062"/>
<path d="M225.252 101.005H199.678" stroke="white" stroke-width="6.89062"/>
<path d="M258.764 101.005H238.641" stroke="white" stroke-width="6.89062"/>
<path d="M186.43 101.005H170.893" stroke="white" stroke-width="6.89062"/>
<rect x="114.096" y="122.696" width="144.667" height="50.1601" rx="3.9375" fill="#2FB67C"/>
<path d="M246.35 138.228L215.647 138.228" stroke="white" stroke-width="6.89062"/>
<path d="M199.678 138.228H170.891" stroke="white" stroke-width="6.89062"/>
<path d="M155.047 138.228H126.26" stroke="white" stroke-width="6.89062"/>
<path d="M170.893 157.324H126.26" stroke="white" stroke-width="6.89062"/>
<path d="M246.35 157.324L186.429 157.324" stroke="white" stroke-width="6.89062"/>
</g>
<defs>
<clipPath id="clip0_35_322">
<rect width="504" height="295.312" fill="white" transform="translate(0 0.120117)"/>
</clipPath>
<clipPath id="clip1_35_322">
<rect width="23.625" height="23.625" fill="white" transform="translate(38.0293 135.963)"/>
</clipPath>
<clipPath id="clip2_35_322">
<rect width="23.625" height="23.625" fill="white" transform="translate(38.0293 211.165)"/>
</clipPath>
</defs>
</svg>
