<svg width="109" height="36" viewBox="0 0 109 36" fill="none" xmlns="http://www.w3.org/2000/svg">
<g clip-path="url(#clip0_1582_2730)">
<path fill-rule="evenodd" clip-rule="evenodd" d="M0.746094 23.5579V23.4906C0.746094 16.8699 5.89759 11.263 13.1463 11.263C16.7531 11.263 19.1568 12.1066 21.3557 13.6607C21.6216 13.855 21.838 14.1091 21.9872 14.4025C22.1365 14.6959 22.2144 15.0203 22.2148 15.3494C22.2148 16.4649 21.2877 17.4108 20.1191 17.4108C19.5696 17.4108 19.1576 17.174 18.8137 16.9371C17.2682 15.823 15.5852 15.0789 12.9743 15.0789C8.54359 15.0789 5.17755 18.897 5.17755 23.4226V23.4906C5.17755 28.3548 8.44041 31.9353 13.3526 31.9353C15.6196 31.9353 17.6802 31.2262 19.1576 30.145V25.7202H14.4173C13.3863 25.7202 12.5287 24.9439 12.5287 23.9307C12.5287 22.9168 13.3863 22.1061 14.4173 22.1061H21.1157C22.3173 22.1061 23.2451 23.0184 23.2451 24.2012V30.5171C23.2451 31.6992 22.7644 32.5442 21.7685 33.1517C19.7071 34.5033 16.8218 35.719 13.2158 35.719C5.69197 35.7183 0.746094 30.4499 0.746094 23.5579ZM27.0334 12.5123C27.0334 11.3975 27.9261 10.4852 29.0932 10.4852C30.2618 10.4852 31.189 11.3975 31.189 12.5123V33.4558C31.189 34.6042 30.2611 35.4822 29.0932 35.4822C27.9605 35.4822 27.0334 34.6049 27.0334 33.4551V12.5123ZM34.4086 26.4973V26.4286C34.4086 21.3283 38.5299 17.106 44.0948 17.106C49.659 17.106 53.7473 21.261 53.7473 26.362V26.4286C53.7473 31.4967 49.6253 35.719 44.026 35.719C38.4955 35.719 34.4086 31.5639 34.4086 26.4973ZM49.5909 26.4973V26.4286C49.5909 23.2881 47.2889 20.6872 44.026 20.6872C40.6936 20.6872 38.5642 23.2545 38.5642 26.362V26.4286C38.5642 29.5368 40.8656 32.1378 44.0948 32.1378C47.4608 32.1378 49.5909 29.5705 49.5909 26.4973ZM64.1242 35.651H63.9178C62.7851 35.651 62.0284 34.9419 61.5484 33.86L55.5042 20.2471C55.4003 19.943 55.2627 19.6068 55.2627 19.2339C55.2627 18.2208 56.1898 17.2748 57.3233 17.2748C58.4561 17.2748 59.04 17.9167 59.3839 18.7617L64.0554 30.5836L68.7956 18.6945C69.1052 17.9846 69.654 17.2748 70.7538 17.2748C71.8873 17.2748 72.78 18.1199 72.78 19.2339C72.78 19.6068 72.6432 20.0117 72.5407 20.2135L66.495 33.8608C66.0121 34.9076 65.2584 35.651 64.1242 35.651ZM74.2954 26.4973V26.4286C74.2954 21.3283 78.4174 17.106 83.9838 17.106C89.5465 17.106 93.6348 21.261 93.6348 26.362V26.4286C93.6348 31.4967 89.5129 35.719 83.9135 35.719C78.3837 35.719 74.2954 31.5639 74.2954 26.4973ZM89.4792 26.4973V26.4286C89.4792 23.2881 87.1771 20.6872 83.9135 20.6872C80.5819 20.6872 78.4525 23.2545 78.4525 26.362V26.4286C78.4525 29.5368 80.7531 32.1378 83.983 32.1378C87.3484 32.1378 89.4792 29.5705 89.4792 26.4973ZM100.585 0.914795C96.0847 0.914795 92.4238 4.51649 92.4238 8.94131C92.4238 10.627 92.9565 12.2455 93.9626 13.6212L94.1799 13.9173L98.4285 19.8144C98.4285 19.8144 98.9473 20.6477 100.078 20.6477H101.093C102.224 20.6477 102.741 19.8144 102.741 19.8144L106.991 13.9173L107.206 13.6212C108.206 12.2656 108.746 10.6256 108.746 8.94131C108.746 4.51649 105.085 0.914795 100.585 0.914795ZM103.944 11.3112L103.718 11.6227L100.586 15.97L97.4582 11.6314L97.2284 11.3164C96.7192 10.6289 96.4437 9.79654 96.4425 8.94131C96.4425 6.69491 98.3011 4.86738 100.584 4.86738C102.869 4.86738 104.727 6.69491 104.727 8.94131C104.727 9.79293 104.456 10.6124 103.944 11.3112ZM98.2894 24.2684V24.2523C98.2894 23.0535 99.2575 22.06 100.565 22.06C101.874 22.06 102.834 23.0367 102.834 24.2363V24.2523C102.834 25.4424 101.865 26.4351 100.55 26.4351C99.251 26.4351 98.2887 25.4592 98.2887 24.2684H98.2894Z" fill="#00A082"/>
</g>
<defs>
<clipPath id="clip0_1582_2730">
<rect width="108" height="35" fill="white" transform="translate(0.746094 0.816895)"/>
</clipPath>
</defs>
</svg>
