<svg width="171" height="36" viewBox="0 0 171 36" fill="none" xmlns="http://www.w3.org/2000/svg">
<g clip-path="url(#clip0_1073_620)">
<path d="M46.3326 28.1764V34.6632H42.5V13.5493H46.3326V14.5586C47.3984 13.8238 48.7534 13.335 50.1653 13.335C54.5159 13.335 57.7142 17.007 57.7142 21.3823C57.7142 25.727 54.5447 29.4297 50.1653 29.4297C48.6958 29.4307 47.3993 28.9408 46.3326 28.1764ZM46.3326 19.4554V23.1888C46.9957 24.6267 48.321 25.5759 49.877 25.5759C52.1248 25.5759 53.8825 23.7399 53.8825 21.3834C53.8825 18.9962 52.1536 17.1907 49.9057 17.1907C48.3498 17.1907 46.9957 18.0787 46.3326 19.4554Z" fill="#0C1825"/>
<path d="M59.7871 9.29293C59.7871 7.94677 60.7087 6.9364 61.9485 6.9364C63.1873 6.9364 64.1963 7.94578 64.1963 9.29293C64.1963 10.5778 63.1881 11.6495 61.9485 11.6495C60.7087 11.6484 59.7871 10.5778 59.7871 9.29293ZM60.0178 13.5487H63.908V29.1851H60.0178V13.5487Z" fill="#0C1825"/>
<path d="M66.2129 21.3217C66.2129 17.0067 69.3824 13.3662 73.7618 13.3662C75.2024 13.3662 76.5277 13.7642 77.6521 14.4062V13.5489H81.4558V28.2974C81.4558 32.3675 78.1422 34.57 73.9934 34.57C71.2852 34.57 68.6913 33.7137 66.9913 32.3053L68.576 29.3987C69.9878 30.408 71.9185 31.051 73.9934 31.051C76.6727 31.051 77.5089 29.9191 77.6242 28.0831C76.4719 28.8485 75.1466 29.3068 73.7627 29.3068C69.3535 29.3078 66.2129 25.8194 66.2129 21.3217ZM77.6521 23.0658V19.5775C76.989 18.1089 75.606 17.1291 74.0501 17.1291C71.8023 17.1291 70.0445 19.0264 70.0445 21.3217C70.0445 23.7395 71.7734 25.4224 74.0213 25.4224C75.6637 25.4214 76.9602 24.5345 77.6521 23.0658Z" fill="#0C1825"/>
<path d="M83.7578 21.3217C83.7578 17.0067 86.9273 13.3662 91.3071 13.3662C92.7472 13.3662 94.0725 13.7642 95.1974 14.4062V13.5489H99.0003V28.2974C99.0003 32.3675 95.6872 34.57 91.5387 34.57C88.8301 34.57 86.2363 33.7137 84.5362 32.3053L86.121 29.3987C87.5327 30.408 89.4635 31.051 91.5387 31.051C94.2177 31.051 95.054 29.9191 95.1689 28.0831C94.0164 28.8485 92.6911 29.3068 91.308 29.3068C86.8985 29.3078 83.7578 25.8194 83.7578 21.3217ZM95.1974 23.0658V19.5775C94.5338 18.1089 93.1507 17.1291 91.5948 17.1291C89.3468 17.1291 87.5895 19.0264 87.5895 21.3217C87.5895 23.7395 89.3183 25.4224 91.5663 25.4224C93.2086 25.4214 94.5053 24.5345 95.1974 23.0658Z" fill="#0C1825"/>
<path d="M104.588 13.5487L108.448 23.9832L112.425 13.5487H116.46L107.988 34.6626H104.386L106.519 29.0319L100.324 13.5487H104.588Z" fill="#0C1825"/>
<path d="M115.736 13.5487H119.856L123.602 24.1057L127.32 13.5487H131.354L125.448 29.1851H121.586L115.736 13.5487Z" fill="#0C1825"/>
<path d="M131.641 21.2607C131.641 16.8548 134.608 13.2134 139.247 13.2134C143.54 13.2134 146.796 16.6405 146.883 21.1382C146.912 21.5056 146.912 21.9037 146.883 22.3007H135.271C135.386 24.5042 137.374 25.9422 139.506 25.9422C141.264 25.9422 142.301 25.4217 143.512 24.351L145.615 26.7076C143.915 28.6049 142.215 29.4918 139.507 29.4918C134.522 29.4918 131.641 25.5442 131.641 21.2607ZM135.472 19.3941H142.906C142.531 17.9254 141.206 16.6405 139.189 16.6405C136.855 16.6405 135.876 17.8948 135.472 19.3941Z" fill="#0C1825"/>
<path d="M147.686 27.5022L149.559 24.2588C151.23 25.4212 153.218 26.1254 155.263 26.1254C157.194 26.1254 158.174 25.6049 158.174 24.718C158.174 24.1364 157.712 23.7087 156.733 23.4944L152.698 22.5769C149.73 21.9033 148.377 20.404 148.377 17.9566C148.377 15.3562 150.452 13.1833 154.745 13.1833C157.337 13.1833 159.643 13.9794 161.228 15.0193L159.469 18.1403C158.174 17.4055 156.445 16.6104 154.629 16.6104C152.987 16.6104 152.036 17.0391 152.036 17.8342C152.036 18.3546 152.382 18.6914 153.333 18.8742L156.733 19.5477C160.421 20.3131 161.833 22.0574 161.833 24.4129C161.833 27.8094 158.635 29.5842 155.148 29.5842C152.354 29.5832 150.106 28.9709 147.686 27.5022Z" fill="#0C1825"/>
<path d="M164.8 13.5489V9.23485L168.633 6.60376V13.5499H170.88V17.0995H168.632V29.1863H164.799V17.0985H162.609V13.5489H164.8Z" fill="#0C1825"/>
<path d="M32.9125 16.0635C32.8437 15.0611 32.7005 14.0803 32.454 13.1144C31.3594 8.8142 29.0539 5.44337 25.531 3.03153C23.2878 1.4829 20.8047 0.625625 18.1299 0.400442C17.0148 0.313528 15.9137 0.349084 14.8051 0.495256C13.6351 0.662168 12.4996 0.952537 11.3984 1.37426C6.54188 3.24881 2.80599 7.51248 1.41096 12.8013C1.10964 13.942 0.932012 15.1045 0.856677 16.2887C0.822267 16.899 0.822266 17.5095 0.822266 18.1198V32.9542C0.822266 33.7533 1.43143 34.4071 2.19032 34.4071H7.58722C8.29217 34.4071 8.87343 33.8333 8.94876 33.1063C8.94876 33.1063 8.94876 33.1063 8.94876 33.0994C8.98314 32.9612 9.00362 32.816 9.00362 32.6708V32.329C9.00362 32.3005 8.99712 32.2787 9.00362 32.2491V32.2273C9.05109 32.2343 9.07897 32.2639 9.10595 32.2787C11.151 33.4698 13.3338 34.1671 15.6598 34.3567C16.5768 34.4298 17.5003 34.4219 18.4303 34.3281C19.258 34.2412 20.0793 34.1029 20.893 33.8777C24.3889 32.897 27.2757 30.9138 29.5264 27.8916C31.4626 25.2911 32.5703 22.3193 32.8856 19.0216C32.9814 18.0319 32.9879 17.0512 32.9125 16.0635ZM19.7519 25.5429C19.7314 25.6516 19.6495 25.7247 19.5463 25.7247H14.2377C14.142 25.7247 14.0527 25.6516 14.0323 25.5429L14.0258 25.5064V25.296C14.0258 25.0274 14.0527 24.7805 14.1076 24.5256C14.142 24.4388 14.1625 24.337 14.1969 24.2422C14.2238 24.1475 14.2657 24.0605 14.2992 23.9656C14.3466 23.8788 14.3884 23.7908 14.4359 23.7118C14.4629 23.6684 14.4843 23.6318 14.5112 23.5884C14.5586 23.5084 14.621 23.4284 14.6758 23.3563C14.7372 23.2763 14.7986 23.2043 14.8609 23.1311C15.1752 22.8042 15.5658 22.5425 15.9965 22.3973C15.4077 22.0634 15.0115 21.3948 15.0115 20.6393C15.0115 19.5351 15.8532 18.6413 16.893 18.6344C17.4129 18.6344 17.8853 18.8664 18.2267 19.223C18.5688 19.5865 18.7809 20.0872 18.7809 20.6393C18.7809 21.3948 18.3773 22.0634 17.796 22.3973C18.9381 22.7973 19.7658 23.9371 19.7658 25.296C19.7649 25.376 19.7584 25.4639 19.7519 25.5429ZM28.9321 13.2231H4.85204C4.66045 13.2231 4.52374 13.0196 4.58512 12.8231C6.37076 7.44038 11.2068 3.57474 16.8921 3.57474C22.5773 3.57474 27.4134 7.4394 29.198 12.8231C29.2604 13.0196 29.1236 13.2231 28.9321 13.2231Z" fill="#0C1825"/>
</g>
<defs>
<clipPath id="clip0_1073_620">
<rect width="171" height="35" fill="white" transform="translate(0 0.0358887)"/>
</clipPath>
</defs>
</svg>
