<svg width="150" height="41" viewBox="0 0 150 41" fill="none" xmlns="http://www.w3.org/2000/svg">
<g clip-path="url(#clip0_1073_588)">
<path d="M51.4511 30.3021C51.4511 30.5968 51.4511 30.8123 51.4511 31.0279C51.4511 33.9634 51.4386 36.8991 51.4606 39.8346C51.4636 40.3773 51.335 40.5389 50.8546 40.5318C48.8861 40.5029 46.9207 40.5066 44.9522 40.5318C44.5157 40.5353 44.3525 40.4024 44.3555 39.8778C44.3682 29.8314 44.365 19.7814 44.365 9.735C44.365 9.40803 44.3147 9.0559 44.7732 9.0559C46.7951 9.06668 48.8169 9.06308 50.8389 9.06668C50.908 9.06668 50.9771 9.09902 51.1183 9.13495V11.2513C51.5296 10.8596 51.8278 10.5399 52.1543 10.2704C53.809 8.91217 55.699 8.59598 57.6644 8.71455C63.3535 9.06308 67.2247 14.3809 66.9923 21.1396C66.876 24.5314 65.8903 27.4708 63.6925 29.8134C60.8951 32.7921 55.9627 33.5323 52.842 31.4196C52.3836 31.1106 51.9691 30.7189 51.4543 30.2984L51.4511 30.3021ZM59.8528 20.6509C59.7962 20.0976 59.7649 19.5406 59.6739 18.9981C59.3409 17.0614 58.0004 15.5271 56.4149 15.2325C54.5028 14.8803 52.8263 15.7068 51.9628 17.5681C51.1309 19.3609 51.1246 21.2761 51.718 23.1518C52.7133 26.2958 56.4305 27.2048 58.5059 24.8478C59.5199 23.6943 59.8182 22.2354 59.8528 20.6509Z" fill="#22428F"/>
<path d="M132.633 29.9464C132.633 30.5249 132.633 30.9956 132.633 31.4663C132.633 34.2581 132.62 37.0464 132.642 39.8383C132.645 40.3844 132.504 40.5461 132.03 40.5354C130.551 40.5031 129.07 40.5246 127.591 40.5246C126.818 40.5246 126.818 40.5246 126.818 39.6551C126.818 30.5393 126.818 21.4199 126.818 12.3041C126.818 11.4562 126.822 10.6082 126.818 9.76023C126.818 9.45481 126.866 9.24999 127.202 9.25359C128.897 9.26436 130.592 9.25718 132.357 9.25718V11.643C132.476 11.6215 132.542 11.6322 132.57 11.5999C134.41 9.38294 136.752 8.73259 139.292 8.93021C142.887 9.21048 145.699 11.0573 147.456 14.7475C149.509 19.0664 149.342 26.9174 144.504 30.5501C141.229 33.0078 137.751 33.3706 134.2 31.2651C133.666 30.9489 133.217 30.4423 132.636 29.9464H132.633ZM132.539 20.7444C132.598 21.3373 132.611 21.9446 132.724 22.5229C133.16 24.7616 134.278 26.3424 136.272 26.8814C138.331 27.4419 140.193 26.9821 141.584 25.0059C142.727 23.3854 142.922 21.4738 142.677 19.4939C142.086 14.6864 137.754 13.1881 134.862 15.308C133.151 16.562 132.561 18.5023 132.539 20.7444Z" fill="#22428F"/>
<path d="M96.3124 32.1849H90.4978C90.4883 31.9297 90.4696 31.7071 90.4696 31.4879C90.4696 21.4379 90.4726 11.3879 90.457 1.3379C90.457 0.716284 90.5888 0.522251 91.1446 0.536623C92.6422 0.579741 94.143 0.550999 95.6405 0.550999H96.2872V11.5855C96.5352 11.3591 96.686 11.2298 96.8304 11.0896C99.7848 8.25826 105.107 8.15766 108.095 10.8741C109.951 12.5592 110.836 14.8552 110.905 17.4602C111.031 22.2319 110.984 27.0107 111.006 31.7861C111.006 31.9046 110.974 32.0269 110.956 32.1814H105.185C105.185 31.9119 105.185 31.6531 105.185 31.3944C105.185 27.7151 105.204 24.0321 105.169 20.3527C105.16 19.4329 105.066 18.4879 104.855 17.6004C104.441 15.8685 103.188 14.8121 101.625 14.7187C98.3249 14.5139 96.3407 16.677 96.3155 20.5576C96.2935 24.1759 96.3092 27.7941 96.3092 31.4124C96.3092 31.6567 96.3092 31.8974 96.3092 32.1849H96.3124Z" fill="#22428F"/>
<path d="M29.7075 32.6774C27.2618 32.6306 24.9666 32.0019 22.9102 30.4676C19.6952 28.0674 18.16 24.6107 18.2887 20.2379C18.43 15.3045 20.5555 11.7976 24.4863 9.88251C28.235 8.05719 32.0527 8.16141 35.6854 10.3209C39.4686 12.5666 41.1985 16.2891 41.0698 21.1362C40.9223 26.8241 37.4466 31.2724 32.3353 32.3252C31.4688 32.5049 30.5835 32.5587 29.7075 32.6737V32.6774ZM33.9522 20.6152C33.8989 20.0834 33.8707 19.5444 33.7827 19.0199C33.453 17.0508 32.1595 15.5525 30.5458 15.2363C28.6808 14.8698 27.0168 15.6567 26.1158 17.4101C25.3434 18.9121 25.3214 20.5612 25.5757 22.2214C25.8959 24.3054 27.1833 25.7497 28.9823 26.1019C30.753 26.4469 32.4358 25.5594 33.3024 23.7879C33.7796 22.8106 33.9302 21.7327 33.9554 20.6152H33.9522Z" fill="#22428F"/>
<path d="M15.674 25.6777C16.2203 27.4492 16.776 29.2133 17.291 30.9955C17.3287 31.1322 17.1089 31.4987 16.955 31.5525C15.9095 31.9153 14.8608 32.3538 13.7871 32.519C12.2267 32.7598 10.6506 32.6448 9.12478 32.1058C6.2112 31.0818 4.45301 28.581 4.33371 25.0957C4.23952 22.329 4.25522 19.5587 4.25836 16.7883C4.25836 16.1775 4.13277 15.9296 3.56765 15.9835C2.97739 16.041 2.37773 15.9835 1.78119 16.0014C1.44212 16.0122 1.29769 15.89 1.30083 15.4732C1.31653 13.7988 1.31339 12.1244 1.30083 10.45C1.30083 10.0512 1.417 9.89311 1.77177 9.90389C2.42168 9.92546 3.07159 9.88593 3.72149 9.91468C4.12022 9.93264 4.25836 9.78173 4.25209 9.31461C4.23324 7.78394 4.24266 6.25686 4.24581 4.72619C4.24581 4.48186 4.26464 4.24113 4.27721 3.95728H11.3351V9.85359C11.58 9.87514 11.7684 9.90389 11.9567 9.90389C13.1309 9.90749 14.3052 9.92186 15.4763 9.90029C15.8782 9.89311 16.01 10.0476 16.0068 10.5075C15.988 12.1388 15.988 13.7737 16.0068 15.405C16.0132 15.8757 15.8687 16.0086 15.473 16.0014C14.2832 15.9799 13.0901 16.0122 11.9002 15.9835C11.4764 15.9727 11.3445 16.1272 11.3476 16.6159C11.3665 18.9118 11.3539 21.2043 11.3571 23.5003C11.3633 25.6885 12.4936 26.7162 14.3617 26.2058C14.7761 26.091 15.1717 25.879 15.6647 25.6742L15.674 25.6777Z" fill="#22428F"/>
<path d="M70.6864 25.3147C72.0459 26.2274 73.4368 26.8419 74.9124 27.1795C76.5168 27.546 78.1305 27.6897 79.7443 27.2585C80.0207 27.1832 80.2937 27.0539 80.5482 26.9029C81.0944 26.5759 81.3769 26.0405 81.3362 25.3327C81.2984 24.65 80.9029 24.226 80.3722 24.0572C79.5402 23.7912 78.6895 23.6044 77.8448 23.4032C76.275 23.0295 74.6738 22.7815 73.1416 22.2714C71.3741 21.6857 69.9519 20.5035 69.4432 18.3117C68.674 14.9881 69.8797 11.9555 72.5577 10.3458C74.0616 9.4439 75.6753 9.05583 77.3425 8.93727C80.0992 8.74683 82.7772 9.19956 85.3486 10.3853C85.5809 10.4931 85.8038 10.6368 86.0268 10.7698C86.0863 10.8057 86.1366 10.874 86.2246 10.9602C85.5934 12.5052 84.9624 14.0467 84.3439 15.5558C83.4051 15.1606 82.5449 14.7366 81.6532 14.4347C80.1305 13.9209 78.5607 13.7844 76.994 14.1078C76.4571 14.2192 75.9265 14.4779 75.4461 14.7833C74.9596 15.0959 74.7491 15.6564 74.8308 16.3211C74.9093 16.9751 75.2703 17.3955 75.7853 17.5392C77.1698 17.9165 78.57 18.2039 79.9547 18.574C81.2325 18.9154 82.5544 19.174 83.7631 19.731C87.9513 21.6605 87.6028 27.6107 84.9781 30.0577C83.4366 31.4949 81.6375 32.1669 79.7097 32.4147C76.3473 32.8495 73.0851 32.404 69.9612 30.8482C68.6834 30.2122 68.6865 30.205 69.258 28.8037C69.7227 27.6647 70.1904 26.5255 70.6864 25.3075V25.3147Z" fill="#22428F"/>
<path d="M120.746 32.1923H116.064V9.44055H120.746V32.1923Z" fill="#22428F"/>
<path d="M120.749 2.93691C120.046 3.39684 117.889 4.91674 117.136 5.40541C116.731 4.76222 116.335 4.13702 115.924 3.49386C117.88 2.99801 119.77 2.51652 121.77 2.00989C120.969 3.96814 120.203 5.84016 119.384 7.84512L118.68 6.80672L118.068 7.84512L118.024 6.22822L120.753 2.94051L120.749 2.93691Z" fill="#22428F"/>
</g>
<defs>
<clipPath id="clip0_1073_588">
<rect width="150" height="40" fill="white" transform="translate(0 0.535889)"/>
</clipPath>
</defs>
</svg>
