<svg width="167" height="167" viewBox="0 0 167 167" fill="none" xmlns="http://www.w3.org/2000/svg">
<path d="M83.4976 165.16C128.598 165.16 165.159 128.599 165.159 83.4986C165.159 38.3981 128.598 1.83691 83.4976 1.83691C38.3971 1.83691 1.83594 38.3981 1.83594 83.4986C1.83594 128.599 38.3971 165.16 83.4976 165.16Z" fill="#FF3333"/>
<path d="M83.4982 167C37.4548 167 0 129.542 0 83.5018C0 37.4621 37.4548 0 83.4982 0C129.542 0 166.996 37.4585 166.996 83.4982C166.996 129.538 129.538 166.996 83.4982 166.996V167ZM83.4982 3.67304C39.4833 3.67304 3.67304 39.4833 3.67304 83.4982C3.67304 127.513 39.4833 163.323 83.4982 163.323C127.513 163.323 163.323 127.513 163.323 83.4982C163.323 39.4833 127.513 3.67304 83.4982 3.67304Z" fill="white"/>
<path d="M17.3325 98.0231L16.0176 91.9593C18.1294 91.5065 26.6962 89.5613 41.7107 86.1201C42.5692 89.8221 43.0582 91.9086 43.1814 92.3795C43.9638 95.444 43.5581 98.2078 41.957 100.675C40.8269 102.276 39.2439 103.337 37.1973 103.859C35.6723 104.25 34.2053 104.25 32.7926 103.87C31.3835 103.486 30.1338 102.855 29.0435 101.975C27.1707 100.537 25.8594 98.6425 25.106 96.2952C22.0198 96.998 19.4298 97.5739 17.3325 98.0231ZM31.1516 94.9079C31.5066 95.7519 32.0609 96.4727 32.8179 97.074C33.8322 97.7985 34.7051 98.0702 35.4332 97.8818C36.1613 97.6971 36.6612 97.4218 36.9329 97.0595C37.1393 96.7806 37.2661 96.3351 37.3168 95.7193C37.3676 95.1035 37.2842 94.379 37.0741 93.5531L31.148 94.9115L31.1516 94.9079Z" fill="#2B2222"/>
<path d="M34.0605 132.244L31.0974 126.785L31.9813 126.285L31.3727 125.55C28.8552 122.333 27.9786 119.334 28.7357 116.552C29.0798 115.389 29.7282 114.426 30.6809 113.658C31.7603 112.814 32.9014 112.408 34.104 112.448C36.3498 112.52 38.5631 113.466 40.7509 115.281C41.9282 116.186 42.9388 117.128 43.7864 118.102C44.337 117.584 44.8297 117.074 45.2607 116.566C46.2424 115.349 46.7568 114.484 46.7966 113.962C46.9306 113.238 46.7423 112.549 46.2279 111.89C45.2462 110.637 44.0581 110.557 42.6635 111.651C42.2289 111.991 41.7471 112.546 41.2255 113.317L36.0926 109.811C36.9656 108.532 37.9219 107.489 38.9615 106.674C39.8309 105.993 40.7546 105.475 41.729 105.116C43.9712 104.424 46.0359 104.551 47.9231 105.497C49.1801 106.127 50.2342 106.982 51.0782 108.065C51.4078 108.485 51.8787 109.267 52.4909 110.401C53.1031 111.539 53.2371 113.122 52.893 115.154C52.4547 117.092 51.4803 118.917 49.9698 120.627C48.5607 122.196 47.0791 123.59 45.5252 124.807C41.8195 127.705 37.998 130.183 34.0641 132.244H34.0605ZM36.2991 121.822C36.607 122.217 36.9584 122.623 37.3496 123.043C37.8929 122.703 38.4218 122.351 38.947 121.985C38.871 121.917 38.7985 121.837 38.7261 121.743C38.2153 121.228 37.6285 120.707 36.9656 120.185C36.0311 119.45 35.274 118.99 34.7017 118.798C34.8683 119.664 35.4008 120.671 36.2991 121.819V121.822Z" fill="#2B2222"/>
<path d="M45.6523 141.201C47.0614 138.386 48.9305 134.691 51.2633 130.109C53.6541 125.411 55.8166 121.129 57.7509 117.268L63.2967 120.046L62.3295 121.977C63.5032 122.024 64.579 122.289 65.5534 122.778C66.3757 123.191 67.1074 123.788 67.7413 124.574C68.5201 125.599 68.962 126.73 69.0743 127.965C69.2228 129.725 68.828 131.54 67.8934 133.409C66.9045 135.383 65.3071 137.43 63.1047 139.549L58.7941 135.09C60.493 133.413 61.6811 131.902 62.3585 130.555C62.8439 129.584 63.0069 128.849 62.8439 128.356L62.7533 128.313C61.826 127.849 60.3952 128.313 58.4645 129.703C56.6968 133.123 54.7734 136.908 52.6978 141.052L51.2343 143.972L45.656 141.204L45.6523 141.201Z" fill="#2B2222"/>
<path d="M87.7291 153.332L81.669 151.97L81.8754 150.974L80.9228 150.945C76.844 150.72 74.0077 149.409 72.4139 147.007C71.7655 145.982 71.4685 144.859 71.5192 143.639C71.5953 142.269 72.0408 141.143 72.8595 140.266C74.3917 138.625 76.5615 137.578 79.3688 137.129C80.825 136.839 82.2014 136.698 83.491 136.702C83.4656 135.945 83.4041 135.238 83.3063 134.579C83.0382 133.04 82.7231 132.083 82.3572 131.71C81.9008 131.131 81.256 130.819 80.4229 130.776C78.8363 130.689 77.9923 131.533 77.8945 133.304C77.8655 133.855 77.967 134.583 78.2024 135.485L72.1821 137.042C71.7945 135.546 71.6388 134.137 71.7112 132.815C71.7728 131.71 71.9865 130.678 72.3596 129.707C73.3159 127.563 74.7721 126.092 76.7245 125.295C78.0285 124.763 79.3652 124.534 80.7344 124.61C81.2705 124.639 82.1652 124.799 83.4258 125.085C84.6827 125.371 85.965 126.313 87.2691 127.91C88.4391 129.519 89.1708 131.453 89.4642 133.713C89.7178 135.807 89.7902 137.839 89.6816 139.81C89.4244 144.508 88.776 149.014 87.7327 153.332H87.7291ZM81.3574 144.783C81.8573 144.812 82.3934 144.816 82.9658 144.798C83.0672 144.167 83.1505 143.533 83.2193 142.9C83.1179 142.91 83.0092 142.914 82.8933 142.907C82.1688 142.95 81.3937 143.052 80.5642 143.207C79.3941 143.428 78.5501 143.693 78.0322 144.001C78.7965 144.446 79.9049 144.707 81.3574 144.787V144.783Z" fill="#2B2222"/>
<path d="M111.364 148.442C111.067 148 110.774 147.54 110.484 147.058C107.267 148.257 104.337 148.311 101.693 147.21C99.1172 146.066 97.3314 144.196 96.3353 141.603C96.2085 141.273 96.0999 140.94 96.0021 140.599C95.4551 138.39 95.5311 136.485 96.2266 134.891C97.2771 132.496 99.1788 130.768 101.928 129.711C102.131 129.631 102.642 129.464 103.457 129.204C102.703 126.874 101.91 124.371 101.081 121.698L107.014 119.847C109.448 127.718 111.426 133.619 112.94 137.557C114.262 140.994 115.429 143.425 116.443 144.845L111.368 148.438L111.364 148.442ZM107.785 141.451C107.507 140.77 107.22 140.052 106.934 139.303C106.434 138.006 105.931 136.604 105.424 135.094C104.993 135.188 104.569 135.314 104.145 135.477C103.051 135.898 102.334 136.452 101.986 137.14C101.714 137.694 101.758 138.43 102.109 139.353C102.493 140.353 103.174 141.07 104.145 141.501C105.116 141.932 106.329 141.918 107.782 141.447L107.785 141.451Z" fill="#2B2222"/>
<path d="M115.035 121.108C115.009 121.13 114.806 121.293 114.426 121.593C114.046 121.898 113.361 122.003 112.372 121.908C111.445 121.764 110.706 121.354 110.152 120.684C110.13 120.659 109.967 120.456 109.666 120.076C109.362 119.695 109.264 119.018 109.366 118.04C109.5 117.102 109.909 116.348 110.594 115.783C110.619 115.761 110.826 115.602 111.21 115.305C111.593 115.008 112.274 114.899 113.256 114.979C114.18 115.124 114.922 115.533 115.477 116.203C115.498 116.229 115.661 116.431 115.962 116.812C116.266 117.192 116.371 117.877 116.277 118.866C116.132 119.793 115.716 120.536 115.035 121.104V121.108ZM129.415 135.507L124.493 139.328C120.044 133.623 116.129 128.476 112.738 123.893L117.737 120.206C121.03 124.651 124.924 129.751 129.412 135.51L129.415 135.507Z" fill="#2B2222"/>
<path d="M139.593 123.746C138.42 125.499 136.996 127.042 135.33 128.386L131.45 123.576C132.631 122.594 133.635 121.493 134.457 120.268C135.873 118.157 136.123 116.791 135.207 116.175C134.653 115.802 133.222 116.204 130.922 117.382C129.4 118.117 128.017 118.66 126.774 119.012C124.55 119.656 122.485 119.381 120.587 118.186C118.635 116.856 117.537 115.121 117.291 112.98C117.045 110.84 117.773 108.496 119.482 105.953C120.536 104.381 121.924 102.823 123.648 101.28L127.792 105.877C126.459 107.08 125.376 108.308 124.535 109.557C124.304 109.905 124.086 110.256 123.891 110.608C123.503 111.455 123.344 112.006 123.42 112.256C123.387 112.455 123.601 112.709 124.057 113.017C124.318 113.172 124.72 113.169 125.271 113.017C125.966 112.821 127.144 112.328 128.799 111.542C130.65 110.648 132.32 110.097 133.812 109.887C135.616 109.666 137.232 110.035 138.663 110.995C139.123 111.303 139.572 111.687 140.01 112.14C141.329 113.629 141.984 115.27 141.973 117.056C141.919 118.733 141.531 120.254 140.811 121.627C140.452 122.373 140.046 123.079 139.601 123.746H139.593Z" fill="#2B2222"/>
<path d="M150.859 95.19C150.696 96.2333 150.366 97.2294 149.877 98.1857C148.754 100.247 147.041 101.703 144.737 102.558C142.611 103.358 140.133 103.532 137.308 103.087C134.58 102.656 132.222 101.587 130.237 99.8846C128.476 98.3704 127.227 96.639 126.48 94.6902C125.861 93.1362 125.673 91.5967 125.912 90.0753C126.002 89.4957 126.162 88.9198 126.39 88.3475C127.422 86.1052 129.237 84.6527 131.831 83.9971C132.838 83.7507 133.794 83.6964 134.703 83.8413C134.902 83.8739 135.312 83.9608 135.931 84.113C136.551 84.2615 137.286 84.6672 138.13 85.3265C139.702 86.6414 140.832 88.1772 141.52 89.9304C142.524 92.2741 142.995 94.4945 142.933 96.5846L142.962 96.5629C143.987 96.0811 144.574 95.3603 144.726 94.4004C144.813 93.8534 144.751 93.0673 144.541 92.0314C144.331 90.999 143.48 89.5827 141.984 87.7896L146.693 83.729C148.765 86.1596 150.094 88.63 150.681 91.1475C151 92.553 151.058 93.9005 150.855 95.19H150.859ZM136.768 96.5231C136.779 95.2697 136.478 93.9005 135.866 92.4153C135.156 90.9121 134.46 90.1079 133.783 90.0029C133.453 89.9522 133.048 90.0463 132.566 90.2927C132.283 90.4701 132.131 90.6295 132.106 90.778C132.066 90.8215 132.037 90.894 132.023 90.9954C131.957 91.4083 132.033 91.8937 132.251 92.4552C132.95 94.2591 134.45 95.6428 136.757 96.5991L136.768 96.5267V96.5231Z" fill="#2B2222"/>
<path d="M42.4999 75.6268C42.1884 77.054 41.4132 78.224 40.1635 79.1296C38.8015 79.9809 37.3635 80.238 35.8421 79.9084C34.4765 79.6114 33.3536 78.8435 32.477 77.6046C31.6221 76.2752 31.3613 74.8335 31.6982 73.2832C31.9952 71.9176 32.7885 70.791 34.078 69.9108C35.3676 69.0306 36.7694 68.7553 38.2908 69.0849C39.6564 69.3819 40.7793 70.1499 41.6559 71.3887C42.5108 72.7181 42.7933 74.1344 42.4999 75.6268Z" fill="#2B2222"/>
<path d="M45.3658 64.2058L42.2868 69.5886C41.1277 68.9511 39.7838 68.2375 38.2479 67.4442C36.5816 66.6147 34.9262 65.7344 33.2817 64.8035C31.9414 64.0428 30.6048 63.2495 29.2682 62.4128C26.747 60.7537 24.8344 59.0838 23.534 57.4031C22.7588 56.4251 22.2191 55.2732 21.9148 53.9474C21.5925 52.3427 21.8496 50.8032 22.6828 49.3325C23.3529 48.1517 24.2947 47.2533 25.5118 46.6339C26.7289 46.0145 28.1416 45.7464 29.7463 45.8298C31.8617 45.971 34.1257 46.7245 36.5454 48.0937C37.5778 48.6805 38.6464 49.3796 39.7439 50.1947L35.9984 55.1717C35.0675 54.4726 34.2163 53.9039 33.4447 53.4656C31.3764 52.292 29.7753 51.8283 28.6379 52.0674C28.3336 52.1254 28.138 52.2377 28.0474 52.397L28.004 52.5745C27.9714 52.7665 28.1416 53.1324 28.5075 53.6685C29.6232 55.1645 32.166 57.0408 36.1433 59.2939C37.8929 56.2077 38.842 54.5523 38.9869 54.3241L44.337 57.4139C43.9168 58.1565 43.5474 58.7941 43.225 59.3229L41.6022 62.1845C42.9895 62.8945 44.2429 63.5647 45.3658 64.2022V64.2058Z" fill="#2B2222"/>
<path d="M54.1819 51.0706C52.2259 52.7767 49.9076 53.4142 47.2198 52.9832C45.7999 52.7586 44.4488 52.2804 43.1701 51.5524C41.4676 50.5961 39.9824 49.3898 38.7146 47.9409C37.128 46.1261 36.0196 44.0288 35.3857 41.6489C35.009 40.1746 34.9764 38.6714 35.2807 37.1391C35.6574 35.2555 36.6571 33.6037 38.2836 32.1802C40.5294 30.2205 43.0868 29.4634 45.9629 29.9053C48.9803 30.3835 51.6572 31.9556 53.99 34.6289C55.5874 36.4581 56.6813 38.5881 57.2754 41.0259C57.989 44.1845 57.4131 47.0389 55.5584 49.5927C55.1165 50.1578 54.6565 50.6468 54.1783 51.067L54.1819 51.0706ZM50.1575 46.3869C51.2406 45.4415 51.592 44.1121 51.2116 42.4024C50.9219 41.0766 50.2698 39.8341 49.2556 38.675C47.8175 37.1319 46.4121 36.2589 45.0356 36.0597C44.1119 35.8677 43.2063 36.1575 42.3261 36.9254C41.3915 37.7404 41.0872 38.8308 41.4096 40.1927C41.7175 41.4352 42.3949 42.6559 43.4381 43.8549C45.0972 45.6262 46.6801 46.6369 48.1798 46.8796C48.9404 47.0389 49.5961 46.8759 50.1539 46.3905L50.1575 46.3869Z" fill="#2B2222"/>
<path d="M68.0019 42.4502C65.564 43.334 63.1697 43.0913 60.8188 41.7148C59.5763 40.9904 58.4896 40.0558 57.5623 38.9148C56.3199 37.4079 55.3708 35.7489 54.7152 33.9377C53.8929 31.6701 53.6176 29.3156 53.8893 26.8669C54.074 25.3601 54.5848 23.9437 55.4215 22.6252C56.4539 21.006 57.9861 19.8251 60.0146 19.0898C62.8147 18.0756 65.4771 18.2929 67.9982 19.7491C70.6389 21.2849 72.5624 23.7228 73.7722 27.0589C74.5981 29.341 74.8481 31.7245 74.5221 34.213C74.0439 37.4151 72.4754 39.8675 69.8203 41.5808C69.2045 41.9467 68.5996 42.2365 68.0019 42.4538V42.4502ZM65.9444 36.6255C67.2991 36.1365 68.1069 35.0244 68.3677 33.2893C68.5778 31.9491 68.4184 30.5545 67.8932 29.1092C67.1108 27.1495 66.1146 25.8273 64.9084 25.1427C64.1151 24.6283 63.1697 24.5704 62.0685 24.9688C60.9021 25.3927 60.2247 26.2946 60.0328 27.682C59.8697 28.9534 60.0581 30.3335 60.6015 31.8295C61.507 34.0826 62.6155 35.5967 63.9268 36.3647C64.5788 36.7885 65.2489 36.8718 65.9444 36.6219V36.6255Z" fill="#2B2222"/>
<path d="M86.3406 42.3125C86.2247 41.7945 86.116 41.2584 86.0182 40.7042C82.5879 40.6608 79.8349 39.6501 77.7666 37.6687C75.7815 35.6728 74.789 33.2821 74.7999 30.5038C74.7999 30.1524 74.818 29.801 74.8542 29.4497C75.144 27.1893 75.9047 25.4434 77.129 24.2082C78.9764 22.3535 81.3708 21.4335 84.3194 21.4407C84.5367 21.4407 85.0728 21.4697 85.9277 21.5204C86.0689 19.0753 86.2356 16.4564 86.4276 13.6636L92.629 14.0838C92.053 22.3028 91.7596 28.5187 91.7488 32.7387C91.7379 36.4226 91.948 39.1104 92.379 40.802L86.3479 42.3162L86.3406 42.3125ZM85.5328 34.5028C85.5183 33.7675 85.5111 32.9959 85.5147 32.1918C85.5184 30.8008 85.5546 29.312 85.627 27.7218C85.1923 27.653 84.7468 27.6204 84.2976 27.6168C83.124 27.6168 82.2546 27.8703 81.6823 28.3883C81.2295 28.8049 81.0013 29.5076 80.9977 30.4965C80.9977 31.5687 81.3672 32.4816 82.1206 33.235C82.8741 33.9884 84.0078 34.4123 85.5328 34.4992V34.5028Z" fill="#2B2222"/>
<path d="M97.1351 42.8778L91.1836 41.0376C93.3063 34.1226 95.2768 27.961 97.088 22.5565L102.974 24.5379C101.221 29.7867 99.2759 35.9012 97.1351 42.8814V42.8778ZM100.681 22.8391C100.649 22.8318 100.399 22.7594 99.9351 22.6217C99.4678 22.4841 98.9897 21.9842 98.4971 21.1221C98.0841 20.2817 97.9936 19.4413 98.2254 18.601C98.2326 18.5684 98.3051 18.3184 98.4427 17.8548C98.5804 17.3875 99.0766 16.9166 99.9388 16.4421C100.786 16.0146 101.634 15.9168 102.492 16.1523C102.525 16.1595 102.771 16.2392 103.235 16.3805C103.699 16.5254 104.18 17.0216 104.677 17.8692C105.086 18.7096 105.177 19.5536 104.948 20.3904C104.941 20.423 104.865 20.6729 104.731 21.1366C104.593 21.6039 104.094 22.082 103.231 22.5746C102.391 22.984 101.54 23.0745 100.685 22.8391H100.681Z" fill="#2B2222"/>
<path d="M105.943 45.5902C105.041 45.0469 104.237 44.3695 103.534 43.5545C102.045 41.7397 101.339 39.6061 101.411 37.1466C101.469 34.8754 102.237 32.5136 103.711 30.0613C105.135 27.6959 107.011 25.9138 109.337 24.7148C111.402 23.6534 113.477 23.1427 115.56 23.1862C117.234 23.197 118.73 23.5991 120.048 24.396C120.552 24.6967 121.026 25.0625 121.472 25.4863C123.163 27.2866 123.826 29.5107 123.46 32.1623C123.312 33.1874 123 34.093 122.526 34.8826C122.421 35.0565 122.185 35.4006 121.812 35.9186C121.443 36.4366 120.791 36.9655 119.863 37.5016C118.052 38.4615 116.205 38.9324 114.325 38.9143C111.775 38.9614 109.543 38.5665 107.627 37.7225L107.634 37.7588C107.696 38.8889 108.142 39.7076 108.975 40.2075C109.449 40.4936 110.203 40.7327 111.239 40.9247C112.275 41.1203 113.905 40.8595 116.132 40.1495L118.125 46.0394C115.093 47.0464 112.304 47.3507 109.754 46.9486C108.33 46.7168 107.059 46.264 105.939 45.5902H105.943ZM110.003 32.0319C111.159 32.5136 112.543 32.7491 114.147 32.7382C115.806 32.644 116.813 32.3035 117.168 31.7131C117.342 31.4269 117.404 31.014 117.357 30.4779C117.299 30.1519 117.208 29.949 117.078 29.8693C117.053 29.815 116.998 29.7607 116.911 29.71C116.553 29.4926 116.074 29.3803 115.473 29.3731C113.539 29.3405 111.695 30.2135 109.938 31.992L110.003 32.0319Z" fill="#2B2222"/>
<path d="M129.487 43.3156L125.817 38.3168C127.328 37.2084 130.041 35.1328 133.957 32.0864L137.786 37.0019C133.797 40.0918 131.03 42.1963 129.483 43.3193L129.487 43.3156Z" fill="#2B2222"/>
<path d="M120.311 59.9494C119.257 58.1201 118.497 56.1641 118.029 54.0776L124.057 52.7192C124.415 54.2116 124.962 55.599 125.698 56.874C126.969 59.08 128.081 59.9059 129.038 59.3553C129.617 59.0221 129.889 57.5623 129.849 54.9759C129.863 53.2879 129.983 51.8064 130.218 50.535C130.624 48.2529 131.78 46.5251 133.692 45.3478C135.746 44.185 137.789 43.9641 139.818 44.6885C141.846 45.413 143.628 47.101 145.157 49.7562C146.102 51.3935 146.885 53.3278 147.511 55.5555L141.56 57.2471C141.067 55.5193 140.448 54.0052 139.694 52.7011C139.484 52.3389 139.267 51.9911 139.035 51.6615C138.445 50.937 138.021 50.5567 137.764 50.5096C137.601 50.3937 137.278 50.4698 136.8 50.7451C136.547 50.9081 136.369 51.2739 136.268 51.8354C136.137 52.549 136.058 53.8204 136.032 55.6497C136.018 57.7035 135.775 59.4495 135.304 60.8767C134.706 62.5901 133.663 63.8796 132.167 64.7417C131.689 65.017 131.146 65.2525 130.544 65.4444C128.625 65.9697 126.868 65.832 125.267 65.0351C123.789 64.2455 122.59 63.224 121.677 61.9743C121.166 61.3222 120.71 60.6485 120.308 59.9494H120.311Z" fill="#2B2222"/>
<path d="M124.978 72.2978C124.619 70.8814 124.793 69.4905 125.507 68.1212C126.347 66.752 127.517 65.879 129.024 65.495C130.379 65.1509 131.726 65.3393 133.063 66.0565C134.425 66.8643 135.298 68.0379 135.689 69.5738C136.033 70.9285 135.827 72.2905 135.066 73.6525C134.305 75.0145 133.171 75.8911 131.665 76.2715C130.31 76.6156 128.962 76.4272 127.626 75.71C126.264 74.8986 125.383 73.7612 124.978 72.2941V72.2978Z" fill="#2B2222"/>
<path d="M114.514 83.6729C114.514 88.7985 108.946 92.4752 106.552 96.6119C104.081 100.883 103.596 107.515 99.329 109.985C95.1887 112.38 89.2589 109.551 84.1334 109.551C79.0078 109.551 73.078 112.38 68.9377 109.985C64.667 107.515 64.1816 100.883 61.7148 96.6119C59.3204 92.4752 53.7529 88.7949 53.7529 83.6729C53.7529 78.551 59.3204 74.8707 61.7148 70.7304C64.1852 66.4596 64.6706 59.8272 68.9377 57.3567C73.0744 54.9588 79.0078 57.7914 84.1334 57.7914C89.2589 57.7914 95.1887 54.9624 99.329 57.3567C103.6 59.8272 104.085 66.4596 106.556 70.7304C108.95 74.8671 114.517 78.5473 114.517 83.6729H114.514Z" fill="white"/>
<path d="M95.2306 112.423C93.3542 112.423 91.4054 112.061 89.4892 111.709C87.678 111.376 85.8053 111.028 84.1282 111.028C82.451 111.028 80.5783 111.376 78.7671 111.709C75.1158 112.383 71.3413 113.082 68.1972 111.264C64.9479 109.384 63.6656 105.711 62.4268 102.161C61.811 100.393 61.2278 98.7232 60.4345 97.354C59.6847 96.0572 58.5582 94.7713 57.3628 93.4093C54.9757 90.6853 52.2734 87.5955 52.2734 83.6797C52.2734 79.764 54.9793 76.6742 57.3628 73.9502C58.5545 72.5882 59.6847 71.2986 60.4345 70.0018C61.2278 68.6326 61.811 66.9627 62.4268 65.195C63.6656 61.6451 64.9443 57.9721 68.1972 56.0921C71.3413 54.2701 75.1158 54.9692 78.7671 55.6466C80.5783 55.9798 82.451 56.3276 84.1282 56.3276C85.8053 56.3276 87.678 55.9798 89.4892 55.6466C93.1405 54.9692 96.915 54.2737 100.059 56.0921C103.308 57.9721 104.591 61.6451 105.829 65.195C106.445 66.9627 107.028 68.6326 107.822 70.0018C108.572 71.2986 109.698 72.5846 110.894 73.9502C113.281 76.6742 115.983 79.764 115.983 83.6797C115.983 87.5955 113.277 90.6853 110.894 93.4093C109.702 94.7713 108.575 96.0572 107.822 97.354C107.028 98.7232 106.445 100.393 105.829 102.161C104.591 105.711 103.312 109.384 100.063 111.264C98.5667 112.129 96.9331 112.423 95.2342 112.423H95.2306ZM84.1282 108.087C86.077 108.087 88.0837 108.456 90.0253 108.819C93.2963 109.424 96.3825 109.996 98.5885 108.721C100.896 107.388 101.943 104.378 103.055 101.194C103.689 99.3753 104.344 97.4917 105.279 95.8797C106.174 94.333 107.449 92.8768 108.68 91.4713C110.922 88.9104 113.042 86.487 113.042 83.6761C113.042 80.8652 110.922 78.4419 108.68 75.8809C107.449 74.4718 106.17 73.0156 105.279 71.4689C104.348 69.8569 103.689 67.977 103.055 66.1585C101.943 62.9745 100.896 59.968 98.5885 58.6314C96.3861 57.3563 93.2963 57.9286 90.0253 58.5299C88.0837 58.8885 86.077 59.2616 84.1282 59.2616C82.1793 59.2616 80.1726 58.8922 78.231 58.5299C74.9601 57.925 71.8702 57.3527 69.6678 58.6314C67.3604 59.9644 66.3136 62.9745 65.2015 66.1585C64.5676 67.977 63.912 69.8569 62.9774 71.4689C62.0827 73.0156 60.8076 74.4718 59.5724 75.8809C57.3302 78.4419 55.2111 80.8616 55.2111 83.6761C55.2111 86.4907 57.3302 88.9067 59.5724 91.4713C60.8076 92.8804 62.0827 94.3366 62.9738 95.8797C63.9047 97.4917 64.5604 99.3716 65.1979 101.19C66.3099 104.374 67.3568 107.384 69.6642 108.717C71.8702 109.992 74.9564 109.42 78.2274 108.815C80.169 108.456 82.1757 108.083 84.1245 108.083L84.1282 108.087Z" fill="#231F20"/>
<path d="M100.639 79.2468C100.114 79.1237 99.6646 79.4134 99.5197 79.9677C99.4907 80.0763 99.469 80.1814 99.4437 80.29C99.1213 81.71 98.6576 83.0829 97.9585 84.4883C97.8209 84.1188 97.7194 83.8363 97.6144 83.5538C96.669 81.0362 94.021 79.7865 91.5397 80.6885C89.0983 81.576 87.8703 84.2601 88.765 86.7704C89.149 87.8535 89.5475 88.9293 89.9532 90.0051C90.185 90.6245 90.214 91.2548 90.0329 91.8815C89.8662 92.4611 89.6127 93.0008 89.015 93.2761C83.3859 95.8407 77.7459 95.9493 72.1422 93.2362C70.9686 92.6675 69.9072 91.8634 68.806 91.1461C68.1576 90.7223 67.368 91.0266 67.2955 91.7583C67.2557 92.1785 67.4839 92.4574 67.8063 92.6893C74.9169 97.8583 82.4586 98.4234 90.3154 94.6489C94.2022 92.7834 97.1435 89.8312 99.2227 86.0387C100.201 84.2529 100.885 82.362 101.295 80.3661C101.403 79.8264 101.124 79.3555 100.639 79.2432V79.2468ZM96.093 87.5419C95.8757 87.7701 95.6946 88.0346 95.4591 88.3244C95.3939 88.1795 95.3468 88.0889 95.3142 87.9911C94.8795 86.7957 94.4485 85.5968 94.0138 84.4014C93.8073 83.8363 93.3111 83.5827 92.8003 83.7675C92.3004 83.9486 92.0903 84.463 92.2968 85.0389C92.6916 86.1328 93.0937 87.2232 93.4886 88.3135C94.0247 89.8059 93.9703 89.987 92.7279 90.9578C92.5033 91.1317 92.2751 91.3019 92.0469 91.4722C92.0143 91.454 91.9853 91.4323 91.9527 91.4142C92.0722 90.4362 91.7535 89.5559 91.413 88.6721C91.0906 87.8317 90.7899 86.9841 90.4856 86.1401C89.9278 84.5897 90.6631 82.9669 92.1773 82.4055C93.6769 81.8476 95.3106 82.6119 95.8829 84.1551C96.093 84.7238 96.285 85.3033 96.4589 85.8865C96.64 86.4951 96.5603 87.0565 96.0966 87.5383L96.093 87.5419Z" fill="#231F20"/>
<path d="M85.4721 77.6958C85.5989 78.3261 86.0444 78.6702 86.5733 78.5507C87.1239 78.4275 87.3847 77.9675 87.2579 77.3336C87.1094 76.5874 87.1239 75.8484 87.305 75.1095C87.8194 73.0194 89.7211 71.7407 91.7351 72.1682C93.184 72.476 94.1946 73.3635 94.8974 74.6458C95.169 75.1457 95.7124 75.3123 96.1688 75.0624C96.6071 74.8197 96.7665 74.2872 96.5165 73.8018C96.3717 73.5193 96.2014 73.2476 96.0203 72.9868C94.5569 70.9003 92.0104 69.8499 89.7609 70.3968C87.1021 71.0452 85.3308 73.4034 85.3453 76.294C85.3453 76.4751 85.3308 76.6562 85.3453 76.8337C85.3743 77.1235 85.4178 77.4097 85.4757 77.6958H85.4721Z" fill="#231F20"/>
<path d="M68.2376 85.2238C68.7556 85.1079 68.9802 84.6406 68.9114 84.0248C68.8462 83.438 68.7882 82.8331 68.8607 82.2535C69.1686 79.7613 71.476 78.2146 73.7581 78.9427C74.9933 79.3375 75.8807 80.1562 76.5038 81.2791C76.8044 81.8224 77.3043 81.9999 77.7861 81.7464C78.2606 81.4928 78.4019 80.9567 78.1157 80.4206C77.9599 80.1272 77.7861 79.841 77.5796 79.5802C76.0365 77.6024 74.0551 76.5846 71.5231 77.0627C68.8063 77.5771 66.9553 80.0366 66.9336 82.9635C66.9626 83.2677 66.9843 83.5684 67.0169 83.8727C67.035 84.0502 67.0676 84.2277 67.1038 84.4052C67.2342 85.0209 67.6834 85.347 68.2304 85.2238H68.2376Z" fill="#231F20"/>
</svg>
