<svg width="80" height="71" viewBox="0 0 80 71" fill="none" xmlns="http://www.w3.org/2000/svg">
<g id="Allawee Currency" clip-path="url(#clip0_237_1144)">
<g id="Layer 2">
<g id="Layer 1">
<path id="Vector" d="M77.573 40.7898C77.123 40.8033 76.6853 40.9398 76.3073 41.1844C75.6269 41.6462 74.9855 42.163 74.3895 42.7296C73.0728 43.9696 71.4886 44.8901 69.7593 45.42C68.0519 45.8803 66.2892 46.1034 64.521 46.083C60.3895 46.083 57.1292 44.841 54.7401 42.357C53.3934 40.8883 52.4347 39.1065 51.9511 37.1734H73.036C75.1036 37.1734 76.689 36.6072 77.7922 35.4748C78.8954 34.3424 79.4488 32.746 79.4525 30.6857C79.5066 27.6116 78.7224 24.5807 77.184 21.9186C75.5653 19.2754 73.1935 17.1765 70.373 15.8913C67.9293 14.7589 65.3042 14.0687 62.6196 13.8529V6.02827C62.6196 4.57503 62.0423 3.18131 61.0147 2.15372C59.9871 1.12612 58.5934 0.548828 57.1401 0.548828C55.6869 0.548828 54.2932 1.12612 53.2656 2.15372C52.238 3.18131 51.6607 4.57503 51.6607 6.02827V13.6995C51.6595 13.9544 51.6778 14.209 51.7155 14.4611C49.7029 14.9173 47.7617 15.6455 45.9456 16.6255C42.4178 18.4956 39.5348 21.3844 37.6717 24.9159C35.7794 28.4739 34.8333 32.6492 34.8333 37.4419C34.7436 41.3938 35.8225 45.2842 37.9347 48.6254C40.0128 51.8284 42.9244 54.4047 46.3566 56.0775C48.044 56.9197 49.8241 57.5615 51.6607 57.9898V64.8994C51.6607 66.3526 52.238 67.7463 53.2656 68.7739C54.2932 69.8015 55.6869 70.3788 57.1401 70.3788C58.5934 70.3788 59.9871 69.8015 61.0147 68.7739C62.0423 67.7463 62.6196 66.3526 62.6196 64.8994V58.4775C64.9211 58.1975 67.1706 57.5885 69.299 56.6692C72.166 55.4878 74.6892 53.6033 76.636 51.1898C78.3257 49.1096 79.2571 46.5163 79.2771 43.8364C79.2999 43.0948 79.1577 42.3574 78.8607 41.6775C78.7636 41.4149 78.5878 41.1887 78.3574 41.0299C78.1269 40.871 77.853 40.7871 77.573 40.7898ZM51.2223 32.5707C51.184 31.9351 51.1621 31.272 51.1621 30.5816C51.1131 28.5666 51.3549 26.5551 51.8799 24.609C52.2145 23.2917 52.8847 22.0835 53.8251 21.1022C54.5511 20.3728 55.5356 19.9592 56.5648 19.9515C57.9602 19.9515 59.0799 20.746 59.9237 22.3351C60.7675 23.9241 61.1895 26.5707 61.1895 30.2748C61.1895 31.8054 60.3895 32.5707 58.7895 32.5707H51.2223Z" fill="#BAF2AA"/>
<path id="Vector_2" d="M57.1402 70.9214C55.5417 70.9214 54.0086 70.2863 52.8782 69.156C51.7479 68.0256 51.1128 66.4925 51.1128 64.894V58.4173C49.385 57.9799 47.7096 57.3571 46.1156 56.5598C42.5936 54.8325 39.6069 52.1811 37.4745 48.8885C35.3037 45.4497 34.1945 41.4474 34.2854 37.3817C34.2854 32.5215 35.2663 28.2201 37.1896 24.5982C39.1144 20.993 42.0743 18.0465 45.6882 16.1379C47.404 15.2099 49.2304 14.5029 51.1238 14.0338C51.1238 13.9242 51.1238 13.8092 51.1238 13.6941V6.02836C51.1238 4.4298 51.7588 2.89671 52.8892 1.76636C54.0195 0.636003 55.5526 0.000976563 57.1512 0.000976562C58.7498 0.000976563 60.2829 0.636003 61.4132 1.76636C62.5436 2.89671 63.1786 4.4298 63.1786 6.02836V13.3379C65.7579 13.5932 68.2755 14.2824 70.6252 15.3763C73.5431 16.7143 75.9949 18.8932 77.6663 21.6338C79.2492 24.3843 80.0559 27.5129 80.0005 30.6858C80.0005 32.8776 79.3923 34.6146 78.1868 35.853C76.9813 37.0913 75.2443 37.716 73.0361 37.716H52.6909C53.1768 39.3001 54.0119 40.755 55.1348 41.9735C57.4087 44.3351 60.5704 45.5296 64.5211 45.5296C66.2316 45.55 67.937 45.3361 69.5896 44.894C71.2396 44.3854 72.7507 43.5042 74.006 42.3187C74.6249 41.7305 75.2921 41.1953 76.0005 40.7187C76.4638 40.4203 77.0003 40.2553 77.5512 40.242C77.9358 40.2358 78.3131 40.3475 78.6324 40.562C78.9517 40.7765 79.1978 41.0836 79.3375 41.442C79.6699 42.1933 79.8291 43.0098 79.8033 43.831C79.7799 46.6236 78.8146 49.3266 77.0635 51.5022C75.059 53.9888 72.4629 55.933 69.5128 57.157C67.4842 58.036 65.3462 58.6369 63.1567 58.9433V64.883C63.1581 65.6746 63.0036 66.4586 62.7021 67.1904C62.4005 67.9223 61.9577 68.5875 61.399 69.1482C60.8404 69.7089 60.1767 70.1541 59.446 70.4584C58.7153 70.7626 57.9318 70.9199 57.1402 70.9214ZM57.1402 1.09686C55.8323 1.09686 54.578 1.61643 53.6531 2.54127C52.7283 3.4661 52.2087 4.72045 52.2087 6.02836V13.6996C52.2075 13.927 52.224 14.1542 52.2581 14.379L52.3402 14.8777L51.8416 14.9927C49.8774 15.441 47.9826 16.1525 46.2087 17.1078C42.7792 18.9281 39.9751 21.736 38.1594 25.168C36.3183 28.631 35.3813 32.7571 35.3813 37.4365C35.2975 41.2826 36.3455 45.0686 38.395 48.3242C40.4302 51.4409 43.2701 53.9495 46.6142 55.5844C48.2652 56.4029 50.0043 57.0298 51.7978 57.4529L52.2197 57.5515V64.894C52.2197 66.2019 52.7393 67.4562 53.6641 68.3811C54.5889 69.3059 55.8433 69.8255 57.1512 69.8255C58.4591 69.8255 59.7135 69.3059 60.6383 68.3811C61.5631 67.4562 62.0827 66.2019 62.0827 64.894V57.9954L62.5594 57.9351C64.8101 57.6609 67.0097 57.0649 69.0909 56.1652C71.8737 55.0167 74.3232 53.1871 76.2142 50.8447C77.8184 48.8588 78.7047 46.3892 78.7293 43.8365C78.752 43.1766 78.6286 42.5198 78.3676 41.9132C78.3106 41.7493 78.2029 41.6078 78.06 41.5093C77.9171 41.4107 77.7466 41.3603 77.5731 41.3653C77.2232 41.3791 76.8839 41.4891 76.5923 41.6831C75.942 42.1266 75.3282 42.6213 74.7567 43.1625C73.3767 44.4583 71.7176 45.42 69.9074 45.9735C68.1518 46.4475 66.3394 46.678 64.5211 46.6584C60.258 46.6584 56.8498 45.3488 54.3457 42.7625C52.9375 41.2286 51.9338 39.368 51.4252 37.3488L51.2334 36.6529H73.0361C74.9649 36.6529 76.395 36.1488 77.4197 35.1187C78.4443 34.0886 78.9046 32.5872 78.9046 30.6858C78.9578 27.7067 78.2002 24.7691 76.7128 22.1872C75.1467 19.6356 72.8582 17.6065 70.1375 16.3571C67.7514 15.2561 65.1898 14.5846 62.5704 14.3735L62.0717 14.3242V6.02836C62.0717 4.72045 61.5522 3.4661 60.6273 2.54127C59.7025 1.61643 58.4482 1.09686 57.1402 1.09686ZM58.7841 33.1351H50.7074L50.68 32.6201C50.6361 31.9461 50.6142 31.2667 50.6142 30.5982C50.5666 28.5291 50.8176 26.4641 51.3594 24.4667C51.7231 23.0581 52.444 21.7672 53.4526 20.7187C54.2818 19.8911 55.4043 19.4243 56.5759 19.4201C58.1868 19.4201 59.48 20.3187 60.4115 22.0941C61.3046 23.7817 61.7375 26.4776 61.7375 30.3132C61.7485 32.1269 60.7019 33.1351 58.8005 33.1351H58.7841ZM51.7265 32.0393H58.7841C60.0827 32.0393 60.6361 31.5187 60.6361 30.2913C60.6361 26.6968 60.2361 24.1105 59.4361 22.6201C58.6909 21.2119 57.7485 20.527 56.5594 20.527C56.1173 20.5292 55.68 20.6189 55.2728 20.791C54.8656 20.9631 54.4965 21.2142 54.1868 21.5297C53.3149 22.4527 52.6959 23.5851 52.3896 24.8174C51.8807 26.712 51.6464 28.6698 51.6937 30.631C51.7101 31.0749 51.7211 31.5571 51.743 32.0393H51.7265Z" fill="black"/>
<path id="Vector_3" d="M48.9918 55.1243C48.9083 55.1246 48.8258 55.1059 48.7507 55.0695C42.5096 52.0558 38.5589 46.1271 37.9178 38.8668C37.5871 34.8868 38.2865 30.8887 39.9486 27.2573C41.6108 23.6259 44.1797 20.4835 47.4082 18.1326C47.4665 18.0901 47.5326 18.0596 47.6027 18.0427C47.6728 18.0258 47.7455 18.0228 47.8167 18.034C47.888 18.0452 47.9563 18.0703 48.0178 18.1079C48.0794 18.1455 48.1329 18.1949 48.1753 18.2532C48.2178 18.3114 48.2484 18.3775 48.2653 18.4476C48.2822 18.5177 48.2851 18.5904 48.2739 18.6617C48.2627 18.7329 48.2376 18.8012 48.2 18.8628C48.1624 18.9243 48.1131 18.9778 48.0548 19.0203C44.9783 21.2592 42.5303 24.2529 40.9467 27.7127C39.3632 31.1725 38.6974 34.9818 39.0137 38.7737C39.6164 45.6394 43.3425 51.2229 49.2329 54.0832C49.2977 54.1148 49.3557 54.1588 49.4035 54.2128C49.4513 54.2669 49.4879 54.3298 49.5114 54.398C49.5348 54.4662 49.5445 54.5384 49.54 54.6104C49.5354 54.6823 49.5167 54.7527 49.4849 54.8175C49.4397 54.9097 49.3695 54.9873 49.2823 55.0416C49.1952 55.0958 49.0945 55.1245 48.9918 55.1243Z" fill="white"/>
<path id="Vector_4" d="M63.7213 33.1356C63.667 33.1461 63.6112 33.1461 63.5569 33.1356C63.4182 33.0927 63.3021 32.9964 63.2343 32.868C63.1665 32.7395 63.1525 32.5894 63.1953 32.4507C63.8473 30.352 63.9076 21.3384 59.8199 19.0863C59.7565 19.0519 59.7004 19.0053 59.6551 18.9492C59.6097 18.893 59.5758 18.8285 59.5555 18.7593C59.5351 18.69 59.5286 18.6174 59.5364 18.5457C59.5442 18.4739 59.566 18.4044 59.6007 18.3411C59.6356 18.2781 59.6826 18.2226 59.7389 18.1778C59.7952 18.133 59.8598 18.0997 59.9291 18.0798C59.9983 18.06 60.0707 18.054 60.1422 18.0621C60.2138 18.0703 60.283 18.0925 60.3459 18.1274C64.998 20.6918 65.0692 30.1219 64.2418 32.7794C64.2023 32.8852 64.1311 32.9762 64.0379 33.0399C63.9448 33.1037 63.8342 33.1371 63.7213 33.1356Z" fill="white"/>
<path id="Vector_5" d="M54.581 14.1764C54.4357 14.1764 54.2963 14.1187 54.1935 14.0159C54.0908 13.9131 54.033 13.7738 54.033 13.6284C54.033 13.5791 53.8906 8.86133 54.033 5.98462C54.0379 5.32675 54.2533 4.68772 54.6477 4.16117C55.0422 3.63462 55.5949 3.24823 56.2248 3.0586C57.5837 2.62025 59.1015 2.97093 59.8413 3.89696C59.9309 4.01051 59.9719 4.15488 59.9555 4.29858C59.9391 4.44229 59.8665 4.57367 59.7536 4.66408C59.6407 4.75429 59.4968 4.79627 59.3531 4.78088C59.2094 4.76548 59.0777 4.69396 58.9865 4.58189C58.5372 4.03394 57.4687 3.80929 56.5646 4.0997C56.145 4.22201 55.7766 4.4773 55.5147 4.82714C55.2528 5.17697 55.1117 5.60242 55.1125 6.03942C54.9755 8.87229 55.1125 13.5463 55.1125 13.5956C55.1125 13.7409 55.0548 13.8803 54.952 13.983C54.8492 14.0858 54.7099 14.1435 54.5646 14.1435L54.581 14.1764Z" fill="white"/>
<path id="Vector_6" d="M57.4359 68.2582C57.0306 68.2581 56.6276 68.1952 56.2414 68.0719C55.611 67.8831 55.0578 67.4969 54.6633 66.9702C54.2687 66.4434 54.0536 65.804 54.0496 65.1459C53.9072 62.2692 54.0496 57.5514 54.0496 57.4747C54.0496 57.3294 54.1074 57.19 54.2101 57.0872C54.3129 56.9845 54.4523 56.9268 54.5976 56.9268C54.7429 56.9268 54.8823 56.9845 54.985 57.0872C55.0878 57.19 55.1455 57.3294 55.1455 57.4747C55.1455 57.524 55.0086 62.198 55.1455 65.0363C55.1459 65.4724 55.2876 65.8966 55.5494 66.2453C55.8112 66.5941 56.179 66.8485 56.5976 66.9706C57.5017 67.2665 58.5702 67.0528 59.0195 66.4884C59.112 66.3801 59.2429 66.3121 59.3846 66.2987C59.5264 66.2853 59.6677 66.3276 59.7788 66.4166C59.8899 66.5056 59.962 66.6344 59.9798 66.7756C59.9977 66.9169 59.9598 67.0595 59.8743 67.1733C59.5745 67.5246 59.1999 67.8043 58.778 67.992C58.3561 68.1797 57.8976 68.2707 57.4359 68.2582Z" fill="white"/>
<path id="Vector_7" d="M43.2879 40.7898C42.8378 40.8033 42.4001 40.9398 42.0221 41.1844C41.3413 41.6497 40.6999 42.1702 40.1043 42.7405C38.7877 43.9805 37.2034 44.9011 35.4742 45.4309C33.7667 45.8912 32.0041 46.1143 30.2358 46.0939C26.1043 46.0939 22.844 44.8519 20.455 42.3679C19.1082 40.8992 18.1496 39.1175 17.6659 37.1844H38.7509C40.8185 37.1844 42.4038 36.6182 43.507 35.4857C44.6102 34.3533 45.1582 32.7588 45.1509 30.7022C45.205 27.628 44.4208 24.5972 42.8824 21.9351C41.2706 19.2883 38.9045 17.1836 36.0879 15.8913C33.6442 14.7589 31.0191 14.0687 28.3344 13.8529V6.02827C28.3344 4.57503 27.7571 3.18131 26.7295 2.15372C25.7019 1.12612 24.3082 0.548828 22.855 0.548828C21.4017 0.548828 20.008 1.12612 18.9804 2.15372C17.9528 3.18131 17.3755 4.57503 17.3755 6.02827V13.6995C17.3743 13.9544 17.3926 14.209 17.4303 14.4611C15.4177 14.9173 13.4766 15.6455 11.6605 16.6255C8.13348 18.4942 5.25048 21.381 3.3865 24.9104C1.49426 28.4684 0.548142 32.6437 0.548142 37.4364C0.458426 41.3883 1.5373 45.2787 3.64951 48.62C5.72319 51.8207 8.62884 54.3968 12.055 56.072C13.7424 56.9142 15.5225 57.556 17.3591 57.9843V64.8939C17.3591 66.3471 17.9364 67.7408 18.964 68.7684C19.9916 69.796 21.3853 70.3733 22.8386 70.3733C24.2918 70.3733 25.6855 69.796 26.7131 68.7684C27.7407 67.7408 28.318 66.3471 28.318 64.8939V58.4775C30.6195 58.1975 32.869 57.5885 34.9975 56.6692C37.8644 55.4878 40.3876 53.6033 42.3344 51.1898C44.03 49.1118 44.9673 46.5183 44.992 43.8364C45.0148 43.0948 44.8726 42.3574 44.5755 41.6775C44.4785 41.4149 44.3027 41.1887 44.0722 41.0299C43.8417 40.871 43.5678 40.7871 43.2879 40.7898ZM16.9372 32.5707C16.8988 31.9351 16.8769 31.272 16.8769 30.5816C16.828 28.5666 17.0697 26.5551 17.5947 24.609C17.9294 23.2917 18.5995 22.0835 19.5399 21.1022C20.266 20.3728 21.2505 19.9592 22.2796 19.9515C23.6751 19.9515 24.7947 20.746 25.6385 22.3351C26.4824 23.9241 26.9043 26.5707 26.9043 30.2748C26.9043 31.8054 26.1043 32.5707 24.5043 32.5707H16.9372Z" fill="#BAF2AA"/>
<path id="Vector_8" d="M22.8549 70.9214C21.2564 70.9214 19.7233 70.2863 18.5929 69.156C17.4626 68.0256 16.8275 66.4925 16.8275 64.894V58.4173C15.098 57.9799 13.4207 57.3571 11.8248 56.5598C8.30434 54.8324 5.31944 52.1809 3.18919 48.8885C1.02881 45.4653 -0.0799752 41.4836 0.000148861 37.4365C0.000148861 32.5762 0.975491 28.2749 2.90426 24.6585C4.81884 21.0323 7.77747 18.0642 11.3974 16.1379C13.1151 15.2099 14.9433 14.5029 16.8385 14.0338C16.8385 13.9242 16.8385 13.8092 16.8385 13.6941V6.02836C16.8385 4.4298 17.4735 2.89671 18.6039 1.76636C19.7342 0.636003 21.2673 0.000976563 22.8659 0.000976562C24.4645 0.000976563 25.9976 0.636003 27.1279 1.76636C28.2583 2.89671 28.8933 4.4298 28.8933 6.02836V13.3379C31.4688 13.5944 33.9826 14.2835 36.3289 15.3763C39.2459 16.7157 41.6973 18.8943 43.37 21.6338C44.9567 24.3832 45.7673 27.5118 45.7152 30.6858C45.7152 32.8776 45.107 34.6146 43.9015 35.853C42.696 37.0913 40.959 37.716 38.7508 37.716H18.4056C18.8915 39.3001 19.7266 40.755 20.8495 41.9735C23.1234 44.3406 26.3015 45.5351 30.2358 45.5351C31.9539 45.5553 33.6667 45.3396 35.3262 44.894C36.9751 44.3829 38.4856 43.502 39.7426 42.3187C40.3604 41.7292 41.0277 41.1939 41.7371 40.7187C42.2004 40.4203 42.7369 40.2553 43.2878 40.242C43.6723 40.2366 44.0492 40.3486 44.3684 40.563C44.6875 40.7774 44.9337 41.084 45.0741 41.442C45.4041 42.196 45.5632 43.0137 45.5399 43.8365C45.5187 46.6295 44.5531 49.3332 42.8001 51.5077C40.7928 53.9997 38.1905 55.9462 35.233 57.168C33.2066 58.0477 31.0702 58.6486 28.8823 58.9543V64.894C28.8823 66.4925 28.2473 68.0256 27.117 69.156C25.9866 70.2863 24.4535 70.9214 22.8549 70.9214ZM22.8549 1.09686C21.547 1.09686 20.2927 1.61643 19.3678 2.54127C18.443 3.4661 17.9234 4.72045 17.9234 6.02836V13.6996C17.9222 13.927 17.9387 14.1542 17.9727 14.379L18.0495 14.8777L17.5563 14.9927C15.5915 15.4392 13.6965 16.1507 11.9234 17.1078C8.49249 18.9281 5.68659 21.7359 3.86864 25.168C2.02755 28.631 1.09604 32.7571 1.09604 37.4365C1.0122 41.2826 2.06016 45.0686 4.10974 48.3242C6.14197 51.4434 8.98266 53.9527 12.3289 55.5844C13.9799 56.4029 15.719 57.0298 17.5125 57.4529L17.9344 57.5515V64.894C17.9344 66.2019 18.454 67.4562 19.3788 68.3811C20.3036 69.3059 21.558 69.8255 22.8659 69.8255C24.1738 69.8255 25.4282 69.3059 26.353 68.3811C27.2778 67.4562 27.7974 66.2019 27.7974 64.894V57.9954L28.2741 57.9351C30.5211 57.6599 32.7169 57.0639 34.7947 56.1652C37.5766 55.0153 40.0258 53.1859 41.918 50.8447C43.5261 48.8603 44.4163 46.3906 44.444 43.8365C44.4667 43.1766 44.3433 42.5198 44.0823 41.9132C44.0253 41.7493 43.9176 41.6078 43.7747 41.5093C43.6318 41.4107 43.4613 41.3603 43.2878 41.3653C42.9377 41.3783 42.5982 41.4883 42.307 41.6831C41.6567 42.1266 41.0429 42.6213 40.4714 43.1625C39.0862 44.448 37.4257 45.4001 35.6166 45.9461C33.861 46.4201 32.0486 46.6506 30.2303 46.631C25.9673 46.631 22.559 45.3214 20.0549 42.7351C18.6468 41.2012 17.643 39.3406 17.1344 37.3214L16.9371 36.6255H38.7453C40.6741 36.6255 42.1043 36.1214 43.1289 35.0913C44.1536 34.0612 44.6358 32.5872 44.6358 30.7078C44.6867 27.7289 43.9293 24.7919 42.444 22.2091C40.8786 19.6569 38.5899 17.6276 35.8686 16.379C33.4828 15.2774 30.921 14.6059 28.3015 14.3955L27.8084 14.3461V6.02836C27.8084 5.3789 27.6801 4.73583 27.4309 4.13608C27.1817 3.53633 26.8165 2.99171 26.3562 2.53349C25.896 2.07527 25.3497 1.71248 24.7489 1.46594C24.148 1.2194 23.5044 1.09398 22.8549 1.09686ZM24.4988 33.1351H16.4385L16.4056 32.6201C16.3673 31.9461 16.3454 31.2667 16.3454 30.5982C16.2963 28.5294 16.5454 26.4644 17.0851 24.4667C17.4487 23.0581 18.1697 21.7672 19.1782 20.7187C20.0074 19.8911 21.1299 19.4243 22.3015 19.4201C23.907 19.4201 25.2001 20.3187 26.1371 22.0941C27.0358 23.7817 27.4686 26.4776 27.4686 30.3132C27.4632 32.1269 26.4166 33.1351 24.5152 33.1351H24.4988ZM17.4412 32.0393H24.5152C25.8138 32.0393 26.3673 31.5187 26.3673 30.2913C26.3673 26.6968 25.9618 24.1105 25.1673 22.6201C24.4166 21.2119 23.4796 20.527 22.2906 20.527C21.8484 20.5286 21.4109 20.618 21.0036 20.7902C20.5963 20.9623 20.2273 21.2137 19.918 21.5297C19.044 22.4513 18.4247 23.5842 18.1207 24.8174C17.615 26.7014 17.3807 28.6479 17.4248 30.5982C17.4248 31.0749 17.4358 31.5571 17.4577 32.0393H17.4412Z" fill="black"/>
<path id="Vector_9" d="M14.7015 55.1246C14.6199 55.1241 14.5394 55.1054 14.4659 55.0698C8.21934 52.0561 4.27414 46.1273 3.63304 38.8671C3.30538 34.8846 4.00897 30.8848 5.67602 27.2533C7.34306 23.6217 9.91736 20.4806 13.1509 18.1329C13.2089 18.0872 13.2756 18.0538 13.3469 18.0345C13.4182 18.0153 13.4926 18.0107 13.5657 18.0209C13.6389 18.0312 13.7092 18.0561 13.7724 18.0943C13.8357 18.1324 13.8906 18.1829 13.9338 18.2428C13.977 18.3026 14.0077 18.3706 14.024 18.4426C14.0403 18.5147 14.0419 18.5892 14.0286 18.6619C14.0154 18.7345 13.9876 18.8037 13.9469 18.8654C13.9062 18.927 13.8535 18.9798 13.7919 19.0205C10.7112 21.2571 8.25844 24.2495 6.67009 27.7093C5.08173 31.1691 4.41132 34.9797 4.72345 38.7739C5.33167 45.6396 9.05222 51.2232 14.9426 54.0835C15.0075 54.115 15.0655 54.1591 15.1133 54.2131C15.161 54.2671 15.1977 54.33 15.2211 54.3983C15.2445 54.4665 15.2543 54.5386 15.2497 54.6106C15.2452 54.6826 15.2265 54.753 15.1947 54.8177C15.1495 54.9099 15.0793 54.9876 14.9921 55.0418C14.9049 55.0961 14.8042 55.1248 14.7015 55.1246Z" fill="white"/>
<path id="Vector_10" d="M29.4306 33.1356C29.3781 33.1457 29.3242 33.1457 29.2717 33.1356C29.1329 33.0927 29.0169 32.9964 28.9491 32.868C28.8813 32.7396 28.8672 32.5895 28.91 32.4507C29.5621 30.3521 29.6169 21.3384 25.5292 19.0863C25.4021 19.0137 25.309 18.8935 25.2704 18.7522C25.2319 18.6109 25.2511 18.4601 25.3237 18.3329C25.3964 18.2058 25.5166 18.1127 25.6579 18.0741C25.7992 18.0356 25.95 18.0548 26.0772 18.1274C30.7292 20.6918 30.795 30.1219 29.9731 32.7795C29.9324 32.8889 29.8578 32.9824 29.7602 33.0465C29.6626 33.1106 29.5472 33.1418 29.4306 33.1356Z" fill="white"/>
<path id="Vector_11" d="M20.2748 14.1764C20.1295 14.1764 19.9901 14.1187 19.8874 14.0159C19.7846 13.9131 19.7269 13.7738 19.7269 13.6284C19.7269 13.5791 19.5899 8.86133 19.7269 5.98462C19.7318 5.32675 19.9472 4.68772 20.3416 4.16117C20.736 3.63462 21.2887 3.24823 21.9187 3.0586C23.2721 2.62025 24.7954 2.97093 25.5351 3.89696C25.6015 4.00808 25.6264 4.13913 25.6054 4.26687C25.5844 4.39462 25.5189 4.5108 25.4204 4.59483C25.322 4.67886 25.1969 4.72532 25.0675 4.72596C24.938 4.7266 24.8125 4.68138 24.7132 4.59832C24.2639 4.05038 23.2009 3.82572 22.2913 4.11613C21.8691 4.23626 21.4976 4.49049 21.2326 4.84041C20.9677 5.19034 20.8239 5.61696 20.8228 6.05586C20.6858 8.88873 20.8228 13.5627 20.8228 13.612C20.8228 13.7573 20.7651 13.8967 20.6623 13.9995C20.5595 14.1022 20.4202 14.1599 20.2748 14.1599V14.1764Z" fill="white"/>
<path id="Vector_12" d="M23.1508 68.2582C22.7453 68.2589 22.3423 68.196 21.9563 68.0719C21.3258 67.8831 20.7727 67.4969 20.3781 66.9702C19.9836 66.4434 19.7685 65.804 19.7645 65.1459C19.622 62.2692 19.7645 57.5514 19.7645 57.4747C19.7645 57.3294 19.8222 57.19 19.925 57.0872C20.0277 56.9845 20.1671 56.9268 20.3124 56.9268C20.4578 56.9268 20.5971 56.9845 20.6999 57.0872C20.8027 57.19 20.8604 57.3294 20.8604 57.4747C20.8604 57.524 20.7234 62.198 20.8604 65.0363C20.8616 65.4722 21.0036 65.8959 21.2653 66.2445C21.527 66.5931 21.8943 66.8477 22.3124 66.9706C23.222 67.2665 24.285 67.0528 24.7344 66.4884C24.7796 66.4321 24.8355 66.3853 24.8988 66.3507C24.9622 66.3161 25.0318 66.2943 25.1036 66.2867C25.1754 66.279 25.248 66.2857 25.3172 66.3062C25.3864 66.3267 25.4509 66.3607 25.507 66.4062C25.6199 66.4966 25.6924 66.628 25.7089 66.7717C25.7253 66.9154 25.6842 67.0598 25.5946 67.1733C25.2943 67.5253 24.9188 67.8055 24.4959 67.9932C24.073 68.181 23.6133 68.2715 23.1508 68.2582Z" fill="white"/>
</g>
</g>
</g>
<defs>
<clipPath id="clip0_237_1144">
<rect width="80" height="70.9204" fill="white"/>
</clipPath>
</defs>
</svg>
