<svg width="100" height="100" viewBox="0 0 100 100" fill="none" xmlns="http://www.w3.org/2000/svg">
<circle cx="50" cy="50" r="50" fill="#151C3A"/>
<g clip-path="url(#clip0_237_1169)">
<path d="M70 50C70 38.9543 61.0457 30 50 30C38.9543 30 30 38.9543 30 50C30 59.9824 37.3137 68.2566 46.875 69.757V55.7812H41.7969V50H46.875V45.5938C46.875 40.5813 49.8609 37.8125 54.4293 37.8125C56.6168 37.8125 58.9062 38.2031 58.9062 38.2031V43.125H56.3844C53.9 43.125 53.125 44.6668 53.125 46.25V50H58.6719L57.7852 55.7812H53.125V69.757C62.6863 68.2566 70 59.9824 70 50Z" fill="white"/>
</g>
<defs>
<clipPath id="clip0_237_1169">
<rect width="40" height="40" fill="white" transform="translate(30 30)"/>
</clipPath>
</defs>
</svg>
