<svg width="100" height="100" viewBox="0 0 100 100" fill="none" xmlns="http://www.w3.org/2000/svg">
<circle cx="50" cy="50" r="50" fill="#151C3A"/>
<g clip-path="url(#clip0_237_1163)">
<path d="M50 33.6016C55.3438 33.6016 55.9766 33.625 58.0781 33.7187C60.0312 33.8047 61.0859 34.1328 61.7891 34.4062C62.7188 34.7656 63.3906 35.2031 64.0859 35.8984C64.7891 36.6016 65.2188 37.2656 65.5781 38.1953C65.8516 38.8984 66.1797 39.9609 66.2656 41.9062C66.3594 44.0156 66.3828 44.6484 66.3828 49.9844C66.3828 55.3281 66.3594 55.9609 66.2656 58.0625C66.1797 60.0156 65.8516 61.0703 65.5781 61.7734C65.2188 62.7031 64.7812 63.375 64.0859 64.0703C63.3828 64.7734 62.7188 65.2031 61.7891 65.5625C61.0859 65.8359 60.0234 66.1641 58.0781 66.25C55.9688 66.3437 55.3359 66.3672 50 66.3672C44.6562 66.3672 44.0234 66.3437 41.9219 66.25C39.9688 66.1641 38.9141 65.8359 38.2109 65.5625C37.2812 65.2031 36.6094 64.7656 35.9141 64.0703C35.2109 63.3672 34.7812 62.7031 34.4219 61.7734C34.1484 61.0703 33.8203 60.0078 33.7344 58.0625C33.6406 55.9531 33.6172 55.3203 33.6172 49.9844C33.6172 44.6406 33.6406 44.0078 33.7344 41.9062C33.8203 39.9531 34.1484 38.8984 34.4219 38.1953C34.7812 37.2656 35.2187 36.5937 35.9141 35.8984C36.6172 35.1953 37.2812 34.7656 38.2109 34.4062C38.9141 34.1328 39.9766 33.8047 41.9219 33.7187C44.0234 33.625 44.6562 33.6016 50 33.6016ZM50 30C44.5703 30 43.8906 30.0234 41.7578 30.1172C39.6328 30.2109 38.1719 30.5547 36.9062 31.0469C35.5859 31.5625 34.4688 32.2422 33.3594 33.3594C32.2422 34.4687 31.5625 35.5859 31.0469 36.8984C30.5547 38.1719 30.2109 39.625 30.1172 41.75C30.0234 43.8906 30 44.5703 30 50C30 55.4297 30.0234 56.1094 30.1172 58.2422C30.2109 60.3672 30.5547 61.8281 31.0469 63.0938C31.5625 64.4141 32.2422 65.5312 33.3594 66.6406C34.4688 67.75 35.5859 68.4375 36.8984 68.9453C38.1719 69.4375 39.625 69.7812 41.75 69.875C43.8828 69.9687 44.5625 69.9922 49.9922 69.9922C55.4219 69.9922 56.1016 69.9687 58.2344 69.875C60.3594 69.7812 61.8203 69.4375 63.0859 68.9453C64.3984 68.4375 65.5156 67.75 66.625 66.6406C67.7344 65.5312 68.4219 64.4141 68.9297 63.1016C69.4219 61.8281 69.7656 60.375 69.8594 58.25C69.9531 56.1172 69.9766 55.4375 69.9766 50.0078C69.9766 44.5781 69.9531 43.8984 69.8594 41.7656C69.7656 39.6406 69.4219 38.1797 68.9297 36.9141C68.4375 35.5859 67.7578 34.4687 66.6406 33.3594C65.5312 32.25 64.4141 31.5625 63.1016 31.0547C61.8281 30.5625 60.375 30.2187 58.25 30.125C56.1094 30.0234 55.4297 30 50 30Z" fill="white"/>
<path d="M50 39.7266C44.3281 39.7266 39.7266 44.3281 39.7266 50C39.7266 55.6719 44.3281 60.2734 50 60.2734C55.6719 60.2734 60.2734 55.6719 60.2734 50C60.2734 44.3281 55.6719 39.7266 50 39.7266ZM50 56.6641C46.3203 56.6641 43.3359 53.6797 43.3359 50C43.3359 46.3203 46.3203 43.3359 50 43.3359C53.6797 43.3359 56.6641 46.3203 56.6641 50C56.6641 53.6797 53.6797 56.6641 50 56.6641Z" fill="white"/>
<path d="M63.0781 39.3203C63.0781 40.6484 62 41.7188 60.6797 41.7188C59.3516 41.7188 58.2812 40.6406 58.2812 39.3203C58.2812 37.9922 59.3594 36.9219 60.6797 36.9219C62 36.9219 63.0781 38 63.0781 39.3203Z" fill="white"/>
</g>
<defs>
<clipPath id="clip0_237_1163">
<rect width="40" height="40" fill="white" transform="translate(30 30)"/>
</clipPath>
</defs>
</svg>
