<svg width="100" height="100" viewBox="0 0 100 100" fill="none" xmlns="http://www.w3.org/2000/svg">
<circle cx="50" cy="50" r="50" fill="#151C3A"/>
<path d="M58.4544 30H51.7132V57.2463C51.7132 60.4928 49.1205 63.1594 45.8939 63.1594C42.6674 63.1594 40.0746 60.4928 40.0746 57.2463C40.0746 54.058 42.6098 51.4492 45.7211 51.3333V44.4928C38.8647 44.6087 33.3335 50.2319 33.3335 57.2463C33.3335 64.3189 38.9799 70 45.9516 70C52.9231 70 58.5695 64.2609 58.5695 57.2463V43.2753C61.1047 45.1304 64.216 46.2319 67.5002 46.2899V39.4493C62.4299 39.2754 58.4544 35.1014 58.4544 30Z" fill="white"/>
</svg>
