<svg width="100" height="100" viewBox="0 0 100 100" fill="none" xmlns="http://www.w3.org/2000/svg">
<circle cx="50" cy="50" r="50" fill="#151C3A"/>
<path d="M42.5836 66.2502C57.6742 66.2502 65.9305 53.7448 65.9305 42.9033C65.9305 42.5518 65.9227 42.1924 65.907 41.8408C67.5131 40.6793 68.8992 39.2407 70 37.5924C68.5042 38.2579 66.9161 38.6925 65.2898 38.8815C67.0021 37.8551 68.2842 36.2427 68.8984 34.3432C67.2876 35.2978 65.526 35.9713 63.6891 36.3346C62.4514 35.0195 60.815 34.1488 59.0328 33.857C57.2506 33.5652 55.422 33.8687 53.8296 34.7204C52.2372 35.5721 50.9697 36.9248 50.2231 38.5691C49.4765 40.2134 49.2924 42.0579 49.6992 43.8174C46.4375 43.6537 43.2466 42.8064 40.3333 41.3304C37.42 39.8544 34.8495 37.7826 32.7883 35.2494C31.7407 37.0556 31.4201 39.193 31.8917 41.2271C32.3633 43.2611 33.5918 45.0393 35.3273 46.2002C34.0244 46.1589 32.75 45.808 31.6094 45.1768V45.2783C31.6082 47.1738 32.2635 49.0112 33.4638 50.4782C34.6642 51.9452 36.3355 52.9512 38.1937 53.3252C36.9868 53.6555 35.72 53.7036 34.4914 53.4658C35.0158 55.096 36.036 56.5217 37.4096 57.5441C38.7833 58.5665 40.4419 59.1346 42.1539 59.169C39.2474 61.4521 35.657 62.6905 31.9609 62.6846C31.3055 62.6836 30.6507 62.6434 30 62.5643C33.7548 64.9732 38.1226 66.2526 42.5836 66.2502Z" fill="white"/>
</svg>
