<svg width="1792" height="398" viewBox="0 0 1792 398" fill="none" xmlns="http://www.w3.org/2000/svg">
<path d="M224.553 392.416V366.114C212.853 375.925 199.492 383.563 185.101 388.668C170.47 393.953 155.024 396.624 139.468 396.558C120.673 396.748 102.044 393.031 84.7606 385.643C68.1916 378.514 53.1463 368.268 40.4425 355.462C27.6997 342.425 17.6458 327.009 10.8532 310.092C3.56423 292.251 -0.123041 273.144 0.00379358 253.872C-0.13532 234.663 3.5529 215.619 10.8532 197.85C24.5346 165.126 50.0535 138.766 82.3163 124.03C114.579 109.294 151.212 107.267 184.904 118.354C199.012 122.989 212.32 129.776 224.356 138.474V115.789H278.735V392.416H224.553ZM53.5933 253.281C53.2609 265.943 55.4956 278.541 60.1628 290.316C64.8299 302.092 71.8329 312.8 80.7496 321.796C89.3663 330.796 99.7614 337.905 111.274 342.671C122.786 347.437 135.164 349.755 147.621 349.479C162.468 349.62 177.182 346.664 190.822 340.799C203.669 335.288 215.092 326.923 224.225 316.339V190.683C214.879 180.348 203.39 172.18 190.559 166.748C176.995 160.934 162.378 157.979 147.621 158.069C135.211 157.788 122.875 160.053 111.374 164.723C99.8725 169.394 89.4502 176.371 80.7496 185.225C71.7696 194.089 64.7076 204.704 60.0021 216.411C55.2966 228.118 53.048 240.668 53.396 253.281H53.5933Z" fill="#BFFFE6"/>
<path d="M383.284 0.00012207V392.42H328.906V11.9673L383.284 0.00012207Z" fill="#BFFFE6"/>
<path d="M488.162 0.00012207V392.42H433.849V11.9673L488.162 0.00012207Z" fill="#BFFFE6"/>
<path d="M750.653 392.422V366.121C738.952 375.931 725.591 383.569 711.2 388.674C696.569 393.959 681.123 396.63 665.567 396.565C646.687 396.698 627.987 392.891 610.662 385.386C594.093 378.257 579.048 368.011 566.344 355.205C553.601 342.169 543.548 326.753 536.755 309.835C529.466 291.994 525.779 272.888 525.906 253.616C525.766 234.406 529.455 215.362 536.755 197.593C550.487 164.872 576.058 138.537 608.36 123.849C640.663 109.16 677.318 107.2 711.003 118.36C724.997 123.026 738.191 129.812 750.127 138.48V115.795H804.505V392.422H750.653ZM579.692 253.287C579.36 265.949 581.595 278.547 586.262 290.322C590.929 302.098 597.932 312.806 606.849 321.802C615.465 330.802 625.86 337.911 637.373 342.677C648.885 347.443 661.264 349.761 673.72 349.485C688.567 349.621 703.279 346.665 716.921 340.805C729.768 335.294 741.191 326.929 750.324 316.345V190.689C740.979 180.355 729.489 172.186 716.658 166.755C703.094 160.94 688.477 157.985 673.72 158.075C661.31 157.794 648.974 160.059 637.473 164.729C625.972 169.4 615.549 176.377 606.849 185.231C597.869 194.095 590.807 204.71 586.101 216.417C581.396 228.124 579.147 240.674 579.495 253.287H579.692Z" fill="#BFFFE6"/>
<path d="M959.291 392.419H906.687L829.492 115.792H882.095L935.356 319.103L998.94 115.792H1045.69L1108.68 319.103L1162.54 115.792H1213.63L1136.04 392.419H1083.83L1021.89 189.699L959.291 392.419Z" fill="#BFFFE6"/>
<path d="M1473.03 360.925C1442.63 385.13 1404.76 398.008 1365.91 397.353C1327.45 397.513 1290.43 382.705 1262.68 356.059C1249.45 343.173 1238.99 327.709 1231.97 310.623C1220.92 284.346 1217.79 255.415 1222.95 227.381C1228.11 199.347 1241.35 173.431 1261.04 152.814C1273.87 139.672 1289.21 129.244 1306.16 122.15C1323.1 115.056 1341.3 111.441 1359.67 111.52C1377.59 111.43 1395.33 115.079 1411.76 122.235C1428.18 129.39 1442.94 139.895 1455.08 153.077C1467.2 166.53 1476.68 182.144 1483.02 199.105C1490 217.317 1493.5 236.676 1493.35 256.179V271.894H1274.91C1278.32 294.095 1289.62 314.323 1306.73 328.874C1323.84 343.425 1345.62 351.325 1368.08 351.128C1381.23 351.154 1394.28 348.93 1406.68 344.552C1418.25 340.629 1428.96 334.537 1438.24 326.601L1473.03 360.925ZM1358.29 157.088C1338.33 156.824 1319.02 164.131 1304.24 177.537C1288.61 191.488 1278.26 210.385 1274.91 231.061H1439.3C1435.72 210.901 1425.71 192.443 1410.76 178.458C1396.78 164.684 1377.91 157.001 1358.29 157.088Z" fill="#BFFFE6"/>
<path d="M1771.94 360.919C1741.54 385.124 1703.68 398.002 1664.83 397.346C1645.25 397.472 1625.84 393.671 1607.75 386.168C1590.62 379.166 1575 368.943 1561.72 356.053C1548.51 343.15 1538.06 327.691 1531.02 310.617C1520.01 284.332 1516.9 255.411 1522.06 227.386C1527.22 199.362 1540.43 173.447 1560.08 152.808C1572.64 139.95 1587.61 129.694 1604.14 122.627C1621.26 115.316 1639.7 111.623 1658.32 111.777C1676.24 111.687 1693.98 115.336 1710.4 122.492C1726.83 129.647 1741.59 140.152 1753.73 153.334C1765.85 166.786 1775.33 182.401 1781.67 199.361C1788.65 217.573 1792.15 236.933 1791.99 256.436V272.151H1573.56C1577.04 294.349 1588.4 314.55 1605.56 329.054C1622.72 343.558 1644.53 351.392 1667 351.121C1680.14 351.148 1693.2 348.924 1705.59 344.546C1717.17 340.639 1727.88 334.545 1737.16 326.595L1771.94 360.919ZM1657.27 157.082C1637.29 156.801 1617.95 164.109 1603.15 177.531C1587.68 191.487 1577.43 210.296 1574.09 230.857H1738.47C1734.9 210.697 1724.89 192.239 1709.93 178.254C1702.98 171.434 1694.75 166.053 1685.71 162.42C1676.67 158.787 1667.01 156.973 1657.27 157.082Z" fill="#BFFFE6"/>
</svg>
