<svg width="208" height="48" viewBox="0 0 208 48" fill="none" xmlns="http://www.w3.org/2000/svg">
<g id="Layer 2">
<g id="Group 350">
<path id="Vector" d="M68.8641 42.3223V39.9931C67.8279 40.8619 66.6446 41.5383 65.3702 41.9904C64.0745 42.4584 62.7066 42.6949 61.329 42.6892C59.6645 42.7059 58.0147 42.3768 56.4841 41.7225C55.0168 41.0912 53.6844 40.1838 52.5593 39.0497C51.4308 37.8952 50.5405 36.53 49.9389 35.0318C49.2934 33.4518 48.9669 31.7597 48.9781 30.053C48.9658 28.3518 49.2924 26.6653 49.9389 25.0917C51.1505 22.1937 53.4105 19.8592 56.2677 18.5542C59.1248 17.2492 62.369 17.0697 65.3527 18.0515C66.6022 18.4621 67.7807 19.0631 68.8466 19.8334V17.8244H73.6623V42.3223H68.8641ZM53.724 30.0006C53.6945 31.1219 53.8924 32.2376 54.3058 33.2805C54.7191 34.3233 55.3393 35.2716 56.1289 36.0683C56.892 36.8653 57.8126 37.4949 58.8321 37.9169C59.8517 38.339 60.9479 38.5443 62.051 38.5198C63.3659 38.5324 64.6689 38.2706 65.8768 37.7512C67.0146 37.2631 68.0262 36.5223 68.835 35.585V24.457C68.0074 23.5418 66.9898 22.8184 65.8535 22.3374C64.6524 21.8224 63.3579 21.5607 62.051 21.5687C60.952 21.5438 59.8595 21.7444 58.841 22.158C57.8224 22.5716 56.8994 23.1896 56.1289 23.9737C55.3337 24.7586 54.7082 25.6987 54.2915 26.7355C53.8748 27.7722 53.6757 28.8836 53.7065 30.0006H53.724Z" fill="white"/>
<path id="Vector_2" d="M82.9212 7.57031V42.3227H78.1055V8.63012L82.9212 7.57031Z" fill="white"/>
<path id="Vector_3" d="M92.2091 7.57031V42.3227H87.3992V8.63012L92.2091 7.57031Z" fill="white"/>
<path id="Vector_4" d="M115.455 42.3229V39.9936C114.419 40.8625 113.236 41.5389 111.961 41.991C110.665 42.459 109.298 42.6955 107.92 42.6898C106.248 42.7016 104.592 42.3644 103.058 41.6998C101.59 41.0684 100.258 40.161 99.1328 39.027C98.0043 37.8725 97.114 36.5072 96.5124 35.0091C95.8669 33.4291 95.5404 31.737 95.5516 30.0303C95.5393 28.3291 95.8659 26.6426 96.5124 25.069C97.7285 22.1713 99.9931 19.839 102.854 18.5382C105.714 17.2374 108.961 17.0638 111.944 18.0521C113.183 18.4654 114.351 19.0663 115.408 19.834V17.825H120.224V42.3229H115.455ZM100.315 30.0012C100.285 31.1225 100.483 32.2382 100.897 33.281C101.31 34.3238 101.93 35.2722 102.72 36.0689C103.483 36.8659 104.404 37.4955 105.423 37.9175C106.443 38.3396 107.539 38.5449 108.642 38.5204C109.957 38.5324 111.26 38.2707 112.468 37.7517C113.606 37.2637 114.617 36.5229 115.426 35.5855V24.4576C114.598 23.5423 113.581 22.8189 112.444 22.3379C111.243 21.823 109.949 21.5613 108.642 21.5693C107.543 21.5444 106.45 21.745 105.432 22.1586C104.413 22.5722 103.49 23.1901 102.72 23.9742C101.925 24.7592 101.299 25.6992 100.882 26.736C100.466 27.7728 100.267 28.8842 100.297 30.0012H100.315Z" fill="white"/>
<path id="Vector_5" d="M133.932 42.3226H129.273L122.437 17.8247H127.096L131.812 35.8298L137.443 17.8247H141.583L147.162 35.8298L151.931 17.8247H156.456L149.584 42.3226H144.961L139.475 24.3699L133.932 42.3226Z" fill="white"/>
<path id="Vector_6" d="M179.428 39.5335C176.736 41.6771 173.383 42.8176 169.942 42.7596C166.535 42.7738 163.257 41.4623 160.8 39.1026C159.628 37.9615 158.702 36.592 158.08 35.0789C157.102 32.7518 156.824 30.1896 157.282 27.707C157.739 25.2243 158.911 22.9292 160.654 21.1034C161.791 19.9395 163.15 19.016 164.65 18.3878C166.151 17.7596 167.762 17.4394 169.389 17.4464C170.976 17.4384 172.547 17.7616 174.002 18.3953C175.457 19.029 176.763 19.9593 177.838 21.1266C178.912 22.318 179.751 23.7008 180.313 25.2028C180.931 26.8157 181.241 28.5301 181.227 30.2573V31.649H161.883C162.185 33.6151 163.186 35.4065 164.701 36.6951C166.216 37.9838 168.145 38.6834 170.134 38.6659C171.299 38.6683 172.455 38.4713 173.552 38.0836C174.577 37.7362 175.525 37.1966 176.348 36.4939L179.428 39.5335ZM169.267 21.4819C167.5 21.4585 165.789 22.1056 164.48 23.2929C163.096 24.5283 162.179 26.2018 161.883 28.0329H176.441C176.125 26.2475 175.238 24.6129 173.914 23.3744C172.675 22.1546 171.005 21.4742 169.267 21.4819Z" fill="white"/>
<path id="Vector_7" d="M205.9 39.533C203.208 41.6765 199.854 42.8171 196.414 42.759C194.68 42.7701 192.961 42.4335 191.359 41.7691C189.842 41.1489 188.459 40.2436 187.283 39.1021C186.113 37.9594 185.187 36.5903 184.564 35.0783C183.589 32.7505 183.313 30.1893 183.77 27.7074C184.227 25.2256 185.397 22.9306 187.137 21.1028C188.25 19.9641 189.575 19.0559 191.039 18.43C192.555 17.7826 194.189 17.4555 195.837 17.4692C197.424 17.4612 198.995 17.7843 200.45 18.418C201.905 19.0517 203.212 19.982 204.287 21.1494C205.36 22.3407 206.2 23.7236 206.761 25.2256C207.379 26.8384 207.69 28.5529 207.676 30.28V31.6718H188.331C188.639 33.6376 189.645 35.4266 191.165 36.7111C192.685 37.9955 194.616 38.6893 196.606 38.6653C197.77 38.6677 198.926 38.4707 200.024 38.083C201.049 37.7371 201.998 37.1974 202.819 36.4933L205.9 39.533ZM195.744 21.4813C193.975 21.4565 192.262 22.1037 190.952 23.2923C189.582 24.5282 188.674 26.1939 188.378 28.0148H202.936C202.619 26.2295 201.733 24.5949 200.408 23.3563C199.792 22.7523 199.063 22.2758 198.263 21.954C197.463 21.6323 196.607 21.4716 195.744 21.4813Z" fill="white"/>
</g>
<g id="Layer 1">
<path id="Vector_8" fill-rule="evenodd" clip-rule="evenodd" d="M30.5073 28.4867C30.1871 19.9151 30.915 12.345 32.3358 2.08468C32.3715 1.82561 32.3514 1.5619 32.2768 1.31123C32.2023 1.06057 32.0749 0.828753 31.9034 0.631326C31.7319 0.433899 31.5202 0.275428 31.2824 0.166542C31.0446 0.0576561 30.7863 0.000872592 30.5248 0L8.73468 0C8.47849 0.000213034 8.22519 0.0542639 7.99122 0.158648C7.75725 0.263033 7.54783 0.415421 7.37654 0.605934C7.20524 0.796447 7.07589 1.02083 6.99688 1.26454C6.91786 1.50825 6.89095 1.76584 6.91787 2.02062L6.9761 2.60294C8.04756 12.8516 8.8395 20.3809 8.79874 28.4692C6.03314 27.2225 3.03363 26.5793 0 26.5826L0 32.79C0.0175475 33.2765 0.208622 33.7406 0.538656 34.0984C0.868691 34.4562 1.31589 34.684 1.79935 34.7407C3.74503 35.0215 5.60331 35.7337 7.23814 36.8254C7.64325 37.0933 8.03214 37.385 8.40277 37.6989C10.1924 39.1937 11.5562 41.1339 12.3567 43.324C12.8887 44.7833 13.1607 46.3245 13.1603 47.8777C13.1603 47.9101 13.1731 47.9412 13.1961 47.9642C13.219 47.9871 13.2501 48 13.2825 48H26.0934C26.1095 48 26.1254 47.9968 26.1402 47.9907C26.155 47.9845 26.1685 47.9755 26.1799 47.9642C26.1912 47.9528 26.2002 47.9393 26.2064 47.9245C26.2125 47.9097 26.2157 47.8938 26.2157 47.8777C26.2096 45.366 26.9166 42.9042 28.2547 40.7786C29.5927 38.653 31.5067 36.951 33.7741 35.8704C34.9564 35.308 36.2167 34.9271 37.5126 34.7407C37.9971 34.6853 38.4457 34.458 38.7769 34.1001C39.1081 33.7422 39.3 33.2773 39.3177 32.79V26.5826C36.2787 26.5815 33.2747 27.2308 30.5073 28.4867ZM28.6207 20.9167L28.3237 29.6513C25.8605 31.1315 23.7167 33.0873 22.0172 35.4046C21.09 36.688 20.3088 38.0708 19.688 39.5274C19.0672 38.0708 18.2859 36.688 17.3587 35.4046C15.6375 33.052 13.4588 31.0714 10.9533 29.5815C10.9533 22.7218 10.5748 17.0501 10.1555 10.5166C10.0682 9.218 9.98083 7.88451 9.89349 6.4986C10.7962 6.44515 11.6444 6.04885 12.2646 5.39074C12.8849 4.73264 13.2302 3.86245 13.2301 2.95815H25.9013C25.9096 3.84954 26.2544 4.70487 26.8667 5.35277C27.479 6.00068 28.3135 6.39331 29.203 6.45202L28.6207 20.9167Z" fill="#5CD89F"/>
<path id="Vector_9" fill-rule="evenodd" clip-rule="evenodd" d="M24.498 21.7257C24.4957 22.68 24.2106 23.6122 23.6788 24.4045C23.1469 25.1968 22.3922 25.8137 21.5099 26.1773C20.6276 26.5409 19.6574 26.6349 18.7217 26.4473C17.7861 26.2597 16.927 25.799 16.2531 25.1234C15.5791 24.4479 15.1205 23.5877 14.9352 22.6516C14.7498 21.7155 14.8461 20.7455 15.2118 19.8641C15.5775 18.9826 16.1963 18.2294 16.9899 17.6995C17.7835 17.1696 18.7164 16.8867 19.6706 16.8867C20.3055 16.8867 20.9342 17.012 21.5207 17.2553C22.1071 17.4986 22.6398 17.8552 23.0882 18.3047C23.5366 18.7542 23.892 19.2878 24.1339 19.8748C24.3758 20.4618 24.4995 21.0908 24.498 21.7257Z" fill="#5CD89F"/>
</g>
</g>
</svg>
